<svg width="434" height="366" viewBox="0 0 434 366" fill="none" xmlns="http://www.w3.org/2000/svg">
<path d="M221.645 365.321C338.591 365.321 433.394 316.266 433.394 255.754C433.394 195.241 338.591 146.186 221.645 146.186C104.699 146.186 9.89597 195.241 9.89597 255.754C9.89597 316.266 104.699 365.321 221.645 365.321Z" fill="#B2BBC6"/>
<path d="M328.769 242.561C353.156 242.561 372.926 231.696 372.926 218.294C372.926 204.891 353.156 194.027 328.769 194.027C304.383 194.027 284.613 204.891 284.613 218.294C284.613 231.696 304.383 242.561 328.769 242.561Z" fill="white"/>
<path d="M89.9054 304.099C114.292 304.099 134.062 293.234 134.062 279.832C134.062 266.429 114.292 255.564 89.9054 255.564C65.5186 255.564 45.7492 266.429 45.7492 279.832C45.7492 293.234 65.5186 304.099 89.9054 304.099Z" fill="white"/>
<path d="M395.127 209.805L388.746 206.336C388.746 206.336 385.688 190.287 387.969 176.5C391.188 157.108 405.058 150.412 410.104 152.341C415.15 154.269 416.324 160.018 407.264 171.264C401.858 177.833 394.994 191.801 395.127 209.805Z" fill="#0589D3"/>
<g opacity="0.1">
<path d="M395.127 209.805L388.746 206.336C388.746 206.336 385.688 190.287 387.969 176.5C391.188 157.108 405.058 150.412 410.104 152.341C415.15 154.269 416.324 160.018 407.264 171.264C401.858 177.833 394.994 191.801 395.127 209.805Z" fill="#16171A"/>
</g>
<path d="M392.088 201.911H392.154C392.214 201.906 392.272 201.889 392.325 201.862C392.378 201.835 392.424 201.798 392.462 201.753C392.5 201.709 392.528 201.658 392.545 201.603C392.562 201.548 392.568 201.491 392.561 201.434C390.478 183.213 398.753 163.587 407.614 155.774C407.703 155.695 407.756 155.586 407.76 155.47C407.765 155.354 407.721 155.241 407.638 155.156C407.555 155.072 407.44 155.022 407.319 155.017C407.197 155.013 407.079 155.055 406.989 155.134C397.976 163.055 389.541 183.069 391.652 201.533C391.667 201.634 391.719 201.727 391.799 201.796C391.878 201.866 391.98 201.906 392.088 201.911Z" fill="#B2BBC6"/>
<path d="M412.821 219.528C413.825 220.078 415.898 218.88 416.694 218.366C418.058 217.486 419.161 216.284 419.894 214.879C420.715 213.281 420.996 211.48 420.698 209.724C420.531 208.81 420.303 207.907 420.017 207.021C419.742 206.12 419.477 205.219 419.212 204.362C418.883 203.497 418.744 202.577 418.805 201.659C419.041 199.857 420.698 198.568 422.279 197.469C423.983 196.252 425.763 194.648 425.754 192.459C425.625 190.76 424.913 189.148 423.728 187.872C422.63 186.547 421.323 185.376 420.329 183.979C419.542 183.005 419.134 181.801 419.174 180.573C419.276 179.823 419.54 179.102 419.95 178.455C420.884 177.099 421.7 175.674 422.393 174.193C422.952 172.661 422.876 170.751 421.617 169.687C421.053 169.294 420.413 169.012 419.733 168.857C419.054 168.702 418.349 168.678 417.659 168.786C416.353 168.937 415.097 169.355 413.976 170.012C410.322 171.949 408.239 176.067 404.367 177.554C402.843 177.981 401.294 178.324 399.728 178.581C398.932 178.719 398.176 179.015 397.509 179.45C396.842 179.884 396.278 180.448 395.856 181.104C394.436 183.808 397.077 187.142 396.073 190.008C395.183 192.549 392.589 193.522 391.141 195.811C390.545 196.821 390.306 197.987 390.459 199.136C390.583 201.08 391.08 202.986 391.927 204.759C392.877 206.521 393.962 208.214 395.174 209.823C395.183 209.859 412.66 219.447 412.821 219.528Z" fill="#0589D3"/>
<path d="M402.464 214.284C402.525 214.283 402.584 214.27 402.639 214.247C402.695 214.223 402.745 214.19 402.786 214.148C402.827 214.106 402.86 214.056 402.881 214.002C402.902 213.948 402.911 213.891 402.909 213.833C402.161 196.649 410.663 177.68 416.855 172.165C416.898 172.126 416.933 172.079 416.958 172.028C416.982 171.976 416.996 171.92 416.997 171.863C416.999 171.806 416.989 171.749 416.968 171.696C416.947 171.643 416.914 171.594 416.873 171.553C416.832 171.511 416.783 171.478 416.729 171.455C416.674 171.431 416.615 171.418 416.555 171.417C416.496 171.415 416.436 171.425 416.38 171.445C416.324 171.465 416.273 171.496 416.23 171.535C409.915 177.158 401.243 196.442 402.028 213.887C402.038 213.993 402.087 214.091 402.167 214.164C402.247 214.237 402.353 214.28 402.464 214.284Z" fill="#B2BBC6"/>
<path d="M405.172 193.981H405.304C409.581 192.856 413.975 192.182 418.407 191.972C418.527 191.965 418.639 191.914 418.72 191.83C418.801 191.746 418.845 191.635 418.843 191.521C418.843 191.464 418.831 191.407 418.806 191.354C418.782 191.301 418.747 191.254 418.702 191.215C418.657 191.176 418.605 191.146 418.548 191.127C418.49 191.109 418.43 191.102 418.369 191.107C413.861 191.323 409.391 192.009 405.039 193.152C404.982 193.169 404.929 193.196 404.882 193.232C404.836 193.268 404.798 193.313 404.77 193.363C404.742 193.413 404.724 193.468 404.718 193.525C404.713 193.581 404.719 193.639 404.736 193.693C404.767 193.779 404.825 193.854 404.904 193.906C404.982 193.958 405.076 193.984 405.172 193.981Z" fill="#B2BBC6"/>
<path d="M28.064 229.324L34.4072 225.836C34.4072 225.836 37.4841 209.787 35.193 196C31.9835 176.608 18.1516 169.921 13.0676 171.841C7.98355 173.76 6.84745 179.518 15.9078 190.764C21.3137 197.334 28.2344 211.328 28.064 229.324Z" fill="#0589D3"/>
<g opacity="0.1">
<path d="M28.064 229.324L34.4072 225.836C34.4072 225.836 37.4841 209.787 35.193 196C31.9835 176.608 18.1516 169.921 13.0676 171.841C7.98355 173.76 6.84745 179.518 15.9078 190.764C21.3137 197.334 28.2344 211.328 28.064 229.324Z" fill="#16171A"/>
</g>
<path d="M31.4439 228.395C31.32 228.388 31.2039 228.335 31.1207 228.248C31.0375 228.16 30.9937 228.045 30.9989 227.927C32.4948 200.893 28.4995 185.511 17.6309 176.382C17.5435 176.297 17.4947 176.182 17.4947 176.063C17.4947 175.943 17.5435 175.828 17.6309 175.743C17.7209 175.66 17.8415 175.613 17.967 175.613C18.0924 175.613 18.213 175.66 18.3031 175.743C29.4084 185.069 33.5078 200.704 31.993 228.008C31.985 228.068 31.9642 228.126 31.9319 228.179C31.8997 228.231 31.8566 228.277 31.8053 228.313C31.754 228.349 31.6955 228.375 31.6334 228.389C31.5713 228.404 31.5068 228.406 31.4439 228.395Z" fill="#B2BBC6"/>
<path d="M29.9859 228.26C30.1184 222.457 26.5681 203.236 14.6202 196.243C2.67229 189.25 -3.13126 197.964 1.70661 203.245C5.2569 207.111 11.8652 209.904 18.0853 217.897C22.3551 223.394 24.8167 231.117 24.8167 231.117L29.9859 228.26Z" fill="#0589D3"/>
<path d="M27.8463 230.513C27.7255 230.513 27.6092 230.469 27.5212 230.391C27.4332 230.312 27.3801 230.204 27.3729 230.089C26.2273 215.437 17.4889 202.29 6.11845 198.126C6.06002 198.105 6.00656 198.073 5.96114 198.032C5.91572 197.991 5.87922 197.942 5.85372 197.888C5.82823 197.833 5.81424 197.775 5.81255 197.715C5.81086 197.655 5.82151 197.596 5.84389 197.541C5.86627 197.485 5.89994 197.434 5.94298 197.391C5.98602 197.348 6.03758 197.313 6.09472 197.289C6.15187 197.264 6.21347 197.251 6.27602 197.249C6.33858 197.248 6.40085 197.258 6.45928 197.279C18.1895 201.578 27.1457 215.04 28.3196 230.026C28.3248 230.086 28.3173 230.146 28.2976 230.203C28.2779 230.261 28.2464 230.313 28.2049 230.359C28.1634 230.404 28.1129 230.441 28.0561 230.468C27.9994 230.494 27.9377 230.509 27.8747 230.513H27.8463Z" fill="#B2BBC6"/>
<path d="M268.585 57.335C270.024 58.4614 271.671 59.0471 273.565 60.7953C274.762 62.0917 276.273 63.0908 277.967 63.7059C280.154 64.535 282.208 64.2917 288.277 63.3635C295.69 62.2371 298.881 61.0476 302.081 58.4524C305.82 55.4156 314.189 46.2511 318.232 42.6556C322.511 38.8529 328.391 40.3217 328.391 40.3217C326.571 45.9582 323.864 51.2994 320.362 56.1635C317.124 60.552 311.075 64.7602 308.339 66.9229C303.955 70.3923 301.626 71.762 292.007 72.4558C284.746 72.9785 283.78 73.1407 277.806 72.9785C275.657 72.9154 274.322 72.8974 270.8 72.6181C269.271 72.5228 267.757 72.272 266.284 71.8701C264.618 71.5052 263.021 70.8972 261.55 70.0679C259.63 68.8812 258.081 67.2256 257.063 65.2739C256.507 64.2008 256.221 63.019 256.23 61.8226C256.245 60.6167 256.708 59.4548 257.536 58.5425C257.699 58.3562 257.907 58.2108 258.142 58.1189C258.601 58.0445 259.072 58.1413 259.458 58.3893C261.73 59.4977 264.021 61.0296 266.407 61.9037C268.414 62.6336 269.948 62.8949 269.797 62.5074C269.645 62.1199 268.433 61.7685 267.184 60.4258C265.934 59.0831 265.621 57.2178 266.426 56.6321C267.231 56.0464 267.184 56.1995 268.585 57.335Z" fill="#FFA8A7"/>
<path d="M330.114 40.2946C327.825 39.2477 325.23 38.9774 322.758 39.5286C319.018 40.5559 316.017 42.8808 312.447 46.5304C308.878 50.1799 302.847 56.0733 302.847 56.0733C302.847 56.0733 305.82 63.2192 312.485 65.7604L326.459 53.46L330.114 40.2946Z" fill="white"/>
<path d="M350.649 203.579H342.175V217.384H350.649V203.579Z" fill="#FFA8A7"/>
<path d="M327.198 207.057L318.734 207.336L318.308 192.729L327.198 192.45V207.057Z" fill="#FFA8A7"/>
<path d="M354.284 100.517C354.284 108.212 352.855 152.998 352.855 152.998C353.044 155.215 355.288 159.153 355.468 167.137C355.714 178.707 351.037 210.481 351.037 210.481C349.569 211.171 347.96 211.545 346.324 211.576C344.688 211.607 343.064 211.295 341.569 210.661C341.569 210.661 337.726 167.588 336.201 156.134C334.876 146.132 332.632 118.972 332.632 118.972L328.646 151.611C329.617 155.815 329.961 160.129 329.669 164.425C329.271 169.723 327.7 202.533 327.7 202.533C326.224 203.328 324.583 203.803 322.893 203.926C321.203 204.049 319.505 203.817 317.92 203.245C317.92 203.245 311.946 156.468 311.851 151.611C311.737 146.069 314.057 89.4871 314.057 89.4871L354.284 100.517Z" fill="#37474F"/>
<path d="M348.689 43.8722C350.554 44.6589 352.02 46.1122 352.769 47.9183C353.638 50.1455 354.059 52.5086 354.009 54.884V70.6807L354.256 100.517C342.09 106.618 326.639 107.023 313.659 98.0028C313.659 98.0028 314.388 59.6059 314.388 53.325C314.388 53.0457 314.388 52.7573 314.388 52.4239C314.862 43.4127 324.14 37.294 333.323 39.5288L341.03 41.4572L348.736 43.8722H348.689Z" fill="#B2BBC6"/>
<path d="M329.608 25.293C335.868 23.8868 339.744 17.9172 338.267 11.9595C336.79 6.00173 330.518 2.31194 324.259 3.71809C317.999 5.12425 314.123 11.0939 315.6 17.0516C317.077 23.0094 323.349 26.6991 329.608 25.293Z" fill="#0589D3"/>
<path opacity="0.5" d="M329.608 25.293C335.868 23.8868 339.744 17.9172 338.267 11.9595C336.79 6.00173 330.518 2.31194 324.259 3.71809C317.999 5.12425 314.123 11.0939 315.6 17.0516C317.077 23.0094 323.349 26.6991 329.608 25.293Z" fill="#16171A"/>
<path d="M347.06 22.3623C347.06 22.3623 345.167 30.8058 344.419 32.1846C343.918 33.047 343.087 33.6925 342.099 33.9868L342.232 28.0484L347.06 22.3623Z" fill="#0589D3"/>
<path opacity="0.5" d="M347.06 22.3623C347.06 22.3623 345.167 30.8058 344.419 32.1846C343.918 33.047 343.087 33.6925 342.099 33.9868L342.232 28.0484L347.06 22.3623Z" fill="#16171A"/>
<path d="M344.694 10.2783C345.354 10.2048 346.023 10.2763 346.65 10.4871C347.277 10.698 347.845 11.0427 348.31 11.4948C349.863 12.9997 348.992 17.7306 347.06 22.3623L343.51 22.7588L344.694 10.2783Z" fill="#0589D3"/>
<path opacity="0.5" d="M344.694 10.2783C345.354 10.2048 346.023 10.2763 346.65 10.4871C347.277 10.698 347.845 11.0427 348.31 11.4948C349.863 12.9997 348.992 17.7306 347.06 22.3623L343.51 22.7588L344.694 10.2783Z" fill="#16171A"/>
<path d="M342.44 22.759C343.15 23.1645 344.173 21.8578 345.044 20.9567C345.915 20.0556 348.831 18.8841 350.223 21.7587C351.614 24.6333 348.963 28.5442 346.701 29.22C342.81 30.3825 342.232 28.0035 342.232 28.0035L341.976 41.8087C337.139 47.7111 323.714 47.2155 329.309 41.0428V36.9787C327.575 37.2399 325.817 37.3245 324.064 37.231C321.224 36.8075 319.397 34.6628 318.526 31.7161C317.134 26.9762 316.632 23.1554 317.787 13.8378C319.084 3.62806 331.562 3.51993 338.303 7.52994C345.044 11.5399 342.44 22.759 342.44 22.759Z" fill="#FFA8A7"/>
<path d="M342.44 23.8942C342.8 23.8942 344.163 21.7495 345.044 20.9836C346.275 19.9202 344.694 10.2782 344.694 10.2782C345.017 9.44425 345.077 8.53849 344.867 7.67234C344.657 6.80619 344.185 6.01743 343.51 5.4031C341.825 3.60085 339.013 3.44766 334.204 2.69972C331.685 2.32125 327.86 1.65442 325.342 1.20385C322.341 0.672191 319.851 0.113494 317.768 1.87069C316.934 2.55462 316.344 3.46828 316.08 4.48531C315.815 5.50234 315.889 6.57249 316.291 7.54778C316.885 8.76262 317.945 9.71422 319.255 10.2061C319.255 10.2061 320.561 11.3145 325.124 11.8461C329.333 12.1428 333.561 12.0644 337.754 11.6119C339.079 11.4406 339.363 12.6662 340.073 15.9913C340.717 18.92 341.238 23.8762 342.44 23.8942Z" fill="#0589D3"/>
<path opacity="0.5" d="M342.44 23.8942C342.8 23.8942 344.163 21.7495 345.044 20.9836C346.275 19.9202 344.694 10.2782 344.694 10.2782C345.017 9.44425 345.077 8.53849 344.867 7.67234C344.657 6.80619 344.185 6.01743 343.51 5.4031C341.825 3.60085 339.013 3.44766 334.204 2.69972C331.685 2.32125 327.86 1.65442 325.342 1.20385C322.341 0.672191 319.851 0.113494 317.768 1.87069C316.934 2.55462 316.344 3.46828 316.08 4.48531C315.815 5.50234 315.889 6.57249 316.291 7.54778C316.885 8.76262 317.945 9.71422 319.255 10.2061C319.255 10.2061 320.561 11.3145 325.124 11.8461C329.333 12.1428 333.561 12.0644 337.754 11.6119C339.079 11.4406 339.363 12.6662 340.073 15.9913C340.717 18.92 341.238 23.8762 342.44 23.8942Z" fill="#16171A"/>
<path d="M344.684 11.0261L348.992 8.8273C348.854 8.55536 348.66 8.31246 348.422 8.11293C348.184 7.9134 347.906 7.76127 347.605 7.66553C347.304 7.56978 346.986 7.53236 346.67 7.55546C346.354 7.57855 346.045 7.66171 345.763 7.80002C345.182 8.10239 344.746 8.60636 344.545 9.20717C344.344 9.80798 344.394 10.4594 344.684 11.0261Z" fill="#0589D3"/>
<path opacity="0.5" d="M344.684 11.0261L348.992 8.8273C348.854 8.55536 348.66 8.31246 348.422 8.11293C348.184 7.9134 347.906 7.76127 347.605 7.66553C347.304 7.56978 346.986 7.53236 346.67 7.55546C346.354 7.57855 346.045 7.66171 345.763 7.80002C345.182 8.10239 344.746 8.60636 344.545 9.20717C344.344 9.80798 344.394 10.4594 344.684 11.0261Z" fill="#16171A"/>
<path d="M329.281 36.9786C329.281 36.9786 335.671 35.7531 337.905 34.6176C339.234 33.9693 340.324 32.9508 341.03 31.698C340.694 32.9399 340.098 34.1046 339.278 35.1223C337.64 37.1138 329.318 38.5736 329.318 38.5736L329.281 36.9786Z" fill="#F28F8F"/>
<path d="M329.593 21.2357C329.6 21.4747 329.682 21.7062 329.827 21.9015C329.971 22.0967 330.174 22.247 330.408 22.3336C330.642 22.4202 330.897 22.4392 331.143 22.3883C331.388 22.3373 331.612 22.2187 331.787 22.0472C331.962 21.8758 332.08 21.659 332.127 21.4241C332.173 21.1891 332.146 20.9464 332.048 20.7262C331.95 20.506 331.786 20.3181 331.577 20.1859C331.368 20.0538 331.122 19.9833 330.871 19.9832C330.528 19.9902 330.201 20.1256 329.962 20.36C329.723 20.5944 329.59 20.909 329.593 21.2357Z" fill="#16171A"/>
<path d="M330.947 16.631L333.692 18.0728C333.885 17.7146 333.925 17.2998 333.806 16.914C333.686 16.5283 333.415 16.2011 333.049 16.0002C332.868 15.9058 332.669 15.8471 332.464 15.8278C332.259 15.8086 332.052 15.829 331.856 15.888C331.66 15.9469 331.478 16.0431 331.321 16.1708C331.165 16.2986 331.038 16.4551 330.947 16.631Z" fill="#16171A"/>
<path d="M329.858 29.6523L326.933 30.6976C326.998 30.8829 327.102 31.0536 327.239 31.1998C327.375 31.346 327.541 31.4646 327.726 31.5487C327.912 31.6327 328.113 31.6805 328.318 31.6891C328.523 31.6977 328.728 31.667 328.921 31.5988C329.31 31.4514 329.625 31.1669 329.799 30.8044C329.974 30.4418 329.995 30.0292 329.858 29.6523Z" fill="#F28F8F"/>
<path d="M318.544 17.6494L321.044 15.8472C320.932 15.6819 320.785 15.5404 320.613 15.4314C320.441 15.3224 320.248 15.2482 320.044 15.2136C319.841 15.1789 319.632 15.1845 319.431 15.2299C319.23 15.2754 319.041 15.3597 318.876 15.4777C318.533 15.7265 318.306 16.0932 318.244 16.4992C318.183 16.9052 318.29 17.3181 318.544 17.6494Z" fill="#16171A"/>
<path d="M319.311 20.8844C319.321 21.1246 319.404 21.357 319.551 21.5525C319.698 21.748 319.902 21.8981 320.138 21.984C320.374 22.0699 320.631 22.0878 320.878 22.0355C321.124 21.9833 321.349 21.8632 321.525 21.6901C321.7 21.517 321.818 21.2987 321.864 21.0623C321.91 20.8259 321.882 20.5818 321.783 20.3605C321.685 20.1392 321.52 19.9504 321.309 19.8176C321.099 19.6848 320.852 19.6139 320.599 19.6138C320.427 19.6161 320.256 19.6509 320.098 19.7161C319.94 19.7814 319.797 19.8758 319.677 19.9939C319.557 20.112 319.464 20.2515 319.401 20.4043C319.338 20.5572 319.308 20.7203 319.311 20.8844Z" fill="#16171A"/>
<path d="M325.834 19.731L325.418 27.0661L321.394 25.7595L325.834 19.731Z" fill="#F28F8F"/>
<path d="M342.175 213.401V212.247C341.361 212.59 339.477 219.456 336.116 222.34C333.446 224.665 329.801 227.341 328.873 229.927C327.946 232.514 333.948 234.1 336.447 233.685C339.344 233.189 344.372 231.252 345.64 229.45C346.909 227.648 347.486 224.989 348.481 223.665C349.475 222.34 351.87 220.871 352.419 219.339C352.722 218.501 352.362 216.636 351.936 215.113C351.51 213.59 351.122 212.121 350.611 212.247C350.611 212.428 350.611 213.148 350.611 213.148C349.402 214.05 347.905 214.53 346.369 214.509C345.167 214.536 342.166 214.302 342.175 213.401Z" fill="#16171A"/>
<path d="M318.649 204.849C318.204 204.849 317.844 205.453 316.878 206.453C315.43 207.847 313.746 209.002 311.898 209.868C308.727 211.373 302.554 213.698 299.761 214.897C298.019 215.645 298.104 217.654 299.903 218.789C301.702 219.925 306.057 220.754 311.264 219.646C314.104 219.033 317.815 216.537 320.163 216.672C322.511 216.807 326.895 216.771 328.627 215.636C330.36 214.5 329.669 212.076 329.176 209.985C328.646 207.715 327.974 204.164 327.188 204.326V205.11C326.166 206.579 320.911 207.174 318.668 206.093L318.649 204.849Z" fill="#16171A"/>
<path d="M332.642 118.972C328.262 117.675 324.235 115.478 320.845 112.538C320.845 112.538 323.117 116.593 329.886 120.369L328.94 148.871L332.642 118.972Z" fill="#16171A"/>
<path d="M81.3658 67.1482H84.3859C88.8829 67.1482 93.1958 68.8486 96.3757 71.8753C99.5556 74.9019 101.342 79.007 101.342 83.2873V117.53H64.419V83.2873C64.419 79.007 66.2055 74.9019 69.3854 71.8753C72.5653 68.8486 76.8781 67.1482 81.3752 67.1482H81.3658Z" fill="#16171A"/>
<path d="M80.1539 285.878L77.7776 283.869C75.477 281.868 73.7255 278.462 72.7125 276.173C72.1408 274.852 71.8449 273.438 71.8415 272.01V267.504H63.548V274.83V275.002C63.9456 276.642 67.761 281.012 69.9196 283.86C71.3776 285.77 74.1326 288.194 77.4273 288.618C80.58 289.068 82.18 288.131 80.1539 285.878Z" fill="#FFA8A7"/>
<path d="M104.135 273.857C104.368 273.729 104.571 273.557 104.731 273.353C105.375 272.506 104.864 272.046 104.391 271.37C103.822 270.432 103.347 269.446 102.97 268.423C102.582 267.522 102.081 265.918 102.081 265.918C102.081 265.918 102.081 264.738 102.081 264.26V259.755H93.7776V267.279C94.2036 269.081 95.8888 270.73 96.9871 272.127C97.8391 273.208 100.036 273.758 101.361 274.028C101.942 274.17 102.545 274.21 103.141 274.146C103.489 274.111 103.826 274.014 104.135 273.857Z" fill="#FFA8A7"/>
<path d="M65.1954 152.323C58.7575 165.704 65.4321 212.833 65.4321 212.833C65.2332 215.005 62.5918 219.276 61.6451 228.828C60.4995 240.119 63.4439 268.478 63.4439 268.478C64.7111 269.176 66.1383 269.57 67.6017 269.625C69.065 269.68 70.5204 269.395 71.8415 268.793C71.8415 268.793 79.7469 226.098 81.2332 214.87C82.5303 205.075 85.0202 183.538 85.0202 183.538L89.9717 214.861C88.9429 218.021 88.1986 221.259 87.7469 224.539C87.0747 231.135 93.7966 261.881 93.7966 261.881C93.7966 261.881 96.6368 262.882 102.1 262.116C102.1 262.116 104.476 221.322 105.101 213.365C106.152 200.01 104.552 158.288 101.976 150.385L65.1954 152.323Z" fill="#37474F"/>
<path d="M85.0392 183.529L87.122 171.102C87.122 171.102 95.9646 169.354 99.9693 165.767C99.9693 165.767 95.7658 170.751 89.5551 172.382L87.2072 181.943L89.309 210.328L85.0392 183.529Z" fill="#16171A"/>
<path d="M71.8699 273.65V272.506C72.6652 272.839 74.5208 279.561 77.8249 282.418C80.4474 284.698 84.0356 287.329 84.9445 289.87C85.8533 292.411 79.9551 293.97 77.503 293.565C74.6628 293.078 69.7208 291.168 68.4806 289.402C67.2403 287.636 66.6533 285.022 65.6403 283.725C64.6273 282.427 62.3078 280.985 61.7397 279.507C61.4368 278.687 61.7965 276.876 62.2131 275.353C62.6297 273.83 63.0178 272.415 63.5196 272.542V273.443C64.7046 274.327 66.1704 274.8 67.6758 274.785C68.9255 274.767 71.8794 274.533 71.8699 273.65Z" fill="#16171A"/>
<path d="M102.081 265.918C102.507 265.918 103.027 266.549 103.974 267.531C105.398 268.9 107.052 270.033 108.869 270.883C111.984 272.37 118.043 274.65 120.788 275.831C122.502 276.561 122.417 278.534 120.646 279.651C118.876 280.769 114.606 281.58 109.475 280.489C106.634 279.895 103.037 277.435 100.727 277.57C98.4167 277.705 94.0995 277.669 92.4143 276.552C90.7291 275.434 91.3918 273.055 91.8747 271.01C92.4049 268.775 93.0581 265.287 93.8344 265.441V266.216C94.838 267.657 99.9978 268.243 102.194 267.18L102.081 265.918Z" fill="#16171A"/>
<path d="M90.2841 105.482C92.3028 105.313 94.3332 105.639 96.1825 106.427C98.0318 107.216 99.6385 108.442 100.85 109.988C104.173 114.115 112.921 131.02 112.921 131.02C112.921 131.02 132.13 129.795 133.049 128.74C133.967 127.686 133.456 125.541 133.2 124.361C132.944 123.18 132.528 120.567 132.253 119.855C131.771 118.566 133.768 118.954 134.942 120.116C136.116 121.279 136.637 123.658 137.224 124.063C137.811 124.469 142.27 119.558 144.428 117.224C146.587 114.89 147.61 113.223 149.058 114.196C150.109 114.899 149.437 116.296 147.884 118.314C147.159 119.176 146.489 120.079 145.877 121.018C145.697 121.387 146.265 121.675 146.492 121.865C146.918 122.225 147.657 122.811 147.714 123.369C147.704 123.671 147.723 123.972 147.771 124.271C147.969 124.946 148.85 125.262 149.096 125.92C149.276 126.397 149.096 126.929 149.172 127.425C149.238 127.74 149.427 128.028 149.484 128.326C149.507 128.644 149.457 128.964 149.337 129.263C149.218 129.561 149.032 129.832 148.793 130.056C147.269 131.777 145.195 132.435 143.198 133.489C141.541 134.39 139.837 134.742 137.924 135.553C136.012 136.364 112.665 142.113 109.172 140.266C105.678 138.418 92.2817 118.395 92.2817 118.395C87.0557 110.15 90.2841 105.482 90.2841 105.482Z" fill="#FFA8A7"/>
<path d="M76.5468 105.842C68.3007 106.383 67.7232 110.177 65.6593 114.322C64.0782 117.485 64.5989 121.252 65.8013 124.55L71.0178 140.274C71.0178 140.274 68.3196 146.474 65.1953 152.322C79.6238 159.991 97.6403 155.927 101.976 150.367C102.166 149.178 101.03 139.905 100.367 133.84C102.904 127.776 103.576 123.928 102.507 119.918C100.509 112.475 92.7835 105.221 89.3658 105.5L76.5468 105.842Z" fill="#0589D3"/>
<path d="M63.5196 74.4021L66.019 78.2229C65.7638 78.3913 65.4755 78.5089 65.1713 78.5684C64.8671 78.628 64.5534 78.6283 64.2491 78.5693C63.9448 78.5104 63.6562 78.3934 63.4006 78.2255C63.1451 78.0575 62.9279 77.8421 62.7622 77.5921C62.4361 77.069 62.3328 76.4469 62.4737 75.8536C62.6146 75.2603 62.9888 74.7409 63.5196 74.4021Z" fill="#16171A"/>
<path d="M95.2829 74.2581C97.2332 75.3484 99.638 80.0163 99.4013 89.8115C99.2025 98.1018 96.3717 100.156 94.961 100.742C93.5504 101.328 90.8048 100.976 88.1445 100.553V105.536C88.1445 105.536 91.8179 109.6 91.5906 111.844C91.3634 114.088 86.2794 114.665 82.8427 112.439C80.5993 110.912 78.6732 109.003 77.1622 106.807V94.7767C77.1622 94.7767 75.3729 97.0565 72.4285 95.2002C69.4841 93.3439 69.38 88.7482 71.0841 87.0901C72.7883 85.432 76.4711 85.9637 77.1528 88.2435C77.1528 88.2435 81.3942 88.3877 87.0463 85.441C89.2447 84.3228 91.1358 82.7278 92.5666 80.7851C93.9975 78.8424 94.928 76.6064 95.2829 74.2581Z" fill="#FFA8A7"/>
<path d="M88.6936 87.7208C88.697 87.9259 88.6369 88.1274 88.5209 88.3003C88.4048 88.4732 88.2379 88.6097 88.0409 88.6929C87.8439 88.7761 87.6255 88.8023 87.413 88.7682C87.2004 88.7341 87.0031 88.6412 86.8457 88.5012C86.6882 88.3611 86.5775 88.18 86.5274 87.9805C86.4772 87.781 86.4899 87.5719 86.5638 87.3792C86.6376 87.1864 86.7694 87.0187 86.9428 86.8967C87.1161 86.7748 87.3233 86.7041 87.5385 86.6935C87.6853 86.6887 87.8315 86.7114 87.969 86.7605C88.1065 86.8095 88.2325 86.8839 88.3398 86.9793C88.447 87.0747 88.5335 87.1893 88.5942 87.3165C88.6549 87.4438 88.6887 87.5811 88.6936 87.7208Z" fill="#16171A"/>
<path d="M89.9622 94.7766L92.509 95.5516C92.4664 95.7166 92.3891 95.8716 92.2816 96.0073C92.1741 96.1429 92.0388 96.2564 91.8838 96.3407C91.7288 96.425 91.5574 96.4784 91.3801 96.4976C91.2027 96.5169 91.0231 96.5016 90.8522 96.4527C90.5016 96.3415 90.2114 96.1029 90.0447 95.789C89.878 95.4751 89.8484 95.1112 89.9622 94.7766Z" fill="#F28F8F"/>
<path d="M97.7161 84.5218L95.4628 83.062C95.5558 82.9193 95.6784 82.7962 95.8231 82.7002C95.9678 82.6041 96.1315 82.5372 96.3043 82.5034C96.4771 82.4697 96.6554 82.4699 96.8281 82.5039C97.0008 82.538 97.1645 82.6053 97.309 82.7016C97.6107 82.8961 97.8217 83.1943 97.8976 83.5337C97.9735 83.873 97.9084 84.2271 97.7161 84.5218Z" fill="#16171A"/>
<path d="M97.167 86.973C97.1786 87.1118 97.1609 87.2514 97.115 87.3836C97.0692 87.5158 96.996 87.6379 96.8999 87.7428C96.8038 87.8477 96.6866 87.9333 96.5553 87.9946C96.4239 88.0558 96.281 88.0915 96.135 88.0994C95.9091 88.119 95.6822 88.0737 95.4835 87.9695C95.2848 87.8652 95.1235 87.7067 95.0203 87.5144C94.9171 87.3221 94.8768 87.1048 94.9045 86.8904C94.9322 86.6761 95.0267 86.4746 95.1758 86.3118C95.3249 86.1491 95.5218 86.0325 95.7411 85.9772C95.9604 85.9219 96.1921 85.9304 96.4063 86.0015C96.6205 86.0726 96.8074 86.2032 96.943 86.3763C97.0786 86.5495 97.1566 86.7573 97.167 86.973Z" fill="#16171A"/>
<path d="M91.8178 86.3691L91.9883 92.65L95.4628 91.6317L91.8178 86.3691Z" fill="#F28F8F"/>
<path d="M88.1445 100.553C85.3042 100.201 79.6237 98.6243 78.677 96.4526C79.032 97.5538 79.7364 98.5233 80.6936 99.2281C82.4166 100.634 88.1445 102.211 88.1445 102.211V100.553Z" fill="#F28F8F"/>
<path opacity="0.1" d="M80.2391 153.809C76.3101 152.908 72.3243 148.835 74.1231 144.843C74.6358 143.723 75.516 142.79 76.632 142.185C77.0436 141.962 77.5184 141.868 77.9892 141.917C78.4599 141.965 78.9027 142.154 79.2545 142.455C77.361 141.275 74.1137 135.535 73.6782 133.444L71.4533 126.379C71.2463 124.763 71.3979 123.124 71.8983 121.567L66.0947 115.187L65.0249 115.89C64.0782 118.657 64.7977 121.783 65.8013 124.55L71.0178 140.275C71.0178 140.275 68.3196 146.474 65.1953 152.323C69.8903 154.722 75.0711 156.136 80.3886 156.469C85.7062 156.801 91.0369 156.045 96.0214 154.251C90.7784 155.052 85.4236 154.902 80.2391 153.809Z" fill="#16171A"/>
<path d="M148.386 310.587L129.621 300.278C127.671 299.179 126.582 296.422 126.582 292.871L126.507 214.536L145.442 224.926L145.366 303.513C145.337 306.974 146.511 309.443 148.386 310.587Z" fill="#0589D3"/>
<path opacity="0.2" d="M148.386 310.587L129.621 300.278C127.671 299.179 126.582 296.422 126.582 292.871L126.507 214.536L145.442 224.926L145.366 303.513C145.337 306.974 146.511 309.443 148.386 310.587Z" fill="#16171A"/>
<path d="M148.518 310.66L148.386 310.587C146.492 309.443 145.337 306.983 145.337 303.514L145.413 224.926L126.478 214.537L142.828 205.462L142.98 205.381L145.3 204.101L147.913 202.371L148.017 202.308L148.121 202.236C148.263 202.146 148.376 202.047 148.5 201.957L148.651 201.858L149.105 201.533L149.541 201.209C149.661 201.101 149.784 201.002 149.91 200.911L150.052 200.803L150.185 200.695C150.431 200.515 150.668 200.317 150.895 200.128L151.255 199.812L151.387 199.677C151.832 199.289 152.277 198.866 152.684 198.442L152.836 198.307C153.006 198.133 153.167 197.962 153.318 197.794C153.399 197.713 153.472 197.625 153.536 197.532C153.613 197.464 153.683 197.388 153.744 197.307V197.244L153.801 197.163L153.905 197.055L154.407 196.451C154.54 196.271 154.682 196.081 154.805 195.892L154.909 195.775V195.721C155.089 195.478 155.25 195.234 155.411 194.991C155.572 194.748 155.685 194.568 155.818 194.351L155.865 194.27C155.969 194.072 156.083 193.892 156.187 193.693L156.348 193.414C156.481 193.171 156.604 192.928 156.717 192.675L156.926 192.216C157.009 192.065 157.078 191.908 157.134 191.747C157.204 191.62 157.261 191.488 157.304 191.351C157.352 191.224 157.418 191.08 157.465 190.954C157.588 190.639 157.692 190.314 157.806 189.981C157.891 189.72 157.986 189.44 158.062 189.161C158.062 189.161 158.062 189.089 158.062 189.044C158.156 188.746 158.223 188.44 158.289 188.143V188.043C158.289 187.809 158.402 187.566 158.45 187.314C158.516 186.971 158.592 186.575 158.639 186.205V186.016C158.639 185.935 158.639 185.854 158.639 185.764C158.644 185.731 158.644 185.697 158.639 185.664C158.635 185.58 158.635 185.496 158.639 185.412C158.686 184.971 158.724 184.511 158.762 184.115V183.916V183.421C158.762 182.772 158.781 182.114 158.819 181.447V181.285C158.819 181.096 158.819 180.925 158.819 180.726V180.24C158.819 180.023 158.819 179.789 158.819 179.582C158.824 179.525 158.824 179.468 158.819 179.411C158.824 179.354 158.824 179.296 158.819 179.239V178.996C158.819 178.663 158.772 178.338 158.743 178.041V177.987C158.743 177.699 158.677 177.428 158.649 177.167C158.477 175.949 158.215 174.744 157.863 173.562C157.645 172.841 157.408 172.184 157.2 171.562C156.647 170.15 156.26 168.684 156.045 167.191C156.045 166.894 155.969 166.588 155.941 166.29C155.913 165.993 155.941 165.596 155.875 165.227V165.065C155.865 164.978 155.865 164.89 155.875 164.803C155.856 164.615 155.856 164.425 155.875 164.236C155.875 160.082 158.526 155.224 161.811 153.422C162.136 153.239 162.487 153.1 162.852 153.008C163.087 152.947 163.328 152.91 163.572 152.9C163.804 152.872 164.04 152.872 164.272 152.9C164.385 152.914 164.496 152.938 164.604 152.972C164.934 153.065 165.252 153.195 165.55 153.359L184.817 163.803C184.928 163.863 185.036 163.929 185.139 164.001C186.256 164.812 186.881 166.353 186.881 168.354C186.881 168.624 186.881 168.904 186.824 169.336V169.453C186.693 172.054 186.255 174.633 185.517 177.14C185.356 177.78 185.195 178.419 185.044 179.095C184.978 179.321 184.93 179.555 184.883 179.78C184.713 180.465 184.561 181.177 184.438 181.943C184.391 182.186 184.353 182.447 184.315 182.7L197.569 175.554L216.504 185.944V206.616C216.504 212.419 216.04 216.294 215.094 218.456C214.431 219.952 213.418 220.889 211.079 222.169C209.244 223.248 207.139 223.842 204.982 223.89C204.301 223.89 203.657 224.007 203.004 224.088L202.237 224.215C201.991 224.26 201.754 224.305 201.498 224.368C201.044 224.467 200.552 224.611 200.097 224.755L199.718 224.89C199.004 225.154 198.306 225.455 197.626 225.792C197.539 225.825 197.457 225.867 197.38 225.918H197.314L197.2 225.972C196.944 226.08 196.651 226.215 196.348 226.377C193.542 228.039 191.158 230.274 189.371 232.919C188.423 234.259 187.591 235.67 186.881 237.137C186.204 238.524 185.628 239.954 185.158 241.417L186.199 240.363C187.184 239.308 188.234 238.309 189.342 237.371C190.267 236.61 191.265 235.934 192.324 235.353C193.839 234.523 195.051 233.857 195.95 234.388L214.715 245.031L214.933 245.184C214.985 245.231 215.032 245.282 215.075 245.337C215.109 245.359 215.136 245.39 215.15 245.427C215.205 245.485 215.253 245.548 215.292 245.616C215.292 245.616 215.292 245.616 215.292 245.661C215.35 245.747 215.401 245.838 215.444 245.932C215.927 246.905 216.249 248.635 216.391 251.537C216.391 251.852 216.391 252.186 216.391 252.546C216.391 253.447 216.391 254.474 216.391 255.601V276.264L154.568 310.236C153.563 310.823 152.429 311.181 151.255 311.281C150.883 311.313 150.509 311.313 150.137 311.281C150.014 311.276 149.893 311.251 149.778 311.209C149.332 311.086 148.908 310.901 148.518 310.66Z" fill="#0589D3"/>
<path opacity="0.1" d="M195.941 234.388L214.687 245.031C213.797 244.49 212.575 245.175 211.06 246.004C210.002 246.582 209.007 247.258 208.088 248.022C206.972 248.952 205.919 249.948 204.935 251.005C202.769 253.396 200.276 255.499 197.522 257.259C197.153 257.511 196.717 257.772 196.31 257.998C189.446 261.773 183.86 257.754 183.86 249.041C183.895 246.446 184.332 243.871 185.158 241.399C185.508 241.048 185.839 240.696 186.18 240.363C187.165 239.308 188.215 238.309 189.323 237.371C190.244 236.61 191.24 235.934 192.296 235.352C193.82 234.523 195.051 233.857 195.941 234.388Z" fill="#16171A"/>
<path opacity="0.1" d="M184.258 182.708L197.579 175.553L216.514 185.952L200.239 194.892L195.345 197.325H195.288H195.24L194.89 197.469L194.71 197.532L193.896 197.847L193.442 198L193.318 198.046C193.053 198.127 192.798 198.217 192.552 198.28L192.021 198.415C191.747 198.487 191.491 198.532 191.236 198.577H191.15L190.8 198.631C190.486 198.672 190.17 198.696 189.853 198.703H189.55C189.182 198.699 188.814 198.663 188.452 198.595L188.263 198.55C187.984 198.478 187.712 198.384 187.449 198.271C187.371 198.246 187.297 198.209 187.231 198.163C186.994 198.033 186.766 197.889 186.549 197.73H186.502L186.341 197.595C186.096 197.379 185.874 197.141 185.678 196.883L185.584 196.775C185.072 196.025 184.695 195.2 184.466 194.333L184.419 194.18C184.296 193.72 184.211 193.279 184.126 192.783V192.54C184.04 191.999 183.974 191.422 183.936 190.837C183.879 190.062 183.86 189.386 183.86 188.71C183.834 186.703 183.967 184.697 184.258 182.708Z" fill="#16171A"/>
<path opacity="0.1" d="M145.413 224.926L126.478 214.536L142.828 205.462L142.971 205.381H143.027L145.347 204.101L147.969 202.371L148.064 202.308L148.168 202.236C148.31 202.146 148.424 202.047 148.547 201.957L148.689 201.857L149.153 201.533L149.588 201.209C149.708 201.1 149.831 201.001 149.957 200.911L150.1 200.803L150.232 200.695C150.478 200.515 150.715 200.316 150.942 200.127L151.302 199.812L151.434 199.677C151.879 199.289 152.324 198.866 152.731 198.442L152.883 198.307C153.053 198.133 153.214 197.962 153.366 197.793C153.446 197.713 153.519 197.625 153.584 197.532C153.659 197.46 153.716 197.379 153.782 197.307L153.839 197.244L153.905 197.172L154 197.054C154.171 196.856 154.35 196.658 154.502 196.451L154.909 195.901L155.004 195.775V195.721C155.184 195.477 155.344 195.234 155.505 194.991C155.666 194.748 155.78 194.567 155.913 194.351V194.261C156.026 194.072 156.14 193.891 156.244 193.693C156.306 193.603 156.363 193.51 156.414 193.414C156.528 193.162 156.66 192.918 156.774 192.675L156.982 192.215C157.058 192.071 157.124 191.918 157.2 191.756C157.276 191.594 157.314 191.494 157.361 191.35C157.408 191.206 157.475 191.08 157.522 190.954C157.645 190.629 157.749 190.323 157.863 189.981C157.948 189.719 158.043 189.44 158.118 189.161C158.118 189.161 158.118 189.088 158.118 189.043C158.194 188.755 158.279 188.44 158.346 188.142V188.052C158.393 187.8 158.45 187.566 158.497 187.313C158.563 186.971 158.639 186.574 158.686 186.205V186.016C158.686 185.944 158.686 185.853 158.686 185.763C158.692 185.73 158.692 185.697 158.686 185.664C158.686 185.583 158.686 185.493 158.686 185.403C158.743 184.952 158.781 184.502 158.81 184.114V183.916C158.81 183.745 158.81 183.601 158.81 183.42C158.81 182.772 158.828 182.114 158.866 181.447V181.285C158.866 181.095 158.866 180.924 158.866 180.726V180.239C158.866 180.023 158.866 179.789 158.866 179.573V179.41C158.871 179.353 158.871 179.296 158.866 179.239V178.996C158.866 178.662 158.819 178.338 158.791 178.041V177.978L158.705 177.167C158.534 175.949 158.272 174.744 157.92 173.562C157.711 172.832 157.475 172.174 157.257 171.562C156.704 170.15 156.317 168.684 156.102 167.191C156.102 166.894 156.026 166.587 155.998 166.29C155.969 165.993 155.998 165.605 155.941 165.227V165.064C155.941 164.974 155.941 164.884 155.941 164.794C155.923 164.605 155.923 164.415 155.941 164.226C155.941 160.072 158.592 155.215 161.877 153.413C162.203 153.23 162.553 153.091 162.918 152.998C163.153 152.937 163.395 152.901 163.638 152.89C163.87 152.854 164.107 152.854 164.339 152.89C164.451 152.905 164.562 152.929 164.67 152.962C165 153.056 165.318 153.186 165.617 153.35L184.817 163.803C184.415 163.582 183.964 163.452 183.501 163.424C183.164 163.412 182.827 163.439 182.497 163.506C181.946 163.623 181.419 163.824 180.935 164.1C180.356 164.428 179.82 164.818 179.335 165.263C178.011 166.505 176.959 167.984 176.239 169.615C176.069 169.967 175.936 170.327 175.794 170.697C175.614 171.214 175.466 171.74 175.349 172.273C175.142 173.131 175.034 174.007 175.027 174.887C175.027 175.13 175.027 175.409 175.027 175.716V175.806C175.066 177.267 175.286 178.719 175.681 180.131C175.737 180.366 175.813 180.591 175.879 180.816C176.031 181.276 176.182 181.717 176.334 182.168C176.552 182.79 176.788 183.438 177.006 184.168C177.082 184.421 177.148 184.673 177.214 184.925C177.281 185.178 177.347 185.457 177.423 185.736C177.633 186.676 177.788 187.627 177.886 188.584V188.629C177.877 188.788 177.877 188.947 177.886 189.106V189.593V189.719V189.845C177.886 189.954 177.886 190.062 177.886 190.179C177.896 190.29 177.896 190.401 177.886 190.512C177.886 190.62 177.886 190.738 177.886 190.846V191.341C177.886 191.513 177.886 191.693 177.886 191.891V191.972C177.886 192.305 177.886 192.639 177.886 192.972C177.886 193.306 177.886 193.63 177.839 193.964C177.839 194.126 177.839 194.297 177.839 194.45V194.648C177.839 195.072 177.773 195.504 177.716 195.937C177.716 196.144 177.659 196.343 177.631 196.559V196.73L177.432 197.856L177.262 198.586V198.676C177.262 198.848 177.186 199.019 177.129 199.199C177.072 199.379 177.034 199.542 176.987 199.695C176.94 199.848 176.987 199.839 176.94 199.911C176.892 199.983 176.798 200.316 176.741 200.524C176.637 200.848 176.523 201.173 176.4 201.488C176.277 201.803 176.182 202.029 176.078 202.29C175.974 202.551 175.804 202.912 175.662 203.191L175.273 203.948C175.198 204.083 175.122 204.236 175.037 204.372L174.8 204.795L174.743 204.885C174.684 204.997 174.618 205.105 174.544 205.21L174.478 205.318C174.437 205.388 174.39 205.454 174.336 205.516C174.175 205.768 174.014 206.012 173.844 206.255V206.309L173.749 206.435C173.686 206.529 173.616 206.62 173.541 206.705C173.48 206.799 173.414 206.889 173.342 206.976L173.162 207.201C173.062 207.336 172.955 207.465 172.84 207.589L172.746 207.706L172.642 207.841L172.424 208.084L172.357 208.156C172.357 208.21 172.263 208.273 172.206 208.328L171.96 208.589C171.894 208.67 171.808 208.751 171.723 208.841L171.581 208.976C171.17 209.41 170.733 209.822 170.275 210.211L170.142 210.346L169.773 210.661C169.555 210.86 169.318 211.049 169.072 211.238L168.94 211.337L168.873 211.4L168.807 211.454L168.438 211.743L167.491 212.392L167.349 212.5L166.971 212.77L166.762 212.905L164.14 214.635L161.82 215.915L161.744 215.969L161.593 216.041L145.413 224.926Z" fill="#16171A"/>
<mask id="mask0_209_1161" style="mask-type:luminance" maskUnits="userSpaceOnUse" x="184" y="134" width="110" height="143">
<path d="M196.329 249.716C196.528 249.608 196.755 249.455 197.001 249.293C199.073 247.962 200.945 246.37 202.568 244.562C203.411 243.661 204.159 242.94 205.011 242.156L205.143 242.03L205.389 241.804L205.503 241.696C205.929 241.318 206.346 240.966 206.762 240.624L214.611 245.084C214.772 245.179 214.913 245.301 215.027 245.445C215.095 245.521 215.155 245.602 215.207 245.688V245.742C215.257 245.823 215.301 245.908 215.34 245.994V246.076L215.453 246.355C215.453 246.355 215.453 246.427 215.453 246.463C215.494 246.563 215.528 246.666 215.557 246.769C215.557 246.814 215.557 246.86 215.557 246.905C215.557 246.95 215.624 247.148 215.662 247.283V247.4C215.662 247.562 215.728 247.734 215.766 247.923C215.766 248.13 215.832 248.346 215.87 248.572V248.626L215.955 249.275C215.955 249.347 215.955 249.419 215.955 249.491L216.012 250.05C216.012 250.149 216.012 250.248 216.012 250.338C216.012 250.428 216.012 250.707 216.059 250.906C216.107 251.104 216.059 251.131 216.059 251.248V251.834C216.059 251.96 216.059 252.095 216.059 252.23C216.059 252.365 216.059 252.654 216.059 252.87C216.059 253.086 216.059 253.131 216.059 253.267C216.059 253.402 216.059 253.78 216.059 254.041V254.402C216.059 254.798 216.059 255.195 216.059 255.618V276.263L293.692 233.586V221.934C293.697 221.865 293.697 221.796 293.692 221.727V134.985L277.408 143.933L277.105 144.104L276.916 144.212L273.707 146.105C272.421 146.914 271.185 147.793 270.005 148.736L269.929 148.799L269.73 148.952C269.437 149.187 269.162 149.43 268.888 149.673L268.812 149.745L268.462 150.07C268.206 150.304 267.96 150.538 267.714 150.782L267.25 151.259C267.023 151.502 266.795 151.746 266.578 151.998C266.36 152.25 266.294 152.332 266.133 152.539C265.972 152.746 265.707 153.061 265.508 153.323L265.167 153.8L265.091 153.927L264.997 154.053C264.836 154.287 264.675 154.521 264.533 154.756C264.391 154.99 264.315 155.107 264.22 155.296L264.135 155.431C263.851 155.936 263.567 156.468 263.321 157.008L263.255 157.144C263.15 157.369 263.037 157.594 262.942 157.828C262.847 158.063 262.753 158.306 262.668 158.549L262.601 158.73C262.497 159.009 262.393 159.279 262.308 159.568C262.223 159.856 262.128 160.153 262.043 160.469C261.957 160.784 261.882 161.081 261.806 161.37C261.73 161.658 261.673 161.965 261.617 162.271C261.56 162.577 261.494 162.92 261.446 163.253V163.316C261.446 163.587 261.361 163.857 261.323 164.136C261.285 164.416 261.247 164.857 261.21 165.245V165.461C261.21 165.668 261.21 165.875 261.162 166.083C261.162 166.524 261.162 166.984 261.162 167.633V167.723C261.162 167.84 261.162 167.948 261.162 168.065C261.088 171.385 261.666 174.689 262.866 177.806C263.661 179.827 264.102 181.958 264.173 184.114V184.213C264.173 184.511 264.22 184.79 264.22 185.042C264.175 187.247 263.577 189.409 262.478 191.35C261.543 193.191 260.092 194.751 258.284 195.856C257.998 196.008 257.7 196.141 257.394 196.252L257.243 196.306C256.972 196.394 256.693 196.455 256.41 196.487H256.258C255.991 196.514 255.721 196.514 255.453 196.487H255.397C255.127 196.446 254.865 196.367 254.62 196.252L254.544 196.207L246.355 191.63C246.355 191.395 246.355 191.17 246.421 190.936C246.488 190.701 246.488 190.395 246.526 190.125C246.601 189.566 246.677 189.025 246.772 188.503C246.866 187.98 246.942 187.547 247.037 187.088C247.094 186.845 247.141 186.61 247.188 186.385C247.415 185.385 247.652 184.385 247.927 183.312C248.745 180.561 249.177 177.719 249.214 174.86C249.214 172.156 248.968 170.94 248.201 170.507L238.866 165.38L223.018 174.076L216.495 170.471V177.68L210.814 180.825L208.997 181.816L216.57 185.962V196.667V206.633C216.57 212.437 216.107 216.311 215.16 218.474C214.497 219.961 213.484 220.898 211.146 222.187C209.307 223.266 207.199 223.86 205.039 223.908C204.376 223.908 203.714 224.025 203.079 224.106L202.303 224.232C202.066 224.277 201.82 224.322 201.565 224.385C201.091 224.492 200.623 224.621 200.163 224.773H200.069L199.785 224.863C199.07 225.125 198.371 225.426 197.692 225.764L197.437 225.881H197.38H197.266C196.972 226.002 196.684 226.137 196.405 226.287C193.602 227.947 191.225 230.182 189.446 232.829C188.992 233.46 188.566 234.118 188.159 234.793L187.998 235.091C187.647 235.686 187.316 236.289 187.051 236.893L186.985 237.037C186.307 238.424 185.731 239.854 185.262 241.318C184.836 242.638 184.52 243.988 184.315 245.355L192.608 249.914C193.194 250.189 193.844 250.316 194.496 250.281C195.148 250.246 195.779 250.052 196.329 249.716Z" fill="white"/>
</mask>
<g mask="url(#mask0_209_1161)">
<path d="M217.64 225.007L197.484 213.932L197.929 213.347L197.976 213.293L198.194 212.995C198.516 212.545 198.819 212.094 199.141 211.617L199.226 211.472C199.52 210.977 199.804 210.436 200.078 209.868C200.135 209.733 200.201 209.598 200.258 209.454V209.364C200.4 209.039 200.571 208.652 200.731 208.219C200.807 208.03 200.873 207.841 200.949 207.634V207.516C201.063 207.192 201.176 206.868 201.271 206.534C201.366 206.201 201.432 206.003 201.508 205.723C201.584 205.444 201.659 205.119 201.745 204.822C201.83 204.525 201.877 204.227 201.934 203.921C201.991 203.615 202.057 203.353 202.104 203.074V202.939C202.161 202.668 202.208 202.38 202.256 202.092C202.303 201.803 202.303 201.758 202.331 201.596V201.416C202.54 199.974 202.663 198.46 202.767 196.82V196.64L202.871 192.215V171.174L222.952 182.366V203.416L222.847 207.85V208.021C222.762 209.661 222.63 211.175 222.431 212.608V212.797C222.431 212.968 222.384 213.13 222.355 213.302C222.327 213.473 222.27 213.869 222.213 214.14V214.266C222.166 214.563 222.109 214.834 222.052 215.122C221.995 215.41 221.92 215.708 221.844 216.023C221.768 216.338 221.702 216.636 221.626 216.924C221.55 217.213 221.465 217.474 221.389 217.735C221.314 217.997 221.181 218.393 221.058 218.708V218.844C220.992 219.033 220.916 219.24 220.84 219.429C220.689 219.844 220.509 220.24 220.367 220.574L220.32 220.655L220.149 221.069C219.875 221.628 219.591 222.169 219.297 222.682L219.212 222.827C218.937 223.277 218.634 223.728 218.313 224.205C218.245 224.304 218.169 224.398 218.085 224.485V224.548L217.64 225.007Z" fill="#0589D3"/>
<path d="M202.881 261.602L202.937 244.228L202.653 244.508C203.487 243.607 204.253 242.877 205.087 242.102L205.229 241.976L205.475 241.75L205.645 241.66C207.237 240.201 209.004 238.924 210.909 237.857L211.117 237.758H211.165L211.307 237.677C211.761 237.434 212.253 237.218 212.66 237.01C212.784 236.947 212.916 236.902 213.039 236.848L213.172 236.785C213.475 236.677 213.797 236.542 214.118 236.443C214.289 236.371 214.45 236.335 214.601 236.28H214.677C214.952 236.217 215.217 236.145 215.463 236.1C215.709 236.055 215.842 236.028 216.021 236.01C216.255 235.993 216.489 235.993 216.722 236.01C216.899 236.001 217.076 236.001 217.252 236.01C217.46 236.027 217.666 236.06 217.868 236.109H217.953L218.341 236.199C218.539 236.265 218.729 236.35 218.909 236.452C219.112 236.546 219.305 236.657 219.487 236.785C219.706 236.934 219.912 237.1 220.102 237.281C220.21 237.389 220.311 237.503 220.405 237.623L220.471 237.713L220.528 237.776C220.626 237.895 220.718 238.018 220.802 238.146C220.923 238.319 221.03 238.499 221.124 238.687C221.219 238.858 221.304 239.011 221.38 239.182C221.456 239.353 221.569 239.615 221.664 239.849C221.759 240.083 221.787 240.191 221.844 240.372C221.901 240.552 222.005 240.876 222.081 241.147L222.194 241.597V241.669C222.26 241.967 222.336 242.273 222.393 242.57C222.393 242.651 222.393 242.742 222.393 242.832V242.94C222.601 244.21 222.753 245.643 222.857 247.328V247.4L222.961 251.419V272.758L202.881 261.602Z" fill="#0589D3"/>
<path d="M192.22 249.878L172.405 238.957C171.089 238.29 170.322 236.542 170.322 234.226C170.406 231.479 171.312 228.812 172.935 226.539L173.314 226.035C173.219 226.179 173.105 226.323 173.011 226.458L193.157 237.533C193.105 237.595 193.057 237.662 193.015 237.731C191.387 239.998 190.48 242.664 190.402 245.409C190.402 247.581 191.103 249.13 192.22 249.878Z" fill="#0589D3"/>
<path d="M217.64 225.007L197.484 213.932L197.929 213.347L197.976 213.293L198.194 212.995C198.516 212.545 198.819 212.094 199.141 211.617L199.226 211.472C199.52 210.977 199.804 210.436 200.078 209.868C200.135 209.733 200.201 209.598 200.258 209.454V209.364C200.4 209.039 200.571 208.652 200.731 208.219C200.807 208.03 200.873 207.841 200.949 207.634V207.516C201.063 207.192 201.176 206.868 201.271 206.534C201.366 206.201 201.432 206.003 201.508 205.723C201.584 205.444 201.659 205.119 201.745 204.822C201.83 204.525 201.877 204.227 201.934 203.921C201.991 203.615 202.057 203.353 202.104 203.074V202.939C202.161 202.668 202.208 202.38 202.256 202.092C202.303 201.803 202.303 201.758 202.331 201.596V201.416C202.54 199.974 202.663 198.46 202.767 196.82V196.64L202.871 192.215V171.174L222.952 182.366V203.416L222.847 207.85V208.021C222.762 209.661 222.63 211.175 222.431 212.608V212.797C222.431 212.968 222.384 213.13 222.355 213.302C222.327 213.473 222.27 213.869 222.213 214.14V214.266C222.166 214.563 222.109 214.834 222.052 215.122C221.995 215.41 221.92 215.708 221.844 216.023C221.768 216.338 221.702 216.636 221.626 216.924C221.55 217.213 221.465 217.474 221.389 217.735C221.314 217.997 221.181 218.393 221.058 218.708V218.844C220.992 219.033 220.916 219.24 220.84 219.429C220.689 219.844 220.509 220.24 220.367 220.574L220.32 220.655L220.149 221.069C219.875 221.628 219.591 222.169 219.297 222.682L219.212 222.827C218.937 223.277 218.634 223.728 218.313 224.205C218.245 224.304 218.169 224.398 218.085 224.485V224.548L217.64 225.007Z" fill="#16171A"/>
<path d="M202.881 261.602L202.937 244.228L202.653 244.508C203.487 243.607 204.253 242.877 205.087 242.102L205.229 241.976L205.475 241.75L205.645 241.66C207.237 240.201 209.004 238.924 210.909 237.857L211.117 237.758H211.165L211.307 237.677C211.761 237.434 212.253 237.218 212.66 237.01C212.784 236.947 212.916 236.902 213.039 236.848L213.172 236.785C213.475 236.677 213.797 236.542 214.118 236.443C214.289 236.371 214.45 236.335 214.601 236.28H214.677C214.952 236.217 215.217 236.145 215.463 236.1C215.709 236.055 215.842 236.028 216.021 236.01C216.255 235.993 216.489 235.993 216.722 236.01C216.899 236.001 217.076 236.001 217.252 236.01C217.46 236.027 217.666 236.06 217.868 236.109H217.953L218.341 236.199C218.539 236.265 218.729 236.35 218.909 236.452C219.112 236.546 219.305 236.657 219.487 236.785C219.706 236.934 219.912 237.1 220.102 237.281C220.21 237.389 220.311 237.503 220.405 237.623L220.471 237.713L220.528 237.776C220.626 237.895 220.718 238.018 220.802 238.146C220.923 238.319 221.03 238.499 221.124 238.687C221.219 238.858 221.304 239.011 221.38 239.182C221.456 239.353 221.569 239.615 221.664 239.849C221.759 240.083 221.787 240.191 221.844 240.372C221.901 240.552 222.005 240.876 222.081 241.147L222.194 241.597V241.669C222.26 241.967 222.336 242.273 222.393 242.57C222.393 242.651 222.393 242.742 222.393 242.832V242.94C222.601 244.21 222.753 245.643 222.857 247.328V247.4L222.961 251.419V272.758L202.881 261.602Z" fill="#16171A"/>
<path d="M192.22 249.878L172.405 238.957C171.089 238.29 170.322 236.542 170.322 234.226C170.406 231.479 171.312 228.812 172.935 226.539L173.314 226.035C173.219 226.179 173.105 226.323 173.011 226.458L193.157 237.533C193.105 237.595 193.057 237.662 193.015 237.731C191.387 239.998 190.48 242.664 190.402 245.409C190.402 247.581 191.103 249.13 192.22 249.878Z" fill="#16171A"/>
<path d="M192.391 249.941L192.258 249.869C191.141 249.121 190.44 247.571 190.44 245.436C190.518 242.691 191.425 240.025 193.053 237.758C193.095 237.689 193.143 237.622 193.195 237.56L173.049 226.485C173.143 226.35 173.257 226.206 173.352 226.062C173.607 225.746 173.872 225.449 174.147 225.16C174.275 225.019 174.411 224.883 174.554 224.755C174.693 224.608 174.845 224.473 175.008 224.349C175.398 224.005 175.827 223.703 176.286 223.448C176.455 223.355 176.629 223.271 176.807 223.196L177.034 223.106H177.091C177.928 222.681 178.815 222.351 179.733 222.124L180.055 222.052C180.885 221.891 181.727 221.785 182.573 221.736C185.555 221.637 188.457 220.795 190.989 219.294L191.652 218.907C191.851 218.799 192.031 218.681 192.22 218.555C192.41 218.429 192.514 218.384 192.656 218.294H192.713L193.413 217.807L194.076 217.312L194.199 217.222L194.303 217.131L194.379 217.068L194.663 216.834C194.748 216.762 194.852 216.69 194.937 216.609C195.023 216.528 195.278 216.32 195.449 216.158L195.685 215.933L195.789 215.825L196.206 215.41C196.376 215.239 196.547 215.059 196.708 214.879L196.774 214.807L197.049 214.5C197.172 214.338 197.323 214.176 197.446 214.005L217.612 225.088L217.972 224.62V224.557C218.056 224.47 218.132 224.376 218.199 224.277C218.521 223.809 218.824 223.376 219.098 222.899L219.184 222.754C219.477 222.241 219.761 221.7 220.036 221.141L220.206 220.727L220.253 220.646C220.395 220.312 220.575 219.916 220.727 219.501C220.802 219.312 220.878 219.105 220.944 218.916V218.78C221.068 218.465 221.172 218.141 221.276 217.807C221.38 217.474 221.427 217.276 221.513 216.996C221.598 216.717 221.664 216.393 221.73 216.095C221.797 215.798 221.872 215.509 221.939 215.194C222.005 214.879 222.052 214.635 222.099 214.338V214.212C222.156 213.941 222.194 213.662 222.242 213.374C222.289 213.085 222.289 213.04 222.317 212.869V212.68C222.516 211.247 222.649 209.733 222.734 208.093V207.922L222.838 203.488V182.375L202.757 171.183L210.994 166.677L215.245 164.344L219.032 162.253L220.509 161.46C220.897 161.28 221.247 161.081 221.607 160.919C222.864 160.264 224.19 159.738 225.565 159.351L225.981 159.252C226.409 159.155 226.85 159.125 227.288 159.162C227.534 159.162 227.666 159.369 227.856 159.477L248.173 170.471C248.368 170.593 248.536 170.75 248.666 170.934C248.796 171.118 248.886 171.326 248.93 171.544C248.93 171.697 249.015 171.877 249.053 172.066C249.091 172.255 249.11 172.472 249.139 172.706V173.066C249.139 173.319 249.139 173.589 249.139 173.886C249.139 174.184 249.139 174.499 249.139 174.842C249.139 175.698 249.139 176.473 249.025 177.212C249.025 177.401 249.025 177.581 249.025 177.761C249.025 177.942 249.025 178.113 248.959 178.293C248.892 178.473 248.959 178.635 248.873 178.816C248.788 178.996 248.826 179.158 248.798 179.329C248.731 179.663 248.675 179.987 248.608 180.329C248.542 180.672 248.457 180.987 248.391 181.312C248.381 181.335 248.381 181.361 248.391 181.384C250.02 177.915 250.899 174.171 250.975 170.372C250.975 169.84 250.975 169.309 250.918 168.858C250.823 165.968 250.241 163.111 249.195 160.397C248.296 158.148 247.856 155.756 247.898 153.35C247.898 148.898 247.898 146.447 257.82 141.013L274.019 132.182L294.166 143.257V221.709C294.166 228.242 289.981 235.857 284.84 238.686L223.018 272.659V251.338L222.914 247.319V247.247C222.81 245.58 222.658 244.129 222.45 242.859V242.75C222.45 242.66 222.45 242.57 222.45 242.489C222.393 242.165 222.317 241.858 222.251 241.588V241.516L222.137 241.065C222.062 240.795 221.995 240.543 221.901 240.29C221.806 240.038 221.787 239.939 221.721 239.768C221.655 239.596 221.541 239.308 221.437 239.101C221.333 238.894 221.276 238.776 221.181 238.605C221.087 238.418 220.98 238.237 220.859 238.065C220.775 237.937 220.683 237.814 220.585 237.695L220.528 237.632L220.462 237.542C220.368 237.422 220.267 237.308 220.159 237.199C219.968 237.018 219.762 236.853 219.543 236.704C219.362 236.576 219.169 236.465 218.966 236.37C218.786 236.269 218.595 236.184 218.398 236.118L218.01 236.028H217.924C217.722 235.979 217.517 235.946 217.309 235.929C217.132 235.92 216.955 235.92 216.779 235.929C216.546 235.911 216.311 235.911 216.078 235.929C215.898 235.929 215.718 235.983 215.52 236.019C215.321 236.055 215.008 236.136 214.734 236.199H214.658C214.507 236.253 214.346 236.289 214.175 236.361C213.853 236.461 213.531 236.596 213.228 236.704L213.096 236.767C212.973 236.821 212.84 236.866 212.717 236.929C212.263 237.136 211.818 237.353 211.363 237.596L211.221 237.677H211.174L210.966 237.776C209.036 238.865 207.25 240.169 205.645 241.66L205.522 241.768L205.276 241.993L205.134 242.12C204.301 242.895 203.534 243.67 202.701 244.526C201.078 246.334 199.205 247.926 197.134 249.257C196.888 249.419 196.67 249.572 196.462 249.68C195.908 250.006 195.289 250.218 194.644 250.302C194.247 250.374 193.839 250.374 193.442 250.302C193.071 250.243 192.715 250.12 192.391 249.941Z" fill="#37474F"/>
<path d="M223.027 182.366L202.947 171.174L211.184 166.669L215.434 164.335L219.221 162.244L220.698 161.451C221.086 161.271 221.437 161.073 221.797 160.91C223.053 160.255 224.38 159.729 225.754 159.342L226.171 159.243C226.598 159.146 227.039 159.116 227.477 159.153C227.723 159.153 227.856 159.36 228.045 159.469L248.116 170.471C248.045 170.434 247.968 170.406 247.889 170.39C247.792 170.344 247.685 170.322 247.576 170.327C247.263 170.282 246.944 170.282 246.63 170.327C246.363 170.358 246.1 170.412 245.844 170.489C243.549 171.201 241.355 172.179 239.311 173.4L235.524 175.491L231.264 177.834L223.027 182.366Z" fill="#16171A"/>
<path d="M249.006 203.75C247.113 201.947 246.166 198.911 246.166 195.243C246.156 194.717 246.178 194.19 246.232 193.666C246.232 193.666 246.232 193.666 246.232 193.603C246.232 192.702 246.327 191.864 246.431 190.9C246.431 190.629 246.497 190.368 246.535 190.098C246.601 189.539 246.687 188.989 246.781 188.476C246.876 187.962 246.952 187.52 247.046 187.061C247.103 186.818 247.15 186.583 247.198 186.358C247.425 185.358 247.662 184.358 247.936 183.285C248.116 182.609 248.277 181.961 248.429 181.312C250.047 177.866 250.92 174.146 250.994 170.372C250.994 169.84 250.994 169.318 250.928 168.867C250.838 165.972 250.259 163.108 249.214 160.388C248.319 158.141 247.878 155.753 247.917 153.35C247.917 148.907 247.917 146.456 257.839 141.004L274.038 132.182L294.185 143.257L277.92 152.196C267.998 157.603 267.998 160.099 267.998 164.542C267.948 166.948 268.388 169.341 269.295 171.589C270.331 174.309 270.91 177.167 271.008 180.059C271.008 180.51 271.075 181.032 271.065 181.555C271.065 190.269 265.489 200.434 258.606 204.2C254.876 206.264 251.382 206.093 249.006 203.75Z" fill="#16171A"/>
<path d="M193.158 237.569L173.011 226.494C173.105 226.359 173.219 226.215 173.314 226.071C173.569 225.755 173.834 225.458 174.109 225.17C174.237 225.028 174.373 224.893 174.516 224.764C174.656 224.617 174.808 224.482 174.971 224.359C175.36 224.014 175.789 223.712 176.249 223.457C176.417 223.364 176.591 223.28 176.769 223.205L176.997 223.124H177.053C177.89 222.699 178.777 222.37 179.695 222.142L180.017 222.07C180.847 221.909 181.689 221.804 182.535 221.754C185.517 221.656 188.419 220.814 190.952 219.312L191.614 218.925C191.813 218.817 191.993 218.7 192.182 218.573C192.33 218.492 192.472 218.401 192.608 218.303H192.665L193.366 217.816L194.038 217.321L194.152 217.231L194.256 217.141L194.341 217.077L194.616 216.843C194.701 216.771 194.805 216.699 194.89 216.618C194.975 216.537 195.231 216.33 195.401 216.167L195.638 215.942C195.671 215.904 195.709 215.871 195.752 215.843L196.159 215.419C196.329 215.248 196.5 215.068 196.66 214.888L196.727 214.816L197.001 214.509C197.124 214.347 197.276 214.185 197.399 214.014L217.574 225.098L217.489 225.188C217.356 225.368 217.214 225.539 217.072 225.719C216.93 225.9 216.892 225.909 216.807 226.008L216.731 226.08C216.429 226.413 216.126 226.729 215.785 227.026L215.595 227.206C215.548 227.26 215.491 227.305 215.453 227.359L214.933 227.81L214.384 228.26L214.308 228.333L214.071 228.504C213.636 228.855 213.181 229.18 212.717 229.495C212.717 229.495 212.66 229.495 212.613 229.558C212.083 229.918 211.533 230.252 210.966 230.558L210.379 230.847L209.688 231.18C208.148 231.943 206.489 232.463 204.774 232.721L203.903 232.829H203.468L202.663 232.901C201.464 232.942 200.276 233.136 199.131 233.478C198.781 233.586 198.412 233.721 198.005 233.883C197.749 233.992 197.465 234.118 197.181 234.262L196.944 234.352C196.765 234.425 196.591 234.509 196.424 234.604C195.961 234.868 195.524 235.169 195.117 235.506C194.972 235.622 194.833 235.745 194.701 235.875C194.559 236.001 194.417 236.145 194.284 236.289C194.106 236.458 193.941 236.638 193.792 236.83C193.687 236.945 193.589 237.065 193.498 237.191C193.337 237.362 193.233 237.461 193.158 237.569Z" fill="#16171A"/>
</g>
<mask id="mask1_209_1161" style="mask-type:luminance" maskUnits="userSpaceOnUse" x="196" y="36" width="99" height="169">
<path d="M216.504 177.68V156.954L216.722 150.646V150.52C216.722 150.367 216.722 150.223 216.722 150.088V149.881C216.722 149.475 216.798 149.088 216.845 148.709C216.856 148.515 216.881 148.323 216.921 148.132V147.952C216.921 147.583 217.015 147.213 217.063 146.862C217.11 146.51 217.139 146.375 217.186 146.15C217.262 145.753 217.318 145.366 217.404 144.987V144.861C217.404 144.708 217.47 144.546 217.508 144.393C217.621 143.87 217.763 143.365 217.896 142.861C217.896 142.861 217.896 142.762 217.943 142.681C218.104 142.113 218.313 141.527 218.521 140.95L218.606 140.707C218.795 140.22 219.013 139.743 219.212 139.274C219.212 139.184 219.307 139.076 219.363 138.977V138.905C219.581 138.472 219.799 138.004 220.045 137.607L220.234 137.301C220.521 136.812 220.837 136.34 221.181 135.886C221.917 134.863 222.751 133.907 223.671 133.029L223.747 132.957C224.135 132.597 224.58 132.209 225.053 131.84L225.148 131.75C226.149 130.977 227.212 130.281 228.329 129.668C229.528 128.99 230.797 128.431 232.116 128.001C232.78 127.793 233.456 127.624 234.142 127.497C235.001 127.358 235.867 127.264 236.736 127.217C238.652 127.171 240.531 126.705 242.227 125.857H242.275C242.531 125.756 242.781 125.642 243.023 125.514C244.828 124.409 246.276 122.849 247.207 121.008C247.489 120.504 247.739 119.983 247.955 119.45C248.595 117.952 248.932 116.353 248.949 114.737C248.949 114.466 248.949 114.205 248.949 113.953C248.955 113.884 248.955 113.814 248.949 113.745C248.942 113.57 248.92 113.395 248.883 113.223C248.883 113.142 248.883 113.088 248.883 113.015C248.883 112.943 248.807 112.691 248.769 112.556C248.731 112.421 248.722 112.43 248.703 112.376C248.684 112.322 248.599 112.078 248.533 111.934L248.466 111.808C248.407 111.664 248.334 111.525 248.249 111.393C248.234 111.359 248.212 111.328 248.182 111.303C248.097 111.168 248.002 111.042 247.898 110.907C247.794 110.772 247.898 110.907 247.851 110.853L247.491 110.51C247.356 110.401 247.21 110.305 247.056 110.222L238.45 105.5C237.079 106.671 235.774 107.911 234.54 109.213C232.799 111.19 230.73 112.883 228.414 114.223C226.928 115.034 225.707 115.71 224.826 115.223L216.504 110.646C216.447 108.843 216.447 106.888 216.504 104.815V87.3605L196.357 76.2946L268.13 36.7893L294.251 51.1352L294.204 143.275L277.929 152.214C268.017 157.621 268.017 160.117 268.017 164.56C267.97 166.965 268.407 169.357 269.304 171.607C270.353 174.324 270.935 177.184 271.027 180.077C271.027 180.519 271.084 181.05 271.094 181.582C270.956 186.566 269.504 191.437 266.871 195.748L250.379 204.804C249.876 204.505 249.412 204.151 248.997 203.75C247.16 201.948 246.156 198.92 246.156 195.252C246.156 194.757 246.156 194.234 246.232 193.657C246.232 193.657 246.232 193.657 246.232 193.603C246.232 192.702 246.317 191.864 246.431 190.9C246.431 190.638 246.497 190.359 246.535 190.098C246.601 189.53 246.686 188.989 246.781 188.476C246.876 187.962 246.952 187.521 247.046 187.061C247.103 186.818 247.15 186.583 247.198 186.358C247.415 185.358 247.662 184.358 247.946 183.285C248.756 180.533 249.185 177.691 249.224 174.833C249.224 172.129 248.978 170.913 248.201 170.48L238.876 165.353L223.018 174.076L216.504 177.68Z" fill="white"/>
</mask>
<g mask="url(#mask1_209_1161)">
<path d="M254.724 196.234L234.53 185.132C234.436 185.087 234.344 185.036 234.256 184.979C233.129 184.168 232.608 182.483 232.608 180.474C232.587 180.149 232.587 179.824 232.608 179.5V179.383C232.752 176.783 233.193 174.206 233.924 171.697C234.246 170.408 234.587 168.993 234.871 167.542L239.245 165.136L239.415 165.046L239.52 164.992L242.966 163.235L243.06 163.19C244.143 162.676 245.263 162.237 246.412 161.874H246.544L246.989 161.739C247.166 161.685 247.346 161.642 247.529 161.613H247.633C247.842 161.559 248.059 161.505 248.277 161.469L248.845 161.397C249.063 161.397 249.29 161.397 249.508 161.397C249.726 161.397 249.849 161.397 250.01 161.397C250.236 161.4 250.461 161.425 250.682 161.469H250.767L251.089 161.523C251.35 161.59 251.607 161.674 251.856 161.775L252.083 161.865C252.759 162.208 253.34 162.699 253.778 163.298C253.816 163.35 253.851 163.404 253.882 163.46C254.089 163.744 254.266 164.045 254.412 164.361C254.412 164.425 254.478 164.497 254.507 164.551V164.614C254.649 164.947 254.772 165.308 254.895 165.686L254.971 165.974C255.096 166.416 255.191 166.864 255.255 167.317L255.302 167.524C255.486 168.805 255.571 170.097 255.557 171.39C255.519 175.313 254.946 179.214 253.853 182.997C253.13 185.51 252.692 188.09 252.547 190.692V190.8C252.547 191.215 252.499 191.512 252.499 191.783C252.499 193.792 253.115 195.333 254.232 196.144L254.724 196.234Z" fill="#0589D3"/>
<path d="M223.018 174.076L202.947 162.893V142.221C202.88 139.188 203.082 136.156 203.553 133.156C204.253 129.47 205.314 128.353 208.362 126.676C210.205 125.597 212.315 125.003 214.478 124.955C215.188 124.901 215.861 124.838 216.542 124.739L217.082 124.649L218.029 124.46C218.417 124.352 218.833 124.243 219.269 124.099C219.449 124.05 219.626 123.99 219.799 123.919C220.493 123.678 221.169 123.395 221.825 123.072L221.91 123.027C222.319 122.87 222.715 122.683 223.094 122.468C226.824 120.423 230.327 116.395 232.694 111.438C232.855 111.114 232.987 110.79 233.129 110.474L232.627 110.952C233.271 110.348 233.896 109.699 234.521 109.032C236.691 106.654 239.18 104.557 241.924 102.797C242.312 102.519 242.72 102.269 243.146 102.049C250.01 98.264 255.605 102.292 255.605 110.997C255.526 115.021 254.558 118.985 252.765 122.63C250.388 127.596 246.885 131.642 243.155 133.669C242.774 133.877 242.379 134.061 241.972 134.219C241.944 134.227 241.914 134.227 241.887 134.219C241.23 134.557 240.554 134.858 239.861 135.12L239.33 135.3C238.923 135.434 238.509 135.549 238.09 135.643C237.759 135.724 237.456 135.787 237.143 135.841L236.594 135.931C235.922 136.021 235.24 136.102 234.53 136.147C232.37 136.19 230.261 136.784 228.424 137.868C225.375 139.536 224.305 140.653 223.614 144.339C223.136 147.344 222.927 150.383 222.99 153.422V167.029L223.018 174.076Z" fill="#0589D3"/>
<path d="M224.864 115.043L204.698 103.941C203.515 103.256 202.975 100.409 202.975 93.2537L202.89 72.708L223.037 83.7828V104.437C223.037 111.646 223.671 114.394 224.873 115.034L224.864 115.043Z" fill="#0589D3"/>
<path opacity="0.2" d="M254.724 196.234L234.53 185.132C234.436 185.087 234.344 185.036 234.256 184.979C233.129 184.168 232.608 182.483 232.608 180.474C232.587 180.149 232.587 179.824 232.608 179.5V179.383C232.752 176.783 233.193 174.206 233.924 171.697C234.246 170.408 234.587 168.993 234.871 167.542L239.245 165.136L239.415 165.046L239.52 164.992L242.966 163.235L243.06 163.19C244.143 162.676 245.263 162.237 246.412 161.874H246.544L246.989 161.739C247.166 161.685 247.346 161.642 247.529 161.613H247.633C247.842 161.559 248.059 161.505 248.277 161.469L248.845 161.397C249.063 161.397 249.29 161.397 249.508 161.397C249.726 161.397 249.849 161.397 250.01 161.397C250.236 161.4 250.461 161.425 250.682 161.469H250.767L251.089 161.523C251.35 161.59 251.607 161.674 251.856 161.775L252.083 161.865C252.759 162.208 253.34 162.699 253.778 163.298C253.816 163.35 253.851 163.404 253.882 163.46C254.089 163.744 254.266 164.045 254.412 164.361C254.412 164.425 254.478 164.497 254.507 164.551V164.614C254.649 164.947 254.772 165.308 254.895 165.686L254.971 165.974C255.096 166.416 255.191 166.864 255.255 167.317L255.302 167.524C255.486 168.805 255.571 170.097 255.557 171.39C255.519 175.313 254.946 179.214 253.853 182.997C253.13 185.51 252.692 188.09 252.547 190.692V190.8C252.547 191.215 252.499 191.512 252.499 191.783C252.499 193.792 253.115 195.333 254.232 196.144L254.724 196.234Z" fill="#16171A"/>
<path opacity="0.2" d="M223.018 174.076L202.947 162.893V142.221C202.88 139.188 203.082 136.156 203.553 133.156C204.253 129.47 205.314 128.353 208.362 126.676C210.205 125.597 212.315 125.003 214.478 124.955C215.188 124.901 215.861 124.838 216.542 124.739L217.082 124.649L218.029 124.46C218.417 124.352 218.833 124.243 219.269 124.099C219.449 124.05 219.626 123.99 219.799 123.919C220.493 123.678 221.169 123.395 221.825 123.072L221.91 123.027C222.319 122.87 222.715 122.683 223.094 122.468C226.824 120.423 230.327 116.395 232.694 111.438C232.855 111.114 232.987 110.79 233.129 110.474L232.627 110.952C233.271 110.348 233.896 109.699 234.521 109.032C236.691 106.654 239.18 104.557 241.924 102.797C242.312 102.519 242.72 102.269 243.146 102.049C250.01 98.264 255.605 102.292 255.605 110.997C255.526 115.021 254.558 118.985 252.765 122.63C250.388 127.596 246.885 131.642 243.155 133.669C242.774 133.877 242.379 134.061 241.972 134.219C241.944 134.227 241.914 134.227 241.887 134.219C241.23 134.557 240.554 134.858 239.861 135.12L239.33 135.3C238.923 135.434 238.509 135.549 238.09 135.643C237.759 135.724 237.456 135.787 237.143 135.841L236.594 135.931C235.922 136.021 235.24 136.102 234.53 136.147C232.37 136.19 230.261 136.784 228.424 137.868C225.375 139.536 224.305 140.653 223.614 144.339C223.136 147.344 222.927 150.383 222.99 153.422V167.029L223.018 174.076Z" fill="#16171A"/>
<path opacity="0.2" d="M224.864 115.043L204.698 103.941C203.515 103.256 202.975 100.409 202.975 93.2537L202.89 72.708L223.037 83.7828V104.437C223.037 111.646 223.671 114.394 224.873 115.034L224.864 115.043Z" fill="#16171A"/>
<path d="M254.876 196.324L254.725 196.243L254.403 196.045C253.286 195.234 252.67 193.693 252.67 191.684C252.67 191.413 252.67 191.116 252.718 190.701V190.593C252.863 187.991 253.301 185.411 254.024 182.898C255.117 179.115 255.69 175.214 255.728 171.291C255.742 169.998 255.657 168.706 255.473 167.425L255.425 167.218C255.362 166.765 255.267 166.316 255.141 165.875L255.066 165.587C254.943 165.208 254.819 164.848 254.677 164.515V164.452C254.677 164.397 254.621 164.325 254.583 164.262C254.437 163.946 254.259 163.645 254.053 163.361C254.022 163.305 253.987 163.25 253.948 163.199C253.511 162.6 252.93 162.109 252.254 161.766L252.027 161.676C251.777 161.575 251.521 161.49 251.26 161.424L250.938 161.37H250.853C250.631 161.325 250.406 161.301 250.18 161.298C250.019 161.298 249.849 161.298 249.679 161.298C249.508 161.298 249.234 161.298 249.016 161.298L248.448 161.37C248.23 161.37 248.012 161.46 247.804 161.514H247.7C247.517 161.543 247.337 161.585 247.16 161.64L246.715 161.775H246.583C245.434 162.138 244.314 162.577 243.231 163.091L243.137 163.136L239.69 164.893L239.586 164.947L239.416 165.037L235.042 167.443L223.018 174.076V167.02V153.413C222.953 150.377 223.159 147.341 223.634 144.338C224.325 140.653 225.395 139.535 228.443 137.868C230.28 136.784 232.389 136.19 234.55 136.147C235.26 136.147 235.941 136.021 236.614 135.931L237.163 135.841C237.475 135.787 237.778 135.724 238.109 135.643C238.529 135.549 238.943 135.434 239.35 135.3L239.88 135.12C240.573 134.858 241.25 134.557 241.906 134.219C241.934 134.227 241.963 134.227 241.991 134.219C242.398 134.061 242.793 133.877 243.174 133.669C246.905 131.606 250.408 127.595 252.784 122.63C254.577 118.985 255.545 115.021 255.624 110.997C255.624 102.292 250.029 98.2639 243.165 102.049C242.739 102.269 242.331 102.519 241.944 102.797C239.199 104.557 236.71 106.654 234.54 109.032C233.887 109.699 233.262 110.348 232.647 110.952C231.646 111.906 230.549 112.763 229.371 113.511L228.945 113.763L228.453 114.043C227.885 114.349 227.373 114.637 226.89 114.845L226.427 115.025C226.288 115.082 226.141 115.122 225.991 115.142C225.86 115.184 225.722 115.205 225.584 115.205C225.332 115.213 225.083 115.154 224.864 115.034C223.662 114.394 223.028 111.664 223.028 104.437V83.7828L202.881 72.708L264.779 38.6274C265.006 38.5103 265.215 38.3931 265.442 38.294C265.643 38.1947 265.852 38.1104 266.067 38.0417L266.692 37.8525C266.886 37.7904 267.085 37.7452 267.288 37.7173C267.541 37.673 267.798 37.6459 268.055 37.6362C269.094 37.5919 270.122 37.853 270.999 38.3841L290.881 49.2967C291.496 49.6181 292.034 50.0568 292.462 50.5853C292.61 50.7667 292.745 50.9563 292.869 51.1531C292.959 51.2839 293.041 51.4193 293.115 51.5586C293.267 51.8469 293.409 52.1443 293.541 52.4597C293.589 52.6219 293.655 52.7841 293.702 52.9553C294.058 54.1261 294.228 55.3412 294.204 56.5598V135.012L277.93 143.951L277.636 144.131L277.437 144.239H277.39L274.161 146.141C272.874 146.945 271.638 147.82 270.46 148.763L270.374 148.826L270.185 148.979L269.343 149.7L269.276 149.772C269.153 149.871 269.03 149.988 268.916 150.097C268.803 150.205 268.415 150.565 268.178 150.808C267.941 151.052 267.856 151.124 267.714 151.286C267.572 151.448 267.25 151.773 267.032 152.025L266.587 152.557L265.963 153.35L265.622 153.827L265.546 153.953L265.461 154.08C265.3 154.305 265.13 154.539 264.978 154.782C264.827 155.026 264.77 155.134 264.675 155.314L264.599 155.458C264.306 155.963 264.022 156.495 263.766 157.035L263.709 157.17C263.596 157.396 263.492 157.63 263.397 157.855C263.312 158.09 263.217 158.324 263.132 158.567L263.056 158.747L262.772 159.576C262.677 159.874 262.592 160.171 262.507 160.478C262.422 160.784 262.346 161.09 262.27 161.379C262.195 161.667 262.138 161.982 262.081 162.28C262.024 162.577 261.958 162.938 261.911 163.271V163.325C261.911 163.604 261.816 163.884 261.787 164.163C261.759 164.442 261.712 164.866 261.674 165.263V165.479C261.674 165.686 261.674 165.893 261.627 166.101C261.627 166.542 261.627 167.002 261.627 167.65V167.768C261.627 167.876 261.627 167.993 261.627 168.101C261.557 171.42 262.135 174.723 263.331 177.842C264.124 179.863 264.565 181.994 264.637 184.15V184.249C264.637 184.538 264.685 184.835 264.694 185.078C264.694 189.232 262.024 194.09 258.748 195.892C258.151 196.24 257.483 196.464 256.789 196.55C256.647 196.563 256.504 196.563 256.363 196.55H256.296C256.209 196.563 256.119 196.563 256.031 196.55C255.953 196.563 255.873 196.563 255.795 196.55L255.605 196.505L255.378 196.441C255.318 196.431 255.26 196.41 255.208 196.378C255.094 196.392 254.979 196.373 254.876 196.324Z" fill="#0589D3"/>
<path opacity="0.3" d="M223.018 83.7828L202.871 72.708L264.769 38.6274C264.997 38.5103 265.205 38.3931 265.432 38.294C265.633 38.1947 265.842 38.1104 266.057 38.0417L266.682 37.8525C266.876 37.7904 267.076 37.7452 267.278 37.7173C267.531 37.673 267.788 37.6459 268.045 37.6362C269.084 37.5919 270.112 37.853 270.989 38.3841L290.644 49.1976C290.473 49.1122 290.291 49.0457 290.104 48.9994C290.062 48.9883 290.02 48.9732 289.981 48.9543C289.809 48.8982 289.631 48.859 289.451 48.8372H289.271C289.155 48.8229 289.037 48.8229 288.921 48.8372H288.58C288.552 48.8326 288.523 48.8326 288.495 48.8372C288.331 48.8236 288.166 48.8236 288.002 48.8372L287.624 48.8912C287.366 48.9214 287.113 48.9757 286.866 49.0534L286.488 49.1616L285.749 49.4409C285.465 49.5671 285.181 49.7113 284.878 49.8735L223.018 83.7828Z" fill="#B2BBC6"/>
</g>
<mask id="mask2_209_1161" style="mask-type:luminance" maskUnits="userSpaceOnUse" x="125" y="76" width="125" height="141">
<path d="M145.337 216.78L125.172 205.714L125.247 127.118C125.321 123.991 126.106 120.917 127.548 118.107C129.262 114.664 131.78 111.7 134.592 110.15L196.339 76.3035L216.485 87.3693V104.644V110.474L224.798 115.043C225.697 115.538 226.9 114.872 228.395 114.052C230.711 112.711 232.78 111.019 234.521 109.041C235.755 107.739 237.06 106.5 238.431 105.329L247.037 110.051C247.104 110.083 247.168 110.122 247.226 110.168C247.237 110.163 247.248 110.16 247.259 110.16C247.271 110.16 247.282 110.163 247.292 110.168C247.369 110.209 247.439 110.261 247.501 110.321C247.807 110.577 248.063 110.882 248.258 111.222C248.33 111.313 248.387 111.413 248.429 111.519C248.476 111.596 248.514 111.678 248.542 111.763C248.704 112.119 248.825 112.49 248.902 112.871C248.907 112.931 248.907 112.991 248.902 113.051C248.902 113.277 248.978 113.529 249.006 113.781C249.034 114.034 249.006 114.295 249.006 114.565C249.02 114.817 249.02 115.07 249.006 115.322C249.006 115.593 248.959 115.854 248.921 116.106C248.883 116.358 248.836 116.629 248.788 116.89C248.741 117.151 248.703 117.287 248.646 117.485C248.613 117.628 248.572 117.769 248.523 117.908C248.23 118.926 247.817 119.908 247.292 120.837C246.361 122.678 244.913 124.237 243.108 125.343C242.866 125.471 242.616 125.585 242.36 125.685H242.313C240.616 126.534 238.737 126.999 236.821 127.046C236.216 127.046 235.6 127.136 234.928 127.226L234.237 127.325C232.581 127.638 230.985 128.188 229.503 128.956C229.323 129.037 229.153 129.118 228.992 129.209L228.452 129.497C227.336 130.109 226.272 130.805 225.271 131.578L225.176 131.669C224.703 132.038 224.23 132.426 223.87 132.786L223.794 132.858C222.874 133.736 222.041 134.692 221.304 135.715C220.96 136.168 220.644 136.641 220.358 137.129L220.168 137.436C219.922 137.868 219.704 138.337 219.487 138.733V138.806C219.43 138.905 219.382 139.013 219.335 139.103C219.136 139.571 218.918 140.049 218.729 140.536L218.644 140.779C218.436 141.356 218.227 141.941 218.066 142.509C218.066 142.59 218.019 142.662 218.019 142.689C217.887 143.194 217.745 143.699 217.631 144.221C217.631 144.374 217.565 144.537 217.527 144.69V144.816C217.442 145.194 217.385 145.582 217.309 145.978C217.309 146.204 217.224 146.447 217.186 146.69C217.148 146.934 217.082 147.411 217.044 147.781V147.961C217.004 148.151 216.979 148.344 216.968 148.538C216.968 148.916 216.883 149.304 216.845 149.709V149.916C216.845 150.052 216.845 150.196 216.845 150.349V150.475L216.627 156.783V177.509L210.947 180.645L209.139 181.645L205.569 183.582L200.372 186.448C196.755 188.439 194.256 189.449 192.703 189.566C192.464 189.594 192.222 189.594 191.984 189.566C191.822 189.532 191.666 189.478 191.52 189.404L184.107 185.277C184.102 185.247 184.102 185.216 184.107 185.186C184.192 184.285 184.305 183.384 184.438 182.573C184.523 182.05 184.618 181.546 184.722 181.077C184.997 179.599 185.347 178.275 185.669 177.013C186.403 174.506 186.838 171.927 186.966 169.327V169.273V169.2C186.966 168.777 186.966 168.498 187.013 168.236C187.013 166.227 186.388 164.677 185.271 163.875C185.217 163.836 185.16 163.8 185.101 163.767L184.949 163.686L176.665 159.135C174.369 161.556 172.519 164.328 171.193 167.335C171.013 167.75 170.833 168.164 170.672 168.561C170.511 168.957 170.341 169.399 170.199 169.822L170.133 170.002C169.981 170.426 169.849 170.85 169.716 171.273C169.584 171.697 169.47 172.129 169.366 172.553C169.262 172.976 169.224 173.138 169.158 173.454C169.091 173.769 169.034 174.039 168.997 174.355C168.881 174.951 168.799 175.553 168.75 176.157C168.703 176.482 168.675 176.815 168.656 177.139C168.637 177.464 168.608 177.977 168.608 178.383C168.608 178.788 168.608 178.924 168.608 179.185C168.608 179.446 168.608 179.681 168.665 179.906C168.665 180.293 168.665 180.654 168.731 181.005C168.782 181.821 168.88 182.633 169.025 183.438C169.025 183.763 169.129 184.078 169.195 184.339C169.496 185.69 169.888 187.02 170.369 188.322C170.947 189.774 171.338 191.287 171.534 192.828V192.999V193.134V193.324C171.591 193.99 171.619 194.648 171.619 195.333C171.619 199.776 171.619 202.227 161.697 207.679L145.337 216.78Z" fill="white"/>
</mask>
<g mask="url(#mask2_209_1161)">
<path d="M191.34 189.548L171.259 178.338C170.473 177.897 170.227 176.662 170.227 173.995C170.231 171.797 170.507 169.607 171.051 167.47C170.446 168.798 169.933 170.161 169.517 171.553C171.411 164.929 175.832 158.63 180.878 155.837C184.201 154.035 187.326 153.936 189.683 155.63C192.04 157.324 193.337 160.559 193.337 164.794C193.337 165.2 193.337 165.596 193.29 165.957V166.155C193.29 166.254 193.29 166.353 193.29 166.452C193.29 167.353 193.176 168.254 193.072 169.201C193.063 169.352 193.044 169.502 193.015 169.651V169.786C192.93 170.426 192.845 171.048 192.741 171.67C192.665 172.039 192.589 172.409 192.523 172.769C192.457 173.13 192.372 173.499 192.296 173.859C192.088 174.761 191.851 175.743 191.605 176.725C190.784 179.479 190.348 182.324 190.308 185.187C190.298 187.872 190.497 189.107 191.34 189.548Z" fill="#0589D3"/>
<path d="M145.337 216.78L125.172 205.714L125.247 127.127C125.314 123.999 126.099 120.924 127.548 118.116L147.676 129.173C146.195 132.02 145.39 135.143 145.318 138.319L145.337 216.78Z" fill="#0589D3"/>
<path d="M191.34 189.548L171.259 178.338C170.474 177.897 170.227 176.662 170.227 173.995C170.231 171.797 170.507 169.607 171.051 167.47C173.323 162.451 176.892 158.045 180.916 155.837C184.239 154.035 187.363 153.936 189.721 155.63C192.078 157.324 193.337 160.559 193.337 164.794C193.337 165.2 193.337 165.596 193.29 165.957V166.155C193.29 166.254 193.29 166.353 193.29 166.452C193.29 167.353 193.176 168.254 193.072 169.201C193.063 169.352 193.044 169.502 193.016 169.651V169.786C192.93 170.426 192.845 171.048 192.741 171.67C192.665 172.039 192.589 172.409 192.523 172.769C192.457 173.13 192.372 173.499 192.296 173.859C192.088 174.761 191.851 175.743 191.605 176.725C190.784 179.479 190.348 182.324 190.308 185.187C190.298 187.872 190.497 189.107 191.34 189.548Z" fill="#16171A"/>
<path d="M145.337 216.78L125.172 205.714L125.247 127.127C125.314 123.999 126.099 120.924 127.548 118.116L147.676 129.173C146.195 132.02 145.39 135.143 145.318 138.319L145.337 216.78Z" fill="#16171A"/>
<path d="M145.337 216.78V138.31C145.409 135.134 146.214 132.011 147.695 129.164L127.567 118.107C127.624 117.99 127.671 117.882 127.728 117.773C127.811 117.594 127.906 117.419 128.012 117.251C128.144 117.007 128.277 116.773 128.419 116.539C128.561 116.305 128.76 115.971 128.949 115.71L129.053 115.521C129.079 115.482 129.107 115.446 129.139 115.412C129.3 115.16 129.489 114.899 129.678 114.647L129.849 114.421C129.945 114.279 130.053 114.143 130.171 114.016C130.273 113.878 130.383 113.745 130.502 113.619L130.597 113.502C130.767 113.295 130.947 113.088 131.136 112.898L131.363 112.673C131.412 112.615 131.466 112.56 131.524 112.511L131.629 112.394L131.827 112.223L132.178 111.898C132.208 111.866 132.243 111.839 132.282 111.817C132.386 111.727 132.481 111.628 132.575 111.556L132.679 111.475H132.727L132.982 111.294C133.077 111.213 133.181 111.15 133.276 111.078C133.371 111.006 133.465 110.934 133.56 110.862C133.672 110.781 133.789 110.705 133.91 110.637C134.116 110.485 134.335 110.349 134.563 110.231L196.32 76.3848L216.466 87.4596V104.725L216.76 104.437C218.384 102.625 220.26 101.034 222.336 99.7059H222.412C222.606 99.5665 222.809 99.4371 223.018 99.3184C223.582 98.9465 224.247 98.7362 224.933 98.7122C225.619 98.6883 226.298 98.8517 226.89 99.1832L246.971 110.222C247.079 110.273 247.181 110.337 247.273 110.411L247.444 110.537C248.142 111.158 248.619 111.971 248.807 112.862C248.864 113.088 248.911 113.331 248.949 113.574C249.004 113.974 249.03 114.378 249.025 114.782C248.974 116.97 248.38 119.116 247.292 121.045C246.356 122.885 244.905 124.444 243.098 125.55C242.856 125.683 242.606 125.804 242.35 125.911H242.303C240.607 126.76 238.728 127.226 236.812 127.271C233.828 127.375 230.926 128.224 228.395 129.731C227.278 130.339 226.217 131.035 225.224 131.813L225.11 131.894C224.646 132.264 224.163 132.642 223.804 133.02L223.747 133.084C222.822 133.954 221.988 134.907 221.257 135.931C220.944 136.373 220.642 136.832 220.31 137.346L220.168 137.589V137.661C219.922 138.076 219.695 138.562 219.477 138.959V139.022C219.425 139.121 219.381 139.223 219.344 139.328C219.127 139.788 218.928 140.229 218.739 140.761L218.644 140.995C218.426 141.572 218.227 142.167 218.066 142.726L218.019 142.915C217.877 143.41 217.744 143.924 217.631 144.447C217.631 144.591 217.555 144.753 217.527 144.906V145.032C217.451 145.42 217.385 145.798 217.309 146.195C217.309 146.42 217.224 146.664 217.195 146.898C217.167 147.132 217.082 147.628 217.034 148.006V148.186C217.034 148.367 216.987 148.556 216.978 148.754C216.978 149.133 216.892 149.529 216.864 149.917V150.124C216.864 150.268 216.864 150.412 216.817 150.556V150.692L216.599 156.999V177.725L210.918 180.87L205.55 183.817L200.353 186.673C196.746 188.665 194.227 189.674 192.694 189.782C192.574 189.791 192.454 189.791 192.334 189.782C192.041 189.779 191.752 189.711 191.491 189.584C190.686 189.143 190.45 187.908 190.45 185.223C190.49 182.36 190.926 179.515 191.747 176.761C191.993 175.779 192.23 174.824 192.438 173.896C192.514 173.535 192.599 173.175 192.665 172.805C192.731 172.436 192.807 172.075 192.883 171.706C192.987 171.084 193.072 170.462 193.157 169.822V169.687C193.186 169.538 193.205 169.388 193.214 169.237C193.318 168.291 193.394 167.434 193.432 166.488C193.432 166.389 193.432 166.29 193.432 166.191V165.966C193.432 165.605 193.489 165.209 193.479 164.803C193.479 160.577 192.192 157.324 189.834 155.63C187.477 153.936 184.353 153.999 181.03 155.837C177.006 158.045 173.456 162.451 171.165 167.47C170.697 168.462 170.292 169.479 169.953 170.516C169.839 170.859 169.726 171.21 169.631 171.553C169.536 171.895 169.404 172.373 169.3 172.787C169.269 172.856 169.25 172.929 169.243 173.003C169.148 173.4 169.063 173.805 168.997 174.202C168.834 175.058 168.717 175.921 168.646 176.788C168.627 177.046 168.627 177.305 168.646 177.563C168.646 177.869 168.646 178.176 168.646 178.464C168.646 178.996 168.646 179.555 168.713 179.987C168.804 182.874 169.383 185.728 170.426 188.44C170.999 189.893 171.39 191.405 171.591 192.945V193.126V193.18V193.252C171.586 193.315 171.586 193.378 171.591 193.441C171.638 194.108 171.676 194.766 171.676 195.45C171.676 199.893 171.676 202.344 161.763 207.796L145.337 216.78Z" fill="#37474F"/>
<path d="M226.994 98.9941L247.075 110.033C246.459 109.742 245.771 109.615 245.086 109.668C244.4 109.72 243.743 109.949 243.184 110.33C243.013 110.42 242.795 110.565 242.578 110.709L242.511 110.772H242.464C240.386 112.097 238.509 113.689 236.888 115.503C234.476 118.17 231.635 120.457 228.471 122.279L228.074 122.486L227.922 122.559L227.808 122.613C227.505 122.766 227.212 122.928 226.937 123.054L226.407 123.27L226.227 123.334L226.123 123.388L225.46 123.622C225.263 123.695 225.061 123.756 224.855 123.802H224.779L224.107 123.955C223.879 124.009 223.671 124.018 223.453 124.054H222.829C222.63 124.054 222.431 124.054 222.242 124.054C222.052 124.054 221.872 123.991 221.692 123.964C221.512 123.931 221.334 123.883 221.162 123.82C220.995 123.766 220.833 123.696 220.679 123.613H220.594C220.454 123.548 220.318 123.476 220.187 123.397C220.059 123.31 219.939 123.214 219.827 123.108L219.752 123.054L219.676 122.982C219.572 122.901 219.458 122.802 219.354 122.703C219.233 122.567 219.119 122.426 219.013 122.279L218.956 122.198C218.746 121.91 218.557 121.609 218.388 121.297L218.331 121.18C218.25 121.043 218.177 120.902 218.114 120.756C218.047 120.603 217.972 120.414 217.905 120.234V120.107V119.999C217.849 119.837 217.782 119.693 217.726 119.513C217.669 119.333 217.593 119.026 217.527 118.774C217.46 118.522 217.404 118.341 217.366 118.116C217.328 117.891 217.252 117.575 217.205 117.287C217.158 116.999 217.12 116.818 217.082 116.584C217.044 116.35 217.006 115.98 216.968 115.683C216.93 115.386 216.911 115.187 216.883 114.935C216.855 114.683 216.817 114.277 216.798 113.926C216.798 113.746 216.798 113.529 216.798 113.322V113.052C216.798 112.736 216.798 112.403 216.741 112.06V111.925L216.675 108.321V104.59C216.76 104.491 216.864 104.401 216.949 104.311C218.573 102.499 220.449 100.908 222.526 99.5799H222.573L222.649 99.5258C222.838 99.3873 223.038 99.2608 223.245 99.1473C223.796 98.7997 224.437 98.6017 225.097 98.5747C225.758 98.5477 226.414 98.6927 226.994 98.9941Z" fill="#16171A"/>
<path d="M147.704 129.172L127.557 118.098C127.614 117.98 127.662 117.881 127.728 117.773C127.811 117.594 127.906 117.419 128.012 117.251C128.144 117.007 128.277 116.773 128.419 116.539C128.561 116.304 128.76 115.971 128.949 115.71C129.003 115.605 129.067 115.506 129.139 115.412C129.3 115.16 129.489 114.899 129.678 114.646L129.849 114.421C129.945 114.278 130.053 114.143 130.171 114.015C130.302 113.837 130.444 113.665 130.597 113.502C130.767 113.295 130.947 113.087 131.136 112.898L131.363 112.673C131.412 112.614 131.466 112.56 131.524 112.511L131.827 112.222L132.178 111.898C132.208 111.866 132.243 111.839 132.282 111.817C132.405 111.693 132.538 111.579 132.679 111.474H132.727L132.982 111.294C133.166 111.14 133.359 110.996 133.56 110.862C133.672 110.78 133.789 110.705 133.91 110.636C134.116 110.485 134.335 110.349 134.563 110.231L196.31 76.3755L216.457 87.4503L189.314 102.364L154.625 121.441C154.36 121.585 154.104 121.738 153.849 121.9C153.593 122.063 153.375 122.225 153.157 122.405C153.03 122.485 152.909 122.575 152.798 122.675C152.571 122.847 152.343 123.054 152.126 123.252C151.908 123.45 151.595 123.748 151.34 124C150.771 124.591 150.242 125.218 149.759 125.874C149.569 126.127 149.38 126.379 149.2 126.649C148.646 127.459 148.146 128.302 147.704 129.172Z" fill="#455A64"/>
</g>
<path d="M118.024 148.592C119.01 148.646 119.984 148.354 120.76 147.772C122.852 146.231 124.414 146.357 126.658 145.438C128.419 144.708 129.129 143.816 129.498 144.122C129.865 144.51 130.064 145.015 130.056 145.537C130.047 146.059 129.831 146.558 129.451 146.934C128.774 147.683 127.99 148.339 127.122 148.88C129.203 148.757 131.255 148.357 133.219 147.691C137.953 146.159 140.197 146.79 138.047 152.512C136.703 156.116 133.314 158.099 124.026 157.919C120.594 157.699 117.181 157.259 113.811 156.603C104.618 154.882 86.109 152.241 82.8806 148.105C73.7445 136.391 65.3658 126.731 64.2108 117.99C63.264 110.655 67.9978 106.554 72.3812 106.554C74.8711 109.051 76.3859 112.024 78.677 119.026C78.677 119.026 90.5682 139.292 91.7705 140.77C94.7623 142.329 116.073 148.295 118.024 148.592Z" fill="#FFA8A7"/>
<path d="M289.735 73.5101C291.335 74.4113 293.049 74.7987 295.179 76.2766C296.556 77.4018 298.2 78.1906 299.969 78.5745C302.251 79.1061 320.211 73.3299 323.534 70.8879C330.303 65.9227 336.145 56.578 339.401 53.0366C342.081 50.1169 345.082 45.7194 348.424 45.7014C353.887 47.2694 352.656 55.001 348.083 61.9217C344.296 67.6799 337.12 74.9519 328.997 80.0253C325.058 82.4854 306.909 86.9459 300.878 87.3244C299.051 87.4325 297.697 87.829 294.251 88.2976C292.819 88.5742 291.351 88.6501 289.896 88.5229C288.109 88.2583 286.372 87.7515 284.736 87.018C282.66 86.0965 280.882 84.662 279.586 82.8638C278.879 81.8751 278.425 80.7424 278.261 79.5567C278.095 78.3623 278.384 77.1508 279.075 76.1414C279.204 75.9307 279.391 75.7565 279.614 75.6368C280.055 75.5004 280.534 75.5327 280.949 75.7269C283.373 76.5289 285.853 77.7364 288.343 78.2861C290.445 78.7457 291.998 78.7997 291.789 78.4393C291.581 78.0788 290.332 77.8806 288.902 76.7272C287.472 75.5737 286.885 73.7534 287.595 73.0686C288.305 72.3837 288.145 72.573 289.735 73.5101Z" fill="#FFA8A7"/>
<path d="M348.774 43.8723C352.807 45.7556 354.455 48.6212 352.656 55.0012C351.046 60.7323 344.873 70.5095 340.017 75.2945C340.017 75.2945 331.704 71.5458 327.283 66.6707C331.657 60.2998 333.768 56.5511 337.877 51.1534C341.986 45.7556 346.313 43.2325 348.774 43.8723Z" fill="white"/>
</svg>
