<svg width="571" height="240" viewBox="0 0 571 240" fill="none" xmlns="http://www.w3.org/2000/svg">
<path d="M565.606 -119.957C565.606 -119.957 553.048 26.5772 508.433 91.8757C435.624 198.44 145.141 41.3686 201.936 199.155C226.971 268.705 336.81 289.16 323.36 350.205C312.464 399.652 214.542 457.071 213.573 387.785C212.605 318.5 104.14 365.179 104.14 365.179" stroke="#49454F" stroke-linecap="round"/>
<path d="M551.605 -130.304C551.605 -130.304 539.047 16.231 494.432 81.5295C421.623 188.094 131.14 31.0224 187.935 188.808C212.97 258.358 322.809 278.813 309.359 339.859C298.464 389.306 200.541 446.724 199.572 377.439C198.604 308.154 90.1394 354.833 90.1394 354.833" stroke="#49454F" stroke-linecap="round"/>
<path d="M542.413 -143.901C542.413 -143.901 529.855 2.63384 485.241 67.9323C412.431 174.497 121.949 17.4252 178.744 175.211C203.778 244.761 313.618 265.216 300.167 326.261C289.272 375.709 191.349 433.127 190.381 363.842C189.412 294.557 80.9477 341.236 80.9477 341.236" stroke="#49454F" stroke-linecap="round"/>
</svg>
