<svg width="1128" height="438" viewBox="0 0 1128 438" fill="none" xmlns="http://www.w3.org/2000/svg">
<path d="M969.229 18.3549C969.229 18.3549 841.259 175.764 730.468 225.152C549.66 305.751 268.013 -24.6656 227.111 182.236C209.082 273.436 344.987 354.773 280.35 415.976C227.994 465.551 49.6976 477.757 100.688 399.656C151.679 321.555 -33.0319 316.126 -33.0319 316.126" stroke="white" stroke-opacity="0.05" stroke-width="1.68817" stroke-linecap="round"/>
<path d="M1009.32 -34.4225C1009.32 -34.4225 875.685 123.662 760.385 173.587C572.221 255.063 281.214 -74.2384 237.778 132.965C218.633 224.298 359.414 305.054 291.999 366.588C237.391 416.432 52.1498 429.465 105.47 351.086C158.791 272.708 -33.0319 268.126 -33.0319 268.126" stroke="white" stroke-opacity="0.05" stroke-width="1.68817" stroke-linecap="round"/>
<path d="M1047.73 -65.4C1047.73 -65.4 906.837 93.5487 785.772 144.161C588.199 226.757 285.22 -101.117 238.545 106.472C217.972 197.975 364.99 277.988 294.02 339.945C236.533 390.132 42.4101 404.224 98.7101 325.49C155.01 246.757 -45.9079 243.259 -45.9079 243.259" stroke="white" stroke-opacity="0.05" stroke-width="1.68817" stroke-linecap="round"/>
<path d="M1075.46 -98.1038C1075.46 -98.1038 930.308 61.3521 805.858 112.367C602.759 195.622 292.749 -131.414 244.172 76.4021C222.76 168.005 373.441 247.581 300.384 309.787C241.206 360.176 41.8672 374.888 99.9169 295.947C157.967 217.005 -48.2927 214.143 -48.2927 214.143" stroke="white" stroke-opacity="0.05" stroke-width="1.68817" stroke-linecap="round"/>
</svg>
