<svg width="480" height="334" viewBox="0 0 480 334" fill="none" xmlns="http://www.w3.org/2000/svg">
<g clip-path="url(#clip0_256_7337)">
<path d="M273.18 38.7749H244.554V44.0433H273.18V38.7749Z" fill="#407BFF"/>
<path d="M263.362 46.3865H244.554V51.6548H263.362V46.3865Z" fill="#407BFF"/>
<path d="M255.384 53.9983H244.554V59.2666H255.384V53.9983Z" fill="#407BFF"/>
<g opacity="0.2">
<path d="M273.18 38.7749H244.554V44.0433H273.18V38.7749Z" fill="black"/>
<path d="M263.362 46.3867H244.554V51.6551H263.362V46.3867Z" fill="black"/>
<path d="M255.384 53.9983H244.554V59.2666H255.384V53.9983Z" fill="black"/>
</g>
<path d="M194.845 97.1144V112.976H204.553V97.1144H194.845Z" fill="#407BFF"/>
<path d="M208.87 102.561V112.976H218.577V102.561H208.87Z" fill="#407BFF"/>
<path d="M222.885 106.973V112.968H232.592V106.973H222.885Z" fill="#407BFF"/>
<g opacity="0.2">
<path d="M194.845 97.1144V112.976H204.553V97.1144H194.845Z" fill="black"/>
<path d="M208.87 102.561V112.976H218.577V102.561H208.87Z" fill="black"/>
<path d="M222.885 106.972V112.968H232.592V106.972H222.885Z" fill="black"/>
</g>
<path d="M192.671 124.547H310.219C311.758 124.549 313.283 124.309 314.706 123.839C316.129 123.37 317.422 122.681 318.512 121.812C319.601 120.943 320.465 119.911 321.055 118.775C321.645 117.638 321.948 116.42 321.948 115.19V37.7808C321.948 36.5507 321.645 35.3326 321.055 34.1963C320.465 33.06 319.601 32.0278 318.512 31.1587C317.422 30.2896 316.129 29.6007 314.706 29.1315C313.283 28.6622 311.758 28.4217 310.219 28.4238H192.671C191.132 28.4228 189.608 28.664 188.186 29.1336C186.764 29.6033 185.471 30.2922 184.382 31.1611C183.293 32.03 182.428 33.0618 181.838 34.1976C181.248 35.3334 180.943 36.551 180.942 37.7808V115.19C180.943 116.42 181.248 117.638 181.838 118.773C182.428 119.909 183.293 120.941 184.382 121.81C185.471 122.679 186.764 123.368 188.186 123.837C189.608 124.307 191.132 124.548 192.671 124.547Z" stroke="#263238" stroke-width="0.263962" stroke-miterlimit="10"/>
<path d="M266.789 97.9712H308.702" stroke="#263238" stroke-width="0.263962" stroke-miterlimit="10"/>
<path d="M266.789 101.551H308.702" stroke="#263238" stroke-width="0.263962" stroke-miterlimit="10"/>
<path d="M266.79 105.13H308.702" stroke="#263238" stroke-width="0.263962" stroke-miterlimit="10"/>
<path d="M266.789 108.718H308.702" stroke="#263238" stroke-width="0.263962" stroke-miterlimit="10"/>
<path d="M266.789 112.297H308.702" stroke="#263238" stroke-width="0.263962" stroke-miterlimit="10"/>
<path d="M193.561 39.5586H235.474" stroke="#263238" stroke-width="0.263962" stroke-miterlimit="10"/>
<path d="M193.561 43.1382H235.474" stroke="#263238" stroke-width="0.263962" stroke-miterlimit="10"/>
<path d="M193.561 46.7178H235.474" stroke="#263238" stroke-width="0.263962" stroke-miterlimit="10"/>
<path d="M193.561 50.2974H235.474" stroke="#263238" stroke-width="0.263962" stroke-miterlimit="10"/>
<path d="M193.561 53.885H235.474" stroke="#263238" stroke-width="0.263962" stroke-miterlimit="10"/>
<path d="M303.454 67.7104L311.442 71.0637L310.542 53.0608L291.452 62.6844L299.44 66.0297L293.434 75.1685C292.371 75.1719 291.34 75.456 290.501 75.9765L279.924 72.0495C279.924 71.0166 279.411 70.0259 278.497 69.2955C277.583 68.5651 276.343 68.1548 275.051 68.1548C273.758 68.1548 272.518 68.5651 271.604 69.2955C270.69 70.0259 270.177 71.0166 270.177 72.0495C270.176 72.6076 270.328 73.1591 270.622 73.6656L256.759 85.6729C256.317 85.5596 255.857 85.4997 255.394 85.4951C255.16 85.5015 254.927 85.5204 254.696 85.5517L234.766 65.4237C235.053 64.916 235.198 64.3645 235.191 63.8076C235.191 62.7747 234.677 61.784 233.763 61.0536C232.849 60.3232 231.61 59.9129 230.317 59.9129C229.024 59.9129 227.785 60.3232 226.871 61.0536C225.957 61.784 225.443 62.7747 225.443 63.8076C225.454 64.2087 225.539 64.6063 225.696 64.9873L202.935 83.5074C202.4 83.351 201.836 83.269 201.266 83.265C200.305 83.2666 199.365 83.4959 198.567 83.9239C197.768 84.3519 197.147 84.9595 196.78 85.6698C196.413 86.3802 196.319 87.1614 196.507 87.9148C196.696 88.6682 197.16 89.3599 197.841 89.9027C198.521 90.4454 199.388 90.8148 200.331 90.9641C201.274 91.1134 202.252 91.036 203.14 90.7416C204.028 90.4472 204.787 89.949 205.321 89.31C205.855 88.6711 206.14 87.9199 206.14 87.1516C206.138 86.8295 206.084 86.509 205.978 86.1981L228.932 67.468C229.38 67.5806 229.847 67.6405 230.317 67.6457C230.615 67.6452 230.913 67.6236 231.207 67.5811L251.036 87.6687C250.677 88.242 250.501 88.8771 250.523 89.5177C250.545 90.1584 250.765 90.7848 251.162 91.3414C251.56 91.8979 252.123 92.3675 252.802 92.7084C253.481 93.0494 254.255 93.2511 255.055 93.2957C255.855 93.3404 256.657 93.2265 257.389 92.9643C258.121 92.7021 258.76 92.2997 259.251 91.7926C259.741 91.2856 260.068 90.6897 260.201 90.0577C260.334 89.4257 260.27 88.7772 260.015 88.1697L274.232 75.8634C274.502 75.9017 274.776 75.9233 275.051 75.928C276.017 75.929 276.961 75.6982 277.761 75.2655L288.58 79.3056C288.622 79.9051 288.836 80.4887 289.207 81.0107C289.579 81.5327 290.096 81.9789 290.719 82.3143C291.342 82.6497 292.054 82.8652 292.799 82.9439C293.544 83.0226 294.301 82.9623 295.012 82.7678C295.723 82.5732 296.368 82.2498 296.896 81.8227C297.424 81.3957 297.821 80.8767 298.056 80.3065C298.291 79.7362 298.357 79.1302 298.25 78.536C298.143 77.9418 297.865 77.3755 297.438 76.8815L303.454 67.7104Z" fill="#263238"/>
<path d="M154.075 85.3984L140.404 68.3247L117.815 81.6006L96.9852 48.6572L42.0186 76.5827V99.1429H165.967V80.1785L154.075 85.3984Z" fill="#263238" stroke="#263238" stroke-width="0.288179" stroke-linecap="round" stroke-linejoin="round"/>
<path d="M156.452 98.1974L141.598 80.1784L116.632 88.2425L87.5005 65.957L42.0186 80.6308V113.372H165.967V92.9776L156.452 98.1974Z" fill="#407BFF" stroke="#263238" stroke-width="0.217656" stroke-miterlimit="10"/>
<path opacity="0.2" d="M156.452 98.1974L141.598 80.1784L116.632 88.2425L87.5005 65.957L42.0186 80.6308V113.372H165.967V92.9776L156.452 98.1974Z" fill="black"/>
<path d="M156.452 98.1974L141.598 80.1784L116.632 88.2425L87.5005 65.957L42.0186 80.6308V113.372H165.967V92.9776L156.452 98.1974Z" stroke="#263238" stroke-width="0.217656" stroke-miterlimit="10"/>
<path d="M112.446 40.3021H102.466C101.855 40.2984 101.262 40.4601 100.781 40.7608C100.301 41.0615 99.9618 41.4834 99.8198 41.9577C99.6779 42.432 99.7412 42.9307 99.9996 43.3726C100.258 43.8144 100.696 44.1733 101.242 44.3907L97.7537 47.3562L104.114 44.6331H112.446C113.165 44.6331 113.854 44.405 114.362 43.9988C114.87 43.5927 115.156 43.0419 115.156 42.4676C115.156 41.8933 114.87 41.3424 114.362 40.9363C113.854 40.5302 113.165 40.3021 112.446 40.3021Z" fill="#407BFF"/>
<path opacity="0.2" d="M112.446 40.3021H102.466C101.855 40.2984 101.262 40.4601 100.781 40.7608C100.301 41.0615 99.9618 41.4834 99.8198 41.9577C99.6779 42.432 99.7412 42.9307 99.9996 43.3726C100.258 43.8144 100.696 44.1733 101.242 44.3907L97.7537 47.3562L104.114 44.6331H112.446C113.165 44.6331 113.854 44.405 114.362 43.9988C114.87 43.5927 115.156 43.0419 115.156 42.4676C115.156 41.8933 114.87 41.3424 114.362 40.9363C113.854 40.5302 113.165 40.3021 112.446 40.3021Z" fill="black"/>
<path d="M156.158 59.5816H146.178C145.568 59.578 144.974 59.7397 144.494 60.0404C144.013 60.341 143.674 60.7629 143.532 61.2372C143.39 61.7115 143.454 62.2103 143.712 62.6521C143.97 63.094 144.408 63.4529 144.955 63.6702L141.466 66.6599L147.826 63.9288H156.158C156.877 63.9288 157.566 63.7007 158.075 63.2945C158.583 62.8884 158.868 62.3376 158.868 61.7633C158.868 61.189 158.583 60.6381 158.075 60.232C157.566 59.8259 156.877 59.5978 156.158 59.5978V59.5816Z" fill="#407BFF"/>
<path opacity="0.2" d="M156.158 59.5816H146.178C145.568 59.578 144.974 59.7397 144.494 60.0404C144.013 60.341 143.674 60.7629 143.532 61.2372C143.39 61.7115 143.454 62.2103 143.712 62.6521C143.97 63.094 144.408 63.4529 144.955 63.6702L141.466 66.6599L147.826 63.9288H156.158C156.877 63.9288 157.566 63.7007 158.075 63.2945C158.583 62.8884 158.868 62.3376 158.868 61.7633C158.868 61.189 158.583 60.6381 158.075 60.232C157.566 59.8259 156.877 59.5978 156.158 59.5978V59.5816Z" fill="black"/>
<path d="M47.0238 124.547H164.571C166.111 124.549 167.635 124.309 169.058 123.839C170.481 123.37 171.774 122.681 172.864 121.812C173.953 120.943 174.818 119.911 175.407 118.775C175.997 117.638 176.301 116.42 176.301 115.19V37.7808C176.301 36.5507 175.997 35.3326 175.407 34.1963C174.818 33.06 173.953 32.0278 172.864 31.1587C171.774 30.2896 170.481 29.6007 169.058 29.1315C167.635 28.6622 166.111 28.4217 164.571 28.4238H47.0238C45.4844 28.4217 43.9596 28.6622 42.5366 29.1315C41.1137 29.6007 39.8205 30.2896 38.731 31.1587C37.6416 32.0278 36.7773 33.06 36.1876 34.1963C35.5978 35.3326 35.2943 36.5507 35.2943 37.7808V115.19C35.2943 116.42 35.5978 117.638 36.1876 118.775C36.7773 119.911 37.6416 120.943 38.731 121.812C39.8205 122.681 41.1137 123.37 42.5366 123.839C43.9596 124.309 45.4844 124.549 47.0238 124.547Z" stroke="#263238" stroke-width="0.263962" stroke-miterlimit="10"/>
<path d="M44.2229 38.8718H52.3223" stroke="#263238" stroke-width="0.263962" stroke-miterlimit="10"/>
<path d="M44.2229 45.918H52.3223" stroke="#263238" stroke-width="0.263962" stroke-miterlimit="10"/>
<path d="M44.2229 52.9639H52.3223" stroke="#263238" stroke-width="0.263962" stroke-miterlimit="10"/>
<path d="M44.2229 60.01H52.3223" stroke="#263238" stroke-width="0.263962" stroke-miterlimit="10"/>
<path d="M44.2229 67.0559H52.3223" stroke="#263238" stroke-width="0.263962" stroke-miterlimit="10"/>
<path d="M362.324 48.4226C357.058 48.429 351.913 49.6827 347.538 52.0252C343.163 54.3678 339.756 57.694 337.746 61.5836C335.737 65.4733 335.215 69.7516 336.247 73.8781C337.279 78.0046 339.819 81.7939 343.546 84.7672C347.272 87.7405 352.018 89.7644 357.183 90.583C362.349 91.4016 367.702 90.9782 372.566 89.3664C377.431 87.7546 381.588 85.0266 384.513 81.5272C387.437 78.0279 388.998 73.9142 388.998 69.7061C388.988 64.0584 386.173 58.6449 381.171 54.6544C376.17 50.6639 369.391 48.4226 362.324 48.4226ZM362.324 84.7355C358.605 84.7243 354.973 83.8327 351.888 82.1732C348.802 80.5137 346.401 78.1608 344.988 75.4117C343.575 72.6625 343.213 69.6404 343.948 66.7269C344.683 63.8134 346.482 61.1393 349.117 59.0423C351.753 56.9452 355.107 55.5193 358.756 54.9446C362.405 54.3698 366.185 54.672 369.619 55.8131C373.053 56.9541 375.987 58.8828 378.051 61.3555C380.114 63.8282 381.214 66.7341 381.212 69.7061C381.207 71.684 380.714 73.6418 379.762 75.4675C378.81 77.2933 377.417 78.9513 375.663 80.3469C373.909 81.7425 371.829 82.8484 369.54 83.6013C367.251 84.3543 364.799 84.7397 362.324 84.7355Z" fill="#407BFF" stroke="#263238" stroke-width="0.263962" stroke-miterlimit="10"/>
<g opacity="0.2">
<path d="M362.324 48.4226C357.058 48.429 351.913 49.6827 347.538 52.0252C343.163 54.3678 339.756 57.694 337.746 61.5836C335.737 65.4733 335.215 69.7516 336.247 73.8781C337.279 78.0046 339.819 81.7939 343.546 84.7672C347.272 87.7405 352.018 89.7644 357.183 90.583C362.349 91.4016 367.702 90.9782 372.566 89.3664C377.431 87.7546 381.588 85.0266 384.513 81.5272C387.437 78.0279 388.998 73.9142 388.998 69.7061C388.988 64.0584 386.173 58.6449 381.171 54.6544C376.17 50.6639 369.391 48.4226 362.324 48.4226ZM362.324 84.7355C358.605 84.7243 354.973 83.8327 351.888 82.1732C348.802 80.5137 346.401 78.1608 344.988 75.4117C343.575 72.6625 343.213 69.6404 343.948 66.7269C344.683 63.8134 346.482 61.1393 349.117 59.0423C351.753 56.9452 355.107 55.5193 358.756 54.9446C362.405 54.3698 366.185 54.672 369.619 55.8131C373.053 56.9541 375.987 58.8828 378.051 61.3555C380.114 63.8282 381.214 66.7341 381.212 69.7061C381.207 71.684 380.714 73.6418 379.762 75.4675C378.81 77.2933 377.417 78.9513 375.663 80.3469C373.909 81.7425 371.829 82.8484 369.54 83.6013C367.251 84.3543 364.799 84.7397 362.324 84.7355Z" fill="black"/>
</g>
<path d="M362.324 48.4226C357.058 48.429 351.913 49.6827 347.538 52.0252C343.163 54.3678 339.756 57.694 337.746 61.5836C335.737 65.4733 335.215 69.7516 336.247 73.8781C337.279 78.0046 339.819 81.7939 343.546 84.7672C347.272 87.7405 352.018 89.7644 357.183 90.583C362.349 91.4016 367.702 90.9782 372.566 89.3664C377.431 87.7546 381.588 85.0266 384.513 81.5272C387.437 78.0279 388.998 73.9142 388.998 69.7061C388.988 64.0584 386.173 58.6449 381.171 54.6544C376.17 50.6639 369.391 48.4226 362.324 48.4226ZM362.324 84.7355C358.605 84.7243 354.973 83.8327 351.888 82.1732C348.802 80.5137 346.401 78.1608 344.988 75.4117C343.575 72.6625 343.213 69.6404 343.948 66.7269C344.683 63.8134 346.482 61.1393 349.117 59.0423C351.753 56.9452 355.107 55.5193 358.756 54.9446C362.405 54.3698 366.185 54.672 369.619 55.8131C373.053 56.9541 375.987 58.8828 378.051 61.3555C380.114 63.8282 381.214 66.7341 381.212 69.7061C381.207 71.6841 380.714 73.6418 379.762 75.4675C378.81 77.2933 377.417 78.9513 375.663 80.3469C373.909 81.7425 371.829 82.8484 369.54 83.6013C367.251 84.3543 364.799 84.7397 362.324 84.7355Z" stroke="#263238" stroke-width="0.263962" stroke-miterlimit="10"/>
<path d="M362.324 48.4227C358.724 48.4111 355.16 48.9862 351.848 50.113C348.536 51.2397 345.546 52.8944 343.061 54.9759L348.714 59.2988C350.865 57.4988 353.542 56.1533 356.504 55.3831C359.465 54.6128 362.62 54.4418 365.685 54.8854C368.75 55.329 371.629 56.3733 374.065 57.9248C376.501 59.4763 378.417 61.4864 379.642 63.775C380.866 66.0637 381.361 68.5594 381.082 71.0385C380.803 73.5175 379.758 75.9025 378.042 77.9797C376.326 80.0569 373.992 81.7614 371.248 82.9405C368.505 84.1196 365.439 84.7364 362.324 84.7356V90.9817C365.865 91.0368 369.383 90.5272 372.675 89.4825C375.966 88.4379 378.963 86.8793 381.492 84.8978C384.02 82.9164 386.028 80.5519 387.4 77.9427C388.771 75.3336 389.477 72.5321 389.477 69.7022C389.477 66.8723 388.771 64.0708 387.4 61.4617C386.028 58.8525 384.02 56.488 381.492 54.5066C378.963 52.5251 375.966 50.9665 372.675 49.9219C369.383 48.8773 365.865 48.3676 362.324 48.4227Z" fill="#263238" stroke="#263238" stroke-width="0.263962" stroke-linecap="round" stroke-linejoin="round"/>
<path d="M428.11 48.4226C422.844 48.429 417.699 49.6827 413.324 52.0252C408.949 54.3678 405.542 57.694 403.532 61.5836C401.523 65.4733 401.001 69.7516 402.033 73.8781C403.065 78.0046 405.605 81.7939 409.332 84.7672C413.058 87.7405 417.804 89.7644 422.969 90.583C428.135 91.4016 433.488 90.9782 438.352 89.3664C443.217 87.7546 447.374 85.0266 450.299 81.5272C453.223 78.0279 454.784 73.9142 454.784 69.7061C454.774 64.0584 451.959 58.6449 446.957 54.6544C441.956 50.6639 435.178 48.4226 428.11 48.4226ZM428.11 84.7355C424.388 84.7339 420.751 83.8504 417.657 82.1967C414.564 80.5431 412.153 78.1935 410.731 75.4451C409.309 72.6968 408.938 69.6731 409.666 66.7565C410.394 63.8398 412.188 61.1611 414.821 59.0593C417.454 56.9574 420.808 55.5266 424.459 54.948C428.11 54.3693 431.893 54.6687 435.331 55.8084C438.768 56.948 441.706 58.8766 443.772 61.3504C445.838 63.8242 446.94 66.732 446.938 69.7061C446.924 73.6917 444.936 77.5107 441.407 80.3274C437.879 83.1441 433.097 84.7291 428.11 84.7355Z" fill="#407BFF" stroke="#263238" stroke-width="0.263962" stroke-miterlimit="10"/>
<g opacity="0.2">
<path d="M428.11 48.4226C422.844 48.429 417.699 49.6827 413.324 52.0252C408.949 54.3678 405.542 57.694 403.532 61.5836C401.523 65.4733 401.001 69.7516 402.033 73.8781C403.065 78.0046 405.605 81.7939 409.332 84.7672C413.058 87.7405 417.804 89.7644 422.969 90.583C428.135 91.4016 433.488 90.9782 438.352 89.3664C443.217 87.7546 447.374 85.0266 450.299 81.5272C453.223 78.0279 454.784 73.9142 454.784 69.7061C454.774 64.0584 451.959 58.6449 446.957 54.6544C441.956 50.6639 435.178 48.4226 428.11 48.4226ZM428.11 84.7355C424.388 84.7339 420.751 83.8504 417.657 82.1967C414.564 80.5431 412.153 78.1935 410.731 75.4451C409.309 72.6968 408.938 69.6731 409.666 66.7565C410.394 63.8398 412.188 61.1611 414.821 59.0593C417.454 56.9574 420.808 55.5266 424.459 54.948C428.11 54.3693 431.893 54.6687 435.331 55.8084C438.768 56.948 441.706 58.8766 443.772 61.3504C445.838 63.8242 446.94 66.732 446.938 69.7061C446.924 73.6917 444.936 77.5107 441.407 80.3274C437.879 83.1441 433.097 84.7291 428.11 84.7355Z" fill="black"/>
</g>
<path d="M428.11 48.4226C422.844 48.429 417.699 49.6827 413.324 52.0252C408.949 54.3678 405.542 57.694 403.532 61.5836C401.523 65.4733 401.001 69.7516 402.033 73.8781C403.065 78.0046 405.605 81.7939 409.332 84.7672C413.058 87.7405 417.804 89.7644 422.969 90.583C428.135 91.4016 433.488 90.9782 438.352 89.3664C443.217 87.7546 447.374 85.0266 450.299 81.5272C453.223 78.0279 454.784 73.9142 454.784 69.7061C454.774 64.0584 451.959 58.6449 446.957 54.6544C441.956 50.6639 435.178 48.4226 428.11 48.4226ZM428.11 84.7355C424.388 84.7339 420.751 83.8504 417.657 82.1967C414.564 80.5431 412.153 78.1935 410.731 75.4451C409.309 72.6968 408.938 69.6731 409.666 66.7565C410.394 63.8398 412.188 61.1611 414.821 59.0593C417.454 56.9574 420.808 55.5266 424.459 54.948C428.11 54.3693 431.893 54.6687 435.331 55.8084C438.768 56.948 441.706 58.8766 443.772 61.3504C445.838 63.8242 446.94 66.732 446.938 69.7061C446.924 73.6917 444.936 77.5107 441.407 80.3274C437.879 83.1441 433.097 84.7291 428.11 84.7355Z" stroke="#263238" stroke-width="0.263962" stroke-miterlimit="10"/>
<path d="M438.495 50.0952L435.461 55.8484C439.461 57.2001 442.752 59.6157 444.777 62.6854C446.802 65.7551 447.437 69.29 446.572 72.6907C445.708 76.0914 443.399 79.1486 440.036 81.3439C436.672 83.5392 432.463 84.7374 428.12 84.7355V90.9815C434.273 90.9928 440.24 89.3011 445.008 86.194C449.775 83.0869 453.05 78.7561 454.273 73.938C455.497 69.1199 454.595 64.1118 451.72 59.7651C448.846 55.4185 444.176 52.0015 438.505 50.0952H438.495Z" fill="#263238" stroke="#263238" stroke-width="0.263962" stroke-linecap="round" stroke-linejoin="round"/>
<path d="M451.306 28.4238H341.393C339.479 28.4228 337.584 28.7229 335.816 29.3071C334.048 29.8912 332.441 30.748 331.087 31.8285C329.733 32.9089 328.658 34.1919 327.925 35.6042C327.192 37.0165 326.813 38.5304 326.812 40.0595V112.92C326.817 116.006 328.356 118.965 331.09 121.145C333.825 123.326 337.53 124.549 341.393 124.547H451.306C453.219 124.549 455.114 124.25 456.882 123.667C458.65 123.083 460.257 122.227 461.612 121.148C462.966 120.068 464.04 118.785 464.774 117.374C465.507 115.962 465.886 114.448 465.887 112.92V40.0595C465.886 38.5304 465.507 37.0165 464.774 35.6042C464.041 34.1919 462.966 32.9089 461.612 31.8285C460.258 30.748 458.651 29.8912 456.883 29.3071C455.115 28.7229 453.22 28.4228 451.306 28.4238Z" stroke="#263238" stroke-width="0.263962" stroke-miterlimit="10"/>
<path d="M338.622 97.9712H380.525" stroke="#263238" stroke-width="0.263962" stroke-miterlimit="10"/>
<path d="M338.622 101.551H380.525" stroke="#263238" stroke-width="0.263962" stroke-miterlimit="10"/>
<path d="M338.622 105.13H380.525" stroke="#263238" stroke-width="0.263962" stroke-miterlimit="10"/>
<path d="M338.622 108.718H380.525" stroke="#263238" stroke-width="0.263962" stroke-miterlimit="10"/>
<path d="M338.622 112.297H380.525" stroke="#263238" stroke-width="0.263962" stroke-miterlimit="10"/>
<path d="M407.826 97.9712H449.739" stroke="#263238" stroke-width="0.263962" stroke-miterlimit="10"/>
<path d="M407.826 101.551H449.739" stroke="#263238" stroke-width="0.263962" stroke-miterlimit="10"/>
<path d="M407.826 105.13H449.739" stroke="#263238" stroke-width="0.263962" stroke-miterlimit="10"/>
<path d="M407.826 108.718H449.739" stroke="#263238" stroke-width="0.263962" stroke-miterlimit="10"/>
<path d="M407.826 112.297H449.739" stroke="#263238" stroke-width="0.263962" stroke-miterlimit="10"/>
<path d="M373.993 38.2898H415.895" stroke="#263238" stroke-width="0.263962" stroke-miterlimit="10"/>
<path d="M373.993 41.8774H415.895" stroke="#263238" stroke-width="0.263962" stroke-miterlimit="10"/>
<path d="M326.367 259.246H450.416C454.515 259.248 458.447 257.949 461.348 255.636C464.249 253.322 465.882 250.182 465.887 246.907V142.501C465.886 140.879 465.484 139.273 464.706 137.774C463.928 136.276 462.788 134.914 461.352 133.768C459.915 132.621 458.21 131.712 456.334 131.092C454.457 130.472 452.447 130.154 450.416 130.155H267.194C265.164 130.154 263.153 130.472 261.277 131.092C259.4 131.712 257.695 132.621 256.259 133.768C254.822 134.914 253.682 136.276 252.904 137.774C252.126 139.273 251.725 140.879 251.723 142.501V211.297" stroke="#263238" stroke-width="0.263962" stroke-miterlimit="10"/>
<path d="M311.726 191.04H282.22V225.309H311.726V191.04Z" fill="#407BFF" stroke="#263238" stroke-width="0.288179" stroke-miterlimit="10"/>
<path opacity="0.2" d="M311.726 191.04H282.22V225.309H311.726V191.04Z" fill="black"/>
<path d="M311.726 191.04H282.22V225.309H311.726V191.04Z" stroke="#263238" stroke-width="0.288179" stroke-miterlimit="10"/>
<path d="M352.698 173.901H323.192V211.838H352.698V173.901Z" fill="#407BFF" stroke="#263238" stroke-width="0.288179" stroke-miterlimit="10"/>
<path opacity="0.2" d="M352.698 173.901H323.192V211.838H352.698V173.901Z" fill="black"/>
<path d="M352.698 173.901H323.192V211.838H352.698V173.901Z" stroke="#263238" stroke-width="0.288179" stroke-miterlimit="10"/>
<path d="M393.67 159.834H364.164V184.923H393.67V159.834Z" fill="#407BFF" stroke="#263238" stroke-width="0.288179" stroke-miterlimit="10"/>
<path opacity="0.2" d="M393.67 159.834H364.164V184.923H393.67V159.834Z" fill="black"/>
<path d="M393.67 159.834H364.164V184.923H393.67V159.834Z" stroke="#263238" stroke-width="0.288179" stroke-miterlimit="10"/>
<path d="M311.726 225.3H282.22V239.376H311.726V225.3Z" fill="#263238" stroke="#263238" stroke-width="0.288179" stroke-linecap="round" stroke-linejoin="round"/>
<path d="M352.698 211.838H323.192V239.376H352.698V211.838Z" fill="#263238" stroke="#263238" stroke-width="0.288179" stroke-linecap="round" stroke-linejoin="round"/>
<path d="M432.226 173.901H402.72V211.838H432.226V173.901Z" fill="#407BFF" stroke="#263238" stroke-width="0.288179" stroke-miterlimit="10"/>
<path opacity="0.2" d="M432.226 173.901H402.72V211.838H432.226V173.901Z" fill="black"/>
<path d="M432.226 173.901H402.72V211.838H432.226V173.901Z" stroke="#263238" stroke-width="0.288179" stroke-miterlimit="10"/>
<path d="M432.226 211.838H402.72V239.376H432.226V211.838Z" fill="#263238" stroke="#263238" stroke-width="0.288179" stroke-linecap="round" stroke-linejoin="round"/>
<path d="M393.67 184.915H364.164V239.376H393.67V184.915Z" fill="#263238" stroke="#263238" stroke-width="0.288179" stroke-linecap="round" stroke-linejoin="round"/>
<path d="M347.581 159.882H329.168C328.323 159.882 327.513 160.15 326.916 160.628C326.319 161.105 325.983 161.753 325.983 162.428V165.813C325.983 166.488 326.319 167.136 326.916 167.613C327.513 168.09 328.323 168.359 329.168 168.359H335.994L338.38 171.655L340.756 168.359H347.581C348.426 168.359 349.236 168.09 349.834 167.613C350.431 167.136 350.767 166.488 350.767 165.813V162.428C350.767 161.753 350.431 161.105 349.834 160.628C349.236 160.15 348.426 159.882 347.581 159.882Z" fill="#407BFF"/>
<mask id="mask0_256_7337" style="mask-type:luminance" maskUnits="userSpaceOnUse" x="325" y="159" width="26" height="13">
<path d="M347.581 159.882H329.168C328.323 159.882 327.513 160.15 326.916 160.628C326.319 161.105 325.983 161.753 325.983 162.428V165.813C325.983 166.488 326.319 167.136 326.916 167.613C327.513 168.09 328.323 168.359 329.168 168.359H335.994L338.38 171.655L340.756 168.359H347.581C348.426 168.359 349.236 168.09 349.834 167.613C350.431 167.136 350.767 166.488 350.767 165.813V162.428C350.767 161.753 350.431 161.105 349.834 160.628C349.236 160.15 348.426 159.882 347.581 159.882Z" fill="white"/>
</mask>
<g mask="url(#mask0_256_7337)">
<path opacity="0.5" d="M347.581 159.882H329.168C328.323 159.882 327.513 160.15 326.916 160.628C326.319 161.105 325.983 161.753 325.983 162.428V165.813C325.983 166.488 326.319 167.136 326.916 167.613C327.513 168.09 328.323 168.359 329.168 168.359H335.994L338.38 171.655L340.756 168.359H347.581C348.426 168.359 349.236 168.09 349.834 167.613C350.431 167.136 350.767 166.488 350.767 165.813V162.428C350.767 161.753 350.431 161.105 349.834 160.628C349.236 160.15 348.426 159.882 347.581 159.882Z" fill="white"/>
</g>
<path d="M347.581 159.882H329.168C328.323 159.882 327.513 160.15 326.916 160.628C326.319 161.105 325.983 161.753 325.983 162.428V165.813C325.983 166.488 326.319 167.136 326.916 167.613C327.513 168.09 328.323 168.359 329.168 168.359H335.994L338.38 171.655L340.756 168.359H347.581C348.426 168.359 349.236 168.09 349.834 167.613C350.431 167.136 350.767 166.488 350.767 165.813V162.428C350.767 161.753 350.431 161.105 349.834 160.628C349.236 160.15 348.426 159.882 347.581 159.882Z" stroke="#263238" stroke-width="0.289734" stroke-linecap="round" stroke-linejoin="round"/>
<path d="M306.174 177.457H287.771C286.928 177.457 286.12 177.724 285.523 178.2C284.926 178.675 284.589 179.321 284.586 179.994V183.388C284.589 184.062 284.926 184.707 285.523 185.183C286.12 185.658 286.928 185.925 287.771 185.925H294.586L296.973 189.222L299.359 185.925H306.174C307.017 185.925 307.826 185.658 308.423 185.183C309.02 184.707 309.357 184.062 309.359 183.388V179.994C309.357 179.321 309.02 178.675 308.423 178.2C307.826 177.724 307.017 177.457 306.174 177.457Z" fill="#407BFF"/>
<mask id="mask1_256_7337" style="mask-type:luminance" maskUnits="userSpaceOnUse" x="284" y="177" width="26" height="13">
<path d="M306.174 177.457H287.771C286.928 177.457 286.12 177.724 285.523 178.2C284.926 178.675 284.589 179.321 284.586 179.994V183.388C284.589 184.062 284.926 184.707 285.523 185.183C286.12 185.658 286.928 185.925 287.771 185.925H294.586L296.973 189.222L299.359 185.925H306.174C307.017 185.925 307.826 185.658 308.423 185.183C309.02 184.707 309.357 184.062 309.359 183.388V179.994C309.357 179.321 309.02 178.675 308.423 178.2C307.826 177.724 307.017 177.457 306.174 177.457Z" fill="white"/>
</mask>
<g mask="url(#mask1_256_7337)">
<path opacity="0.5" d="M306.174 177.457H287.771C286.928 177.457 286.12 177.724 285.523 178.2C284.926 178.675 284.589 179.321 284.586 179.994V183.388C284.589 184.062 284.926 184.707 285.523 185.183C286.12 185.658 286.928 185.925 287.771 185.925H294.586L296.973 189.222L299.359 185.925H306.174C307.017 185.925 307.826 185.658 308.423 185.183C309.02 184.707 309.357 184.062 309.359 183.388V179.994C309.357 179.321 309.02 178.675 308.423 178.2C307.826 177.724 307.017 177.457 306.174 177.457Z" fill="white"/>
</g>
<path d="M306.174 177.457H287.771C286.928 177.457 286.12 177.724 285.523 178.2C284.926 178.675 284.589 179.321 284.586 179.994V183.388C284.589 184.062 284.926 184.707 285.523 185.183C286.12 185.658 286.928 185.925 287.771 185.925H294.586L296.973 189.222L299.359 185.925H306.174C307.017 185.925 307.826 185.658 308.423 185.183C309.02 184.707 309.357 184.062 309.359 183.388V179.994C309.357 179.321 309.02 178.675 308.423 178.2C307.826 177.724 307.017 177.457 306.174 177.457Z" stroke="#263238" stroke-width="0.289734" stroke-linecap="round" stroke-linejoin="round"/>
<path d="M387.937 145.766H369.523C368.679 145.766 367.868 146.034 367.271 146.512C366.674 146.989 366.338 147.636 366.338 148.311V151.697C366.338 152.031 366.421 152.362 366.581 152.67C366.741 152.978 366.976 153.258 367.272 153.494C367.568 153.73 367.919 153.916 368.305 154.043C368.692 154.17 369.106 154.235 369.523 154.234H376.349L378.725 157.531L381.111 154.234H387.937C388.354 154.235 388.768 154.17 389.155 154.043C389.541 153.916 389.892 153.73 390.188 153.494C390.484 153.258 390.719 152.978 390.879 152.67C391.039 152.362 391.122 152.031 391.122 151.697V148.311C391.122 147.636 390.786 146.989 390.189 146.512C389.592 146.034 388.781 145.766 387.937 145.766Z" fill="#407BFF"/>
<mask id="mask2_256_7337" style="mask-type:luminance" maskUnits="userSpaceOnUse" x="366" y="145" width="26" height="13">
<path d="M387.937 145.766H369.523C368.679 145.766 367.868 146.034 367.271 146.512C366.674 146.989 366.338 147.636 366.338 148.311V151.697C366.338 152.031 366.421 152.362 366.581 152.67C366.741 152.978 366.976 153.258 367.272 153.494C367.568 153.73 367.919 153.916 368.305 154.043C368.692 154.17 369.106 154.235 369.523 154.234H376.349L378.725 157.531L381.111 154.234H387.937C388.354 154.235 388.768 154.17 389.155 154.043C389.541 153.916 389.892 153.73 390.188 153.494C390.484 153.258 390.719 152.978 390.879 152.67C391.039 152.362 391.122 152.031 391.122 151.697V148.311C391.122 147.636 390.786 146.989 390.189 146.512C389.592 146.034 388.781 145.766 387.937 145.766Z" fill="white"/>
</mask>
<g mask="url(#mask2_256_7337)">
<path opacity="0.5" d="M387.937 145.766H369.523C368.679 145.766 367.868 146.034 367.271 146.512C366.674 146.989 366.338 147.636 366.338 148.311V151.697C366.338 152.031 366.421 152.362 366.581 152.67C366.741 152.978 366.976 153.258 367.272 153.494C367.568 153.73 367.919 153.916 368.305 154.043C368.692 154.17 369.106 154.235 369.523 154.234H376.349L378.725 157.531L381.111 154.234H387.937C388.354 154.235 388.768 154.17 389.155 154.043C389.541 153.916 389.892 153.73 390.188 153.494C390.484 153.258 390.719 152.978 390.879 152.67C391.039 152.362 391.122 152.031 391.122 151.697V148.311C391.122 147.636 390.786 146.989 390.189 146.512C389.592 146.034 388.781 145.766 387.937 145.766Z" fill="white"/>
</g>
<path d="M387.937 145.766H369.523C368.679 145.766 367.868 146.034 367.271 146.512C366.674 146.989 366.338 147.636 366.338 148.311V151.697C366.338 152.031 366.421 152.362 366.581 152.67C366.741 152.978 366.976 153.258 367.272 153.494C367.568 153.73 367.919 153.916 368.305 154.043C368.692 154.17 369.106 154.235 369.523 154.234H376.349L378.725 157.531L381.111 154.234H387.937C388.354 154.235 388.768 154.17 389.155 154.043C389.541 153.916 389.892 153.73 390.188 153.494C390.484 153.258 390.719 152.978 390.879 152.67C391.039 152.362 391.122 152.031 391.122 151.697V148.311C391.122 147.636 390.786 146.989 390.189 146.512C389.592 146.034 388.781 145.766 387.937 145.766Z" stroke="#263238" stroke-width="0.289734" stroke-linecap="round" stroke-linejoin="round"/>
<path d="M426.715 159.664H408.311C407.467 159.664 406.657 159.932 406.059 160.41C405.462 160.887 405.126 161.534 405.126 162.209V165.595C405.126 165.929 405.209 166.259 405.369 166.568C405.529 166.876 405.764 167.156 406.06 167.392C406.356 167.628 406.707 167.814 407.093 167.941C407.48 168.068 407.894 168.133 408.311 168.132H415.127L417.513 171.429L419.899 168.132H426.715C427.133 168.133 427.547 168.068 427.934 167.942C428.321 167.815 428.673 167.628 428.97 167.392C429.267 167.157 429.502 166.877 429.664 166.568C429.825 166.26 429.909 165.929 429.91 165.595V162.209C429.907 161.534 429.569 160.886 428.97 160.409C428.372 159.932 427.56 159.664 426.715 159.664Z" fill="#407BFF"/>
<mask id="mask3_256_7337" style="mask-type:luminance" maskUnits="userSpaceOnUse" x="405" y="159" width="25" height="13">
<path d="M426.715 159.664H408.311C407.467 159.664 406.657 159.932 406.059 160.41C405.462 160.887 405.126 161.534 405.126 162.209V165.595C405.126 165.929 405.209 166.259 405.369 166.568C405.529 166.876 405.764 167.156 406.06 167.392C406.356 167.628 406.707 167.814 407.093 167.941C407.48 168.068 407.894 168.133 408.311 168.132H415.127L417.513 171.429L419.899 168.132H426.715C427.133 168.133 427.547 168.068 427.934 167.942C428.321 167.815 428.673 167.628 428.97 167.392C429.267 167.157 429.502 166.877 429.664 166.568C429.825 166.26 429.909 165.929 429.91 165.595V162.209C429.907 161.534 429.569 160.886 428.97 160.409C428.372 159.932 427.56 159.664 426.715 159.664Z" fill="white"/>
</mask>
<g mask="url(#mask3_256_7337)">
<path opacity="0.5" d="M426.715 159.664H408.311C407.467 159.664 406.657 159.932 406.059 160.41C405.462 160.887 405.126 161.534 405.126 162.209V165.595C405.126 165.929 405.209 166.259 405.369 166.568C405.529 166.876 405.764 167.156 406.06 167.392C406.356 167.628 406.707 167.814 407.093 167.941C407.48 168.068 407.894 168.133 408.311 168.132H415.127L417.513 171.429L419.899 168.132H426.715C427.133 168.133 427.547 168.068 427.934 167.942C428.321 167.815 428.673 167.628 428.97 167.392C429.267 167.157 429.502 166.877 429.664 166.568C429.825 166.26 429.909 165.929 429.91 165.595V162.209C429.907 161.534 429.569 160.886 428.97 160.409C428.372 159.932 427.56 159.664 426.715 159.664Z" fill="white"/>
</g>
<path d="M426.715 159.664H408.311C407.467 159.664 406.657 159.932 406.059 160.41C405.462 160.887 405.126 161.534 405.126 162.209V165.595C405.126 165.929 405.209 166.259 405.369 166.568C405.529 166.876 405.764 167.156 406.06 167.392C406.356 167.628 406.707 167.814 407.093 167.941C407.48 168.068 407.894 168.133 408.311 168.132H415.127L417.513 171.429L419.899 168.132H426.715C427.133 168.133 427.547 168.068 427.934 167.942C428.321 167.815 428.673 167.628 428.97 167.392C429.267 167.157 429.502 166.877 429.664 166.568C429.825 166.26 429.909 165.929 429.91 165.595V162.209C429.907 161.534 429.569 160.886 428.97 160.409C428.372 159.932 427.56 159.664 426.715 159.664Z" stroke="#263238" stroke-width="0.289734" stroke-linecap="round" stroke-linejoin="round"/>
<path d="M283.221 140.95H325.134" stroke="#263238" stroke-width="0.263962" stroke-miterlimit="10"/>
<path d="M283.221 144.53H325.134" stroke="#263238" stroke-width="0.263962" stroke-miterlimit="10"/>
<path d="M283.221 148.118H325.134" stroke="#263238" stroke-width="0.263962" stroke-miterlimit="10"/>
<path d="M283.221 151.697H325.134" stroke="#263238" stroke-width="0.263962" stroke-miterlimit="10"/>
<path d="M283.221 155.276H325.134" stroke="#263238" stroke-width="0.263962" stroke-miterlimit="10"/>
<path d="M58.3287 198.07C57.7725 198.603 57.2063 199.169 56.5996 199.815C49.0766 207.895 52.9999 224.864 48.4294 231.126C43.859 237.389 32.4127 235.595 30.1274 245.437C27.8422 255.278 29.1163 265.556 27.185 270.485C25.2536 275.414 17.7104 278.566 16.3959 284.351C15.0814 290.137 14.687 294.33 14.687 294.33L58.3287 293.183V198.07Z" fill="#407BFF"/>
<path opacity="0.7" d="M58.3287 198.07C57.7725 198.603 57.2063 199.169 56.5996 199.815C49.0766 207.895 52.9999 224.864 48.4294 231.126C43.859 237.389 32.4127 235.595 30.1274 245.437C27.8422 255.278 29.1163 265.556 27.185 270.485C25.2536 275.414 17.7104 278.566 16.3959 284.351C15.0814 290.137 14.687 294.33 14.687 294.33L58.3287 293.183V198.07Z" fill="white"/>
<path d="M213.522 293.546L168.707 297.683L182.469 307.865L213.37 305.723" fill="#263238"/>
<path d="M213.522 293.546L168.707 297.683L182.469 307.865L213.37 305.723" stroke="#263238" stroke-width="0.240811" stroke-linecap="round" stroke-linejoin="round"/>
<path d="M183.318 299.308L212.025 296.803" stroke="white" stroke-width="0.120405" stroke-linecap="round" stroke-linejoin="round"/>
<path d="M185.563 301.813L211.58 300.027" stroke="white" stroke-width="0.120405" stroke-linecap="round" stroke-linejoin="round"/>
<path d="M188.253 303.962L212.025 302.168" stroke="white" stroke-width="0.120405" stroke-linecap="round" stroke-linejoin="round"/>
<path d="M186.18 297.837L194.36 304.964" stroke="white" stroke-width="0.120405" stroke-linecap="round" stroke-linejoin="round"/>
<path d="M192.237 297.603L200.366 304.317" stroke="white" stroke-width="0.120405" stroke-linecap="round" stroke-linejoin="round"/>
<path d="M198.526 296.884L206.646 303.599" stroke="white" stroke-width="0.120405" stroke-linecap="round" stroke-linejoin="round"/>
<path d="M205.25 296.528L212.025 302.168" stroke="white" stroke-width="0.120405" stroke-linecap="round" stroke-linejoin="round"/>
<path d="M167.696 208.752C166.219 208.251 159.384 186.991 159.384 186.991L155.865 178.976C155.865 178.976 150.577 164.552 148.554 161.87C146.532 159.187 138.443 157.022 138.443 157.022L135.409 155.688L122.264 150.032V150.089L120.373 146.929L97.7436 132.385C97.7436 132.385 98.1481 135.892 98.7548 139.35C98.6941 139.35 94.0428 141.774 92.3845 143.899C92.071 144.295 91.798 145.144 90.5442 147.366C85.4884 149.45 66.4482 157.426 60.1487 161.312C52.7571 165.861 51.4123 169.077 51.746 171.76L52.0898 176.043C52.0898 176.043 55.2446 191.395 58.5308 198.966L58.1264 198.813L58.0152 293.045L152.69 290.177L152.842 220.177C156.077 219.329 159.445 218.335 161.477 217.616L161.983 217.979L166.25 220.476C166.936 220.888 167.732 221.168 168.576 221.293C169.42 221.417 170.288 221.384 171.113 221.195C172.923 220.783 171.791 219.07 170.476 218.505C169.479 217.966 168.532 217.369 167.645 216.719L163.702 212.792C166.068 213.131 169.86 213.665 171.437 213.842C173.783 214.109 176.806 214.65 177.14 212.226C177.474 209.802 170.052 209.56 167.696 208.752Z" fill="white"/>
<path d="M97.855 132.417C97.855 132.417 99.1392 143.811 99.9784 145.863C100.737 147.722 104.569 157.862 107.926 162.412C111.283 166.961 115.378 166.452 116.015 161.345C116.652 156.238 116.329 147.956 116.329 147.956" stroke="#263238" stroke-width="0.240811" stroke-linecap="round" stroke-linejoin="round"/>
<path d="M98.6234 139.617C98.6234 139.617 94.1642 141.79 92.4857 143.932C90.8072 146.073 83.7493 165.894 83.7493 165.894L97.1775 166.435L85.7615 170.475" stroke="#263238" stroke-width="0.240811" stroke-linecap="round" stroke-linejoin="round"/>
<path d="M86.1052 172.859C86.1052 172.859 97.5212 187.865 99.1997 189.481C100.231 190.481 101.129 191.564 101.879 192.713" stroke="#263238" stroke-width="0.240811" stroke-linecap="round" stroke-linejoin="round"/>
<path d="M99.5334 144.23C99.5334 144.23 105.236 162.985 108.634 172.891C112.031 182.798 115.277 195.136 115.277 195.136" stroke="#263238" stroke-width="0.240811" stroke-linecap="round" stroke-linejoin="round"/>
<path d="M116.288 150.097C116.288 150.097 117.633 171.792 117.633 180.365V194.021" stroke="#263238" stroke-width="0.240811" stroke-linecap="round" stroke-linejoin="round"/>
<path d="M121.021 147.948L130.091 162.686L122.699 164.561L134.115 169.643L123.71 195.63" stroke="#263238" stroke-width="0.240811" stroke-linecap="round" stroke-linejoin="round"/>
<path d="M122.365 150.097L135.46 155.721" stroke="#263238" stroke-width="0.240811" stroke-linecap="round" stroke-linejoin="round"/>
<path d="M145.875 172.059L147.553 197.237" stroke="#263238" stroke-width="0.240811" stroke-linecap="round" stroke-linejoin="round"/>
<path d="M90.4635 147.414C90.4635 147.414 67.6315 156.787 60.25 161.344C52.8686 165.902 51.5136 169.11 51.8473 171.792" stroke="#263238" stroke-width="0.240811" stroke-linecap="round" stroke-linejoin="round"/>
<path d="M58.2275 198.845V292.593" stroke="#263238" stroke-width="0.240811" stroke-linecap="round" stroke-linejoin="round"/>
<path d="M117.33 221.882V289.118" stroke="#263238" stroke-width="0.240811" stroke-linecap="round" stroke-linejoin="round"/>
<path d="M66.428 170.459C66.428 170.459 74.133 172.616 77.5507 177.844" stroke="#263238" stroke-width="0.240811" stroke-linecap="round" stroke-linejoin="round"/>
<path d="M71.4333 170.152C71.4333 170.152 78.3699 172.309 81.454 177.537" stroke="#263238" stroke-width="0.240811" stroke-linecap="round" stroke-linejoin="round"/>
<path d="M66.8124 256.199H92.3745V260.207H67.7224" stroke="#263238" stroke-width="0.240811" stroke-linecap="round" stroke-linejoin="round"/>
<path d="M161.336 190.531C158.929 185.683 156.917 181.643 155.865 178.984C155.921 180.596 155.565 182.199 154.819 183.697C154.073 185.194 152.953 186.555 151.527 187.695C144.55 193.141 142.579 191.25 142.892 198.813C143.205 206.377 146.937 209.811 144.601 216.259C142.265 222.707 132.103 229.074 132.467 240.241C132.598 242.69 133.45 245.079 134.954 247.214L92.8699 292.1L153.054 290.686V226.472L161.336 190.531Z" fill="#407BFF"/>
<path opacity="0.7" d="M161.336 190.531C158.929 185.683 156.917 181.643 155.865 178.984C155.921 180.596 155.565 182.199 154.819 183.697C154.073 185.194 152.953 186.555 151.527 187.695C144.55 193.141 142.579 191.25 142.892 198.813C143.205 206.377 146.937 209.811 144.601 216.259C142.265 222.707 132.103 229.074 132.467 240.241C132.598 242.69 133.45 245.079 134.954 247.214L92.8699 292.1L153.054 290.686V226.472L161.336 190.531Z" fill="white"/>
<path d="M153.105 260.005V287.907" stroke="#263238" stroke-width="0.240811" stroke-linecap="round" stroke-linejoin="round"/>
<path d="M133.478 110.18C135.501 109.913 145.562 104.823 143.883 99.7323C142.205 94.6417 128.079 88.4764 116.996 91.4338C110.32 93.21 104.153 96.031 98.8561 99.7323C98.8561 99.7323 91.4746 99.7323 88.7445 102.156C86.0143 104.58 88.0771 108.314 89.7556 110.996C91.2117 113.315 91.151 119.464 91.1106 121.056C91.019 121.052 90.9278 121.069 90.8477 121.105C90.2858 121.352 89.7954 121.692 89.4087 122.101C89.0219 122.511 88.7474 122.981 88.6029 123.48C88.1479 125.096 88.9872 127.254 91.0297 129.694C91.7093 130.61 92.6647 131.376 93.809 131.922C94.9533 132.468 96.2503 132.777 97.582 132.821C98.4579 133.627 99.1709 134.538 99.6953 135.52C100.545 137.136 109.008 147.511 113.852 147.81C114.549 147.859 115.217 147.875 115.874 147.875C120.05 147.875 123.083 146.978 124.711 145.249C126.865 142.962 132.204 133.742 132.872 129.258C132.983 128.45 133.043 127.44 133.074 126.228C133.821 125.472 134.227 124.536 134.227 123.573C134.227 122.61 133.821 121.675 133.074 120.919C132.963 116.176 132.649 111.263 132.568 110.132C132.863 110.203 133.174 110.22 133.478 110.18Z" fill="white"/>
<path d="M132.103 109.914C132.103 109.914 133.114 124.644 132.437 129.201C131.759 133.759 126.37 142.857 124.347 145.006C122.325 147.156 118.28 147.681 113.943 147.43C109.605 147.18 101.182 137.249 100.171 135.375C99.6103 134.292 98.8163 133.296 97.8246 132.433C97.8246 132.433 94.1339 132.7 91.4442 129.484C88.7545 126.268 87.7535 123.02 91.1105 121.444" stroke="#263238" stroke-width="0.240811" stroke-linecap="round" stroke-linejoin="round"/>
<path d="M117.664 124.377C117.664 124.377 120.02 121.145 122.365 123.036L124.044 131.609L118.988 132.684L119.656 136.966" stroke="#263238" stroke-width="0.240811" stroke-linecap="round" stroke-linejoin="round"/>
<path d="M112.628 128.393C115.409 128.393 117.664 126.595 117.664 124.377C117.664 122.159 115.409 120.361 112.628 120.361C109.847 120.361 107.592 122.159 107.592 124.377C107.592 126.595 109.847 128.393 112.628 128.393Z" fill="#407BFF" stroke="#263238" stroke-width="0.240811" stroke-linecap="round" stroke-linejoin="round"/>
<path opacity="0.4" d="M112.628 128.393C115.409 128.393 117.664 126.595 117.664 124.377C117.664 122.159 115.409 120.361 112.628 120.361C109.847 120.361 107.592 122.159 107.592 124.377C107.592 126.595 109.847 128.393 112.628 128.393Z" fill="white" stroke="#263238" stroke-width="0.289734" stroke-miterlimit="10"/>
<path d="M133.782 123.578C133.782 122.779 133.485 121.998 132.929 121.333C132.374 120.669 131.584 120.151 130.661 119.845C129.737 119.539 128.72 119.459 127.739 119.615C126.759 119.771 125.858 120.156 125.151 120.721C124.444 121.286 123.962 122.006 123.767 122.79C123.572 123.573 123.672 124.386 124.055 125.124C124.437 125.862 125.085 126.493 125.917 126.937C126.748 127.381 127.726 127.618 128.726 127.618C130.067 127.618 131.353 127.192 132.301 126.435C133.249 125.677 133.782 124.649 133.782 123.578Z" fill="#407BFF" stroke="#263238" stroke-width="0.240811" stroke-linecap="round" stroke-linejoin="round"/>
<path opacity="0.4" d="M133.782 123.578C133.782 122.779 133.485 121.998 132.929 121.333C132.374 120.669 131.584 120.151 130.661 119.845C129.737 119.539 128.72 119.459 127.739 119.615C126.759 119.771 125.858 120.156 125.151 120.721C124.444 121.286 123.962 122.006 123.767 122.79C123.572 123.573 123.672 124.386 124.055 125.124C124.437 125.862 125.085 126.493 125.917 126.937C126.748 127.381 127.726 127.618 128.726 127.618C130.067 127.618 131.353 127.192 132.301 126.435C133.249 125.677 133.782 124.649 133.782 123.578Z" fill="white" stroke="#263238" stroke-width="0.289734" stroke-miterlimit="10"/>
<path d="M107.592 124.377L97.5212 124.911" stroke="#263238" stroke-width="0.240811" stroke-linecap="round" stroke-linejoin="round"/>
<path d="M107.673 118.794C107.673 118.794 110.373 116.645 115.388 117.873" stroke="#263238" stroke-width="0.240811" stroke-linecap="round" stroke-linejoin="round"/>
<path d="M124.64 117.566C124.64 117.566 129.696 115.417 131.193 118.18" stroke="#263238" stroke-width="0.240811" stroke-linecap="round" stroke-linejoin="round"/>
<path d="M101.546 110.447C101.546 110.447 104.235 115.538 104.903 116.346C105.57 117.154 101.546 120.895 101.546 120.895V124.644L97.5011 124.911L93.4564 121.97L91.1105 121.428C91.1105 121.428 91.4442 113.663 89.7657 110.988C88.0872 108.314 86.075 104.524 88.7545 102.149C91.4341 99.773 98.8661 99.7245 98.8661 99.7245C104.163 96.0232 110.33 93.2022 117.006 91.426C128.129 88.4767 142.184 94.6581 143.863 99.7245C145.541 104.791 135.5 109.914 133.478 110.18C131.456 110.447 128.422 107.239 125.389 107.239H120.687C117.33 107.239 116.996 106.964 113.295 106.964C109.595 106.964 101.546 110.447 101.546 110.447Z" fill="#263238"/>
<path d="M105.752 106.051C105.752 106.051 111.485 103.514 114.357 99.191C117.229 94.8681 107.663 96.9043 105.115 99.7001C102.567 102.496 108.624 101.478 108.624 101.478" stroke="white" stroke-width="0.120405" stroke-linecap="round" stroke-linejoin="round"/>
<path d="M101.546 110.447C101.546 110.447 98.1077 113.42 93.6484 113.679" stroke="white" stroke-width="0.120405" stroke-linecap="round" stroke-linejoin="round"/>
<path d="M103.204 114.188C103.204 114.188 97.1371 116.475 93.962 116.475" stroke="white" stroke-width="0.120405" stroke-linecap="round" stroke-linejoin="round"/>
<path d="M93.9618 118.503C93.9618 118.503 98.7446 119.311 101.293 118.503" stroke="white" stroke-width="0.120405" stroke-linecap="round" stroke-linejoin="round"/>
<path d="M110.848 106.56C110.848 106.56 113.397 106.31 121.678 104.023C129.959 101.736 132.801 99.1749 127.411 95.8862" stroke="white" stroke-width="0.120405" stroke-linecap="round" stroke-linejoin="round"/>
<path d="M277.285 250.212C277.285 250.212 264.09 222.165 260.702 219.466C257.315 216.767 240.338 208.501 240.338 208.501L238.973 206.635L238.143 204.364C238.143 204.364 237.132 200.946 234.22 199.257L233.988 198.861L213.967 192.009C213.967 192.009 214.108 194.126 214.32 196.68C211.954 197.367 206.706 199.209 204.907 202.489C203.734 204.615 203.066 208.146 202.733 211.467L201.914 211.951L202.217 211.063C202.217 211.063 180.052 220.993 179.051 222.609C177.757 223.967 174.41 232.669 174.41 232.669C174.41 232.669 171.073 241.032 167.403 250.268C162.225 262.97 157.22 275.665 156.897 277.693C156.897 277.879 156.897 277.79 156.897 277.79C156.563 281.272 173.207 294.112 173.207 294.112H173.429L175.451 295.728C175.451 295.728 175.451 295.566 175.451 295.057C176.857 297.344 179.152 300.714 180.972 300.003C182.469 299.413 181.984 297.336 180.77 294.629C182.277 296.463 184.006 297.797 185.381 297.263C187.757 296.326 186.574 293.086 184.188 288.448C183.984 288.052 183.673 287.697 183.278 287.408C182.883 287.119 182.414 286.903 181.903 286.775C182.671 286.71 183.45 286.646 184.249 286.565C185.047 289.53 186.837 292.1 188.849 291.761C190.862 291.421 191.165 289.337 190.76 285.789C190.963 285.789 191.236 285.313 191.438 285.288C192.328 287.785 193.693 290.007 195.412 289.716C197.303 289.393 197.818 287.89 197.596 284.868C197.596 283.745 197.495 283.381 197.444 282.67C198.182 283.034 201.802 284.779 202.217 285.03C203.562 285.838 213.795 284.092 213.795 284.092C228.74 280.23 252.633 280.052 268.064 271.794C278.367 266.243 277.285 250.212 277.285 250.212ZM183.086 273.152L187.13 251.884L188.738 271.277L188.263 276.061L183.086 273.152Z" fill="white"/>
<path d="M179.112 222.149L203.187 210.836C203.187 210.836 204.694 200.526 207.768 199.476C207.768 199.476 211.995 196.526 216.798 197.108C219.548 197.431 221.58 194.684 223.138 189.9C223.138 180.438 222.976 168.358 222.855 160.811C221.843 157.086 220.751 154.064 220.387 152.885L209.042 149.079C209.042 149.079 206.615 142.534 194.138 141.071C181.66 139.609 168.282 150.299 166.755 157.579C165.229 164.86 174.056 172.625 170.709 176.754C167.362 180.883 153.368 186.943 149.717 193.981C146.067 201.019 146.977 205.875 146.977 205.875C146.977 205.875 157.018 217.276 154.278 221.163C151.537 225.05 135.42 228.686 135.723 240.095C136.006 250.664 149.101 258.106 163.611 259.488L179.112 222.149Z" fill="#263238"/>
<path d="M205.452 151.026C205.452 151.026 196.858 143.156 186.028 145.693C175.199 148.231 171.053 157.386 173.287 161.959C175.522 166.532 180.608 170.338 176.786 177.198C172.964 184.059 163.408 185.077 158.585 192.955C153.762 200.833 155.087 203.379 155.087 203.379" stroke="white" stroke-width="0.120405" stroke-linecap="round" stroke-linejoin="round"/>
<path d="M199.719 157.636C199.719 157.636 191.761 158.395 191.761 162.484C191.761 166.573 196.221 168.576 196.817 173.659C197.414 178.741 195.543 180.778 190.75 187.129C185.957 193.48 185.694 196.785 189.163 201.108C192.631 205.431 194.896 212.541 190.437 215.079" stroke="white" stroke-width="0.120405" stroke-linecap="round" stroke-linejoin="round"/>
<path d="M201.63 152.553C201.63 152.553 192.075 148.513 184.441 152.303C176.806 156.093 186.989 163.736 188.263 170.847C189.537 177.958 183.207 183.048 174.572 190.668C172.042 192.974 170.164 195.688 169.064 198.626C167.965 201.564 167.671 204.656 168.201 207.693" stroke="white" stroke-width="0.120405" stroke-linecap="round" stroke-linejoin="round"/>
<path d="M167.554 216.59C167.554 216.59 169.779 220.396 163.722 225.478C157.665 230.561 144.611 231.837 141.476 239.457C138.342 247.077 144.601 251.149 144.601 251.149" stroke="white" stroke-width="0.120405" stroke-linecap="round" stroke-linejoin="round"/>
<path d="M214.037 191.581C214.037 191.581 214.705 201.795 215.382 204.469C216.06 207.144 218.759 216.695 219.781 225.13C220.275 229.507 221.29 233.836 222.814 238.059C222.814 238.059 230.995 263.447 231.48 231.554C231.652 220.307 230.135 202.627 230.135 202.627L230.802 197.27" fill="white"/>
<mask id="mask4_256_7337" style="mask-type:luminance" maskUnits="userSpaceOnUse" x="214" y="191" width="18" height="57">
<path d="M214.037 191.581C214.037 191.581 214.705 201.795 215.382 204.469C216.06 207.144 218.759 216.695 219.781 225.13C220.275 229.507 221.29 233.836 222.814 238.059C222.814 238.059 230.995 263.447 231.48 231.554C231.652 220.307 230.135 202.627 230.135 202.627L230.802 197.27" fill="white"/>
</mask>
<g mask="url(#mask4_256_7337)">
<g style="mix-blend-mode:multiply" opacity="0.3">
<path d="M227.718 198.11L215.382 204.469L214.593 193.73C214.593 193.73 222.834 197.625 227.718 198.11Z" fill="#407BFF"/>
</g>
<g style="mix-blend-mode:multiply" opacity="0.3">
<path d="M230.155 202.595C230.155 202.595 229.751 220.824 228.638 228.532C228.024 233.431 228.657 238.379 230.499 243.077C230.499 243.077 232.046 214.877 230.155 202.595Z" fill="#407BFF"/>
</g>
</g>
<path d="M214.037 191.581C214.037 191.581 214.705 201.795 215.382 204.469C216.06 207.144 218.759 216.695 219.781 225.13C220.275 229.507 221.29 233.836 222.814 238.059C222.814 238.059 230.995 263.447 231.48 231.554C231.652 220.307 230.135 202.627 230.135 202.627L230.802 197.27" stroke="#263238" stroke-width="0.240811" stroke-linecap="round" stroke-linejoin="round"/>
<path d="M205.139 234.375L203.005 238.027L217.04 248.976L205.139 234.375Z" fill="#407BFF"/>
<path opacity="0.7" d="M205.139 234.375L203.005 238.027L217.04 248.976L205.139 234.375Z" fill="white"/>
<path d="M188.789 242.447C188.789 242.447 193.48 233.785 194.957 235.756C196.433 237.728 187.06 246.188 190.76 247.368C194.461 248.547 199.861 244.216 198.162 247.755C196.463 251.295 193.48 255.432 193.48 257.209C193.48 258.987 194.492 276.497 194.492 276.497L194.744 277.677L191.782 279.293C191.782 279.293 188.576 276.731 188.576 274.566C188.576 272.4 188.081 263.738 188.081 261.775C188.081 259.811 186.928 252.886 186.928 252.886L188.789 242.447Z" fill="#407BFF"/>
<path opacity="0.7" d="M188.789 242.447C188.789 242.447 193.48 233.785 194.957 235.756C196.433 237.728 187.06 246.188 190.76 247.368C194.461 248.547 199.861 244.216 198.162 247.755C196.463 251.295 193.48 255.432 193.48 257.209C193.48 258.987 194.492 276.497 194.492 276.497L194.744 277.677L191.782 279.293C191.782 279.293 188.576 276.731 188.576 274.566C188.576 272.4 188.081 263.738 188.081 261.775C188.081 259.811 187.07 252.402 187.07 252.402L188.789 242.447Z" fill="white"/>
<path d="M214.199 196.615C214.199 196.615 207.323 197.771 204.967 202.061C202.611 206.352 202.287 216.258 202.621 218.933C202.808 221.085 202.808 223.245 202.621 225.397L212.025 222.973" fill="white"/>
<mask id="mask5_256_7337" style="mask-type:luminance" maskUnits="userSpaceOnUse" x="202" y="196" width="13" height="30">
<path d="M214.199 196.615C214.199 196.615 207.323 197.771 204.967 202.061C202.611 206.352 202.287 216.258 202.621 218.933C202.808 221.085 202.808 223.245 202.621 225.397L212.025 222.973" fill="white"/>
</mask>
<g mask="url(#mask5_256_7337)">
<g style="mix-blend-mode:multiply" opacity="0.3">
<path d="M215.493 203.419C212.661 203.472 209.935 204.296 207.768 205.754C203.794 208.251 203.38 212.752 203.38 212.752C203.38 212.752 202.126 207.419 204.633 202.756C207.141 198.094 214.199 196.615 214.199 196.615L215.493 203.419Z" fill="#407BFF"/>
</g>
</g>
<path d="M214.199 196.615C214.199 196.615 207.323 197.771 204.967 202.061C202.611 206.352 202.287 216.258 202.621 218.933C202.808 221.085 202.808 223.245 202.621 225.397L212.025 222.973" stroke="#263238" stroke-width="0.240811" stroke-linecap="round" stroke-linejoin="round"/>
<path d="M214.371 223.49L203.966 232.863C203.966 232.863 211.691 242.503 215.382 245.719" stroke="#263238" stroke-width="0.240811" stroke-linecap="round" stroke-linejoin="round"/>
<path d="M240.904 244.378L246.273 228.039L236.869 222.383L244.261 220.508L238.194 203.903C238.194 203.903 237.071 199.734 233.138 198.393" stroke="#263238" stroke-width="0.240811" stroke-linecap="round" stroke-linejoin="round"/>
<path d="M219.427 215.451C219.427 215.451 222.784 218.683 226.505 218.133C230.226 217.584 230.196 215.992 230.196 215.992" stroke="#263238" stroke-width="0.240811" stroke-linecap="round" stroke-linejoin="round"/>
<mask id="mask6_256_7337" style="mask-type:luminance" maskUnits="userSpaceOnUse" x="156" y="210" width="47" height="84">
<path d="M202.288 210.634C202.288 210.634 180.123 220.541 179.112 222.149C178.101 223.757 157.291 273.863 156.957 277.329C156.623 280.796 173.409 293.934 173.409 293.934" fill="white"/>
</mask>
<g mask="url(#mask6_256_7337)">
<path d="M186.574 218.828C186.574 218.828 181.144 223.555 181.387 224.735C181.629 225.915 188.05 228.08 186.574 229.454C185.098 230.827 181.387 227.49 180.649 228.08C179.91 228.67 166.341 265.67 167.574 266.243C168.808 266.817 171.771 264.668 172.509 266.049C173.247 267.431 160.173 271.358 162.882 272.514C165.592 273.669 172.256 271.132 170.972 271.528C169.688 271.924 166.037 275.657 167.028 277.233C168.019 278.808 178.586 286.792 178.586 286.792C177.963 286.997 177.465 287.387 177.195 287.879C176.926 288.372 176.906 288.929 177.14 289.434C177.421 290.449 178.136 291.355 179.162 291.995C179.162 291.995 176.331 290.129 175.896 292.149C175.649 293.202 175.503 294.269 175.461 295.34L168.535 289.862C162.893 285.272 158.302 280.974 156.947 277.281C156.947 277.281 156.704 277.822 158.191 273.491C159.677 269.16 174.47 232.161 174.47 232.161C174.47 232.161 177.817 223.45 179.101 222.101C180.386 220.751 186.574 218.828 186.574 218.828Z" fill="#407BFF"/>
<path opacity="0.7" d="M186.574 218.828C186.574 218.828 181.144 223.555 181.387 224.735C181.63 225.915 188.05 228.08 186.574 229.454C185.098 230.827 181.387 227.49 180.649 228.08C179.911 228.67 166.341 265.67 167.574 266.243C168.808 266.817 171.771 264.668 172.509 266.049C173.247 267.431 160.173 271.358 162.883 272.514C165.593 273.669 172.256 271.132 170.972 271.528C169.688 271.924 166.037 275.657 167.028 277.233C168.019 278.808 178.586 286.792 178.586 286.792C177.964 286.997 177.465 287.387 177.195 287.879C176.926 288.372 176.906 288.929 177.14 289.434C177.421 290.449 178.136 291.355 179.162 291.995C179.162 291.995 176.331 290.129 175.896 292.149C175.461 294.169 175.239 295.494 175.239 295.494L168.535 289.838C161.538 284.254 157.21 279.851 156.947 277.257C156.947 277.257 156.128 278.485 158.191 273.467C159.94 269.201 174.47 232.136 174.47 232.136C174.47 232.136 177.817 223.426 179.102 222.076C180.386 220.727 186.574 218.828 186.574 218.828Z" fill="white"/>
<path d="M198.728 213.446V228.532L210.63 226.1L214.593 222.448L202.389 224.395L203.187 210.796L198.728 213.446Z" fill="#407BFF"/>
<path opacity="0.7" d="M198.728 213.446V228.532L210.63 226.1L214.593 222.448L202.389 224.395L203.187 210.796L198.728 213.446Z" fill="white"/>
</g>
<path d="M202.288 210.635C202.288 210.635 180.123 220.541 179.112 222.149C178.101 223.757 157.291 273.863 156.957 277.33C156.623 280.796 173.409 293.935 173.409 293.935" stroke="#263238" stroke-width="0.240811" stroke-linecap="round" stroke-linejoin="round"/>
<path d="M189.86 235.813L183.146 272.772" stroke="#263238" stroke-width="0.240811" stroke-linecap="round" stroke-linejoin="round"/>
<path d="M190.528 233.663L191.539 229.914" stroke="#263238" stroke-width="0.240811" stroke-linecap="round" stroke-linejoin="round"/>
<path d="M164.005 274.921C164.005 274.921 168.373 270.073 174.754 270.364C181.134 270.655 190.528 277.863 190.528 277.863" stroke="#263238" stroke-width="0.240811" stroke-linecap="round" stroke-linejoin="round"/>
<path d="M166.017 269.29C167.426 268.278 169.219 267.675 171.109 267.579C172.999 267.482 174.874 267.897 176.432 268.756" stroke="#263238" stroke-width="0.240811" stroke-linecap="round" stroke-linejoin="round"/>
<path d="M197.181 280.448C197.108 280.003 196.905 279.578 196.588 279.207C196.271 278.837 195.849 278.531 195.357 278.315C194.865 278.098 194.316 277.977 193.755 277.962C193.193 277.947 192.635 278.037 192.125 278.226C191.712 278.392 191.359 278.641 191.102 278.948C190.845 279.255 190.693 279.611 190.659 279.98C190.285 282.929 192.55 290.177 195.584 289.676C198.101 289.224 198.02 285.41 197.181 280.448Z" fill="white" stroke="#263238" stroke-width="0.240811" stroke-linecap="round" stroke-linejoin="round"/>
<path d="M190.427 282.59C190.352 282.145 190.148 281.721 189.83 281.351C189.513 280.982 189.091 280.677 188.599 280.461C188.107 280.246 187.558 280.126 186.998 280.111C186.437 280.096 185.88 280.187 185.371 280.376C184.957 280.539 184.603 280.786 184.346 281.092C184.089 281.398 183.937 281.753 183.905 282.121C183.53 285.07 185.795 292.318 188.829 291.817C191.387 291.365 191.306 287.559 190.427 282.59Z" fill="white" stroke="#263238" stroke-width="0.240811" stroke-linecap="round" stroke-linejoin="round"/>
<path d="M184.259 287.987C184.049 287.567 183.718 287.193 183.293 286.895C182.868 286.596 182.361 286.383 181.813 286.271C181.265 286.159 180.691 286.152 180.139 286.251C179.587 286.35 179.072 286.552 178.637 286.84C178.285 287.08 178.018 287.391 177.864 287.74C177.709 288.088 177.672 288.464 177.757 288.828C178.303 291.753 182.752 298.37 185.512 297.247C187.889 296.278 186.574 292.367 184.259 287.987Z" fill="white" stroke="#263238" stroke-width="0.240811" stroke-linecap="round" stroke-linejoin="round"/>
<path d="M179.911 293.159C179.756 292.844 179.51 292.563 179.193 292.34C178.876 292.116 178.497 291.956 178.087 291.872C177.677 291.788 177.248 291.784 176.836 291.859C176.423 291.933 176.039 292.085 175.714 292.302C175.453 292.484 175.255 292.715 175.138 292.976C175.021 293.236 174.99 293.516 175.047 293.789C175.461 295.979 178.778 300.891 180.851 300.075C182.631 299.372 181.69 296.633 179.911 293.159Z" fill="white" stroke="#263238" stroke-width="0.240811" stroke-linecap="round" stroke-linejoin="round"/>
<path d="M197.697 282.404C197.697 282.404 200.326 284.674 202.277 285.159C203.885 285.555 212.247 284.351 212.247 284.351" stroke="#263238" stroke-width="0.240811" stroke-linecap="round" stroke-linejoin="round"/>
<path d="M209.669 289.385C209.669 289.385 204.3 290.452 200.569 291.001C196.837 291.551 192.843 291.809 192.843 291.809C192.843 291.809 190.154 294.492 188.141 294.492" stroke="#263238" stroke-width="0.240811" stroke-linecap="round" stroke-linejoin="round"/>
<path d="M240.408 208.065C240.408 208.065 257.386 216.339 260.773 219.038C264.16 221.737 276.052 247.044 276.052 247.044" stroke="#263238" stroke-width="0.240811" stroke-linecap="round" stroke-linejoin="round"/>
<path d="M256.547 226.125L260.348 248.063" stroke="#263238" stroke-width="0.240811" stroke-linecap="round" stroke-linejoin="round"/>
<path d="M260.348 245.421L257.982 229.123L268.438 247.529L260.824 247.804L260.348 245.421Z" fill="#407BFF"/>
<path opacity="0.7" d="M260.348 245.421L257.982 229.123L268.438 247.529L260.824 247.804L260.348 245.421Z" fill="white"/>
<path d="M195.695 237.389L189.122 246.01L194.694 242.487" stroke="#263238" stroke-width="0.240811" stroke-linecap="round" stroke-linejoin="round"/>
<path d="M187.292 252.927C187.292 252.927 188.657 268.942 188.657 271.124C188.657 273.305 188.273 276.182 188.273 276.182" stroke="#263238" stroke-width="0.240811" stroke-linecap="round" stroke-linejoin="round"/>
<path d="M210.003 148.222C210.003 148.222 200.265 152.772 199.598 159.47C199.276 163.888 199.843 168.318 201.276 172.593C201.276 172.593 198.243 170.451 197.919 175.275C197.596 180.099 202.621 183.84 204.633 183.84H206.656C206.656 183.84 211.135 191.193 216.515 194.676C221.894 198.159 227.142 198.312 230.833 197.238C234.523 196.163 241.581 191.347 242.259 184.915C242.936 178.483 242.259 167.769 241.581 161.078C240.904 154.388 239.235 149.556 230.165 147.148C221.095 144.74 214.705 146.34 210.003 148.222Z" fill="white"/>
<mask id="mask7_256_7337" style="mask-type:luminance" maskUnits="userSpaceOnUse" x="197" y="145" width="46" height="53">
<path d="M210.003 148.222C210.003 148.222 200.265 152.772 199.598 159.47C199.276 163.888 199.843 168.318 201.276 172.593C201.276 172.593 198.243 170.451 197.919 175.275C197.596 180.099 202.621 183.84 204.633 183.84H206.656C206.656 183.84 211.135 191.193 216.515 194.676C221.894 198.159 227.142 198.312 230.833 197.238C234.523 196.163 241.581 191.347 242.259 184.915C242.936 178.483 242.259 167.769 241.581 161.078C240.904 154.388 239.235 149.556 230.165 147.148C221.095 144.74 214.705 146.34 210.003 148.222Z" fill="white"/>
</mask>
<g mask="url(#mask7_256_7337)">
<g style="mix-blend-mode:multiply" opacity="0.3">
<path d="M201.276 172.593C201.276 172.593 198.243 170.452 197.919 175.276C197.596 180.099 202.621 183.841 204.633 183.841H206.656C206.656 183.841 211.135 191.186 216.515 194.676L218.82 195.945C219.605 196.325 220.427 196.654 221.277 196.931C219.467 195.153 215.534 191.056 213.683 187.372C211.236 182.524 210.65 172.286 211.236 165.717C211.823 159.147 216.12 156.465 216.12 156.465L210.053 156.222C209.153 156.222 204.451 161.814 199.679 165.022L201.276 172.593Z" fill="#407BFF"/>
</g>
</g>
<path d="M210.003 148.222C210.003 148.222 200.265 152.772 199.598 159.47C199.276 163.888 199.843 168.318 201.276 172.593C201.276 172.593 198.243 170.451 197.919 175.275C197.596 180.099 202.621 183.84 204.633 183.84H206.656C206.656 183.84 211.135 191.193 216.515 194.676C221.894 198.159 227.142 198.312 230.833 197.238C234.523 196.163 241.581 191.347 242.259 184.915C242.936 178.483 242.259 167.769 241.581 161.078C240.904 154.388 239.235 149.556 230.165 147.148C221.095 144.74 214.705 146.34 210.003 148.222Z" stroke="#263238" stroke-width="0.240811" stroke-linecap="round" stroke-linejoin="round"/>
<path d="M225.554 172.811C225.554 172.811 228.365 168.973 231.166 171.195L233.189 178.814L229.144 179.477L229.528 184.236" stroke="#263238" stroke-width="0.240811" stroke-linecap="round" stroke-linejoin="round"/>
<path d="M219.548 177.602C222.865 177.602 225.554 175.457 225.554 172.811C225.554 170.164 222.865 168.019 219.548 168.019C216.231 168.019 213.542 170.164 213.542 172.811C213.542 175.457 216.231 177.602 219.548 177.602Z" fill="#407BFF" stroke="#263238" stroke-width="0.240811" stroke-linecap="round" stroke-linejoin="round"/>
<path opacity="0.4" d="M219.548 177.602C222.865 177.602 225.554 175.457 225.554 172.811C225.554 170.164 222.865 168.019 219.548 168.019C216.231 168.019 213.542 170.164 213.542 172.811C213.542 175.457 216.231 177.602 219.548 177.602Z" fill="white" stroke="#263238" stroke-width="0.289734" stroke-miterlimit="10"/>
<path d="M244.797 171.849C244.799 170.899 244.449 169.971 243.791 169.18C243.133 168.389 242.197 167.772 241.101 167.405C240.005 167.039 238.798 166.94 237.631 167.122C236.465 167.303 235.392 167.756 234.548 168.424C233.703 169.092 233.125 169.945 232.887 170.875C232.648 171.806 232.759 172.771 233.207 173.651C233.654 174.531 234.417 175.285 235.4 175.818C236.383 176.352 237.542 176.641 238.73 176.649C239.524 176.655 240.311 176.536 241.047 176.297C241.783 176.059 242.452 175.706 243.016 175.26C243.58 174.814 244.028 174.282 244.334 173.697C244.639 173.111 244.797 172.483 244.797 171.849Z" fill="#407BFF" stroke="#263238" stroke-width="0.240811" stroke-linecap="round" stroke-linejoin="round"/>
<path opacity="0.4" d="M244.797 171.849C244.799 170.899 244.449 169.971 243.791 169.18C243.133 168.389 242.197 167.772 241.101 167.405C240.005 167.039 238.798 166.94 237.631 167.122C236.465 167.303 235.392 167.756 234.548 168.424C233.703 169.092 233.125 169.945 232.887 170.875C232.648 171.806 232.759 172.771 233.207 173.651C233.654 174.531 234.417 175.285 235.4 175.818C236.383 176.352 237.542 176.641 238.73 176.649C239.524 176.655 240.311 176.536 241.047 176.297C241.783 176.059 242.452 175.706 243.016 175.26C243.58 174.814 244.028 174.282 244.334 173.697C244.639 173.111 244.797 172.483 244.797 171.849Z" fill="white" stroke="#263238" stroke-width="0.289734" stroke-miterlimit="10"/>
<path d="M213.542 172.811L201.519 173.449" stroke="#263238" stroke-width="0.240811" stroke-linecap="round" stroke-linejoin="round"/>
<path d="M214.654 166.403C215.355 165.714 216.279 165.192 217.326 164.895C218.373 164.597 219.502 164.534 220.59 164.714" stroke="#263238" stroke-width="0.240811" stroke-linecap="round" stroke-linejoin="round"/>
<path d="M233.33 164.375C234.322 163.939 235.467 163.782 236.584 163.929C237.7 164.075 238.723 164.517 239.488 165.183" stroke="#263238" stroke-width="0.240811" stroke-linecap="round" stroke-linejoin="round"/>
<path d="M241.571 161.078C240.904 154.38 239.225 149.556 230.155 147.148C221.085 144.74 214.705 146.34 210.003 148.222C210.003 148.222 200.265 152.772 199.598 159.47C199.276 163.888 199.843 168.318 201.276 172.593C201.276 172.593 203.966 174.734 204.634 171.785C205.301 168.835 203.289 164.011 212.723 158.387C222.157 152.764 235.555 155.446 240.257 160.812C240.806 161.163 241.281 161.583 241.662 162.056C241.672 161.959 241.581 161.199 241.571 161.078Z" fill="#263238"/>
<path d="M94.8314 190.806C94.8314 190.806 86.7421 189.739 80.6751 192.955C78.9479 193.874 77.5867 195.169 76.7532 196.687C75.9198 198.205 75.6491 199.883 75.9732 201.52" stroke="#263238" stroke-width="0.240811" stroke-linecap="round" stroke-linejoin="round"/>
<path d="M77.3689 191.347C77.3689 191.347 73.3242 195.096 73.3242 198.312" stroke="#263238" stroke-width="0.240811" stroke-linecap="round" stroke-linejoin="round"/>
<path d="M52.1809 176.075C52.1809 176.075 56.2255 195.629 59.9062 201.52C63.5868 207.41 74.0624 213.042 82.0708 215.717C90.0792 218.391 127.735 222.682 129.08 222.415C130.424 222.149 122.699 216.525 124.378 209.56C125.217 206.101 131.092 202.594 131.092 202.594C131.092 202.594 114.64 196.938 108.26 194.829C101.879 192.72 94.8317 190.789 94.8317 190.789C94.8317 190.789 85.7312 184.099 81.4034 181.149C77.4242 178.647 73.2756 176.322 68.9763 174.184" stroke="#263238" stroke-width="0.240811" stroke-linecap="round" stroke-linejoin="round"/>
<path d="M163.216 212.356L167.605 216.719C168.492 217.37 169.438 217.967 170.436 218.505C171.751 219.07 172.883 220.783 171.073 221.196C170.248 221.384 169.379 221.418 168.535 221.293C167.692 221.168 166.895 220.889 166.209 220.476L161.942 217.98L158.373 215.402L160.961 211.685L163.216 212.356Z" fill="white" stroke="#263238" stroke-width="0.240811" stroke-linecap="round" stroke-linejoin="round"/>
<path d="M131.092 202.595C131.092 202.595 141.507 204.469 144.864 205.019C148.221 205.568 165.35 207.968 167.696 208.768C170.042 209.568 177.433 209.843 177.099 212.251C176.766 214.659 173.742 214.125 171.397 213.867C169.051 213.608 161.649 212.533 161.649 212.533C161.649 212.533 164.005 216.016 163.338 216.816C162.67 217.616 147.553 221.907 144.53 221.907C141.507 221.907 139.474 217.616 138.15 216.25L134.105 212.21L126.016 209.269" fill="white"/>
<path d="M131.092 202.595C131.092 202.595 141.507 204.469 144.864 205.019C148.221 205.568 165.35 207.968 167.696 208.768C170.042 209.568 177.433 209.843 177.099 212.251C176.766 214.659 173.742 214.125 171.397 213.867C169.051 213.608 161.649 212.533 161.649 212.533C161.649 212.533 164.005 216.016 163.338 216.816C162.67 217.616 147.553 221.907 144.53 221.907C141.507 221.907 139.474 217.616 138.15 216.25L134.105 212.21L126.016 209.269" stroke="#263238" stroke-width="0.240811" stroke-linecap="round" stroke-linejoin="round"/>
<path d="M161.649 212.509L159.303 209.827" stroke="#263238" stroke-width="0.240811" stroke-linecap="round" stroke-linejoin="round"/>
<path d="M129.08 222.416C130.836 221.138 132.204 219.556 133.081 217.792C133.957 216.028 134.318 214.127 134.136 212.234" stroke="#263238" stroke-width="0.240811" stroke-linecap="round" stroke-linejoin="round"/>
<path d="M146.876 215.717L149.566 220.807" stroke="#263238" stroke-width="0.240811" stroke-linecap="round" stroke-linejoin="round"/>
<path d="M153.59 213.576L156.28 219.2" stroke="#263238" stroke-width="0.240811" stroke-linecap="round" stroke-linejoin="round"/>
<path d="M218.072 252.684V315.63L323.172 310.814V248.402L218.072 252.684Z" fill="#263238" stroke="#263238" stroke-width="0.240811" stroke-linecap="round" stroke-linejoin="round"/>
<path d="M323.172 248.402L317.792 245.986L213.703 250.01V311.347L218.072 315.63V252.684L323.172 248.402Z" fill="white" stroke="#263238" stroke-width="0.240811" stroke-linecap="round" stroke-linejoin="round"/>
<path d="M213.703 250.01L218.062 252.684" stroke="#263238" stroke-width="0.240811" stroke-linecap="round" stroke-linejoin="round"/>
<path d="M260.045 289.385V331.977L288.924 330.369V287.511L260.045 289.385Z" fill="#263238" stroke="#263238" stroke-width="0.240811" stroke-linecap="round" stroke-linejoin="round"/>
<path d="M259.145 313.497V289.385L288.924 287.511L289.005 312.002" stroke="white" stroke-width="0.240811" stroke-linecap="round" stroke-linejoin="round"/>
<path d="M260.045 331.977L244.928 321.262L260.045 320.721" fill="white"/>
<path d="M260.045 331.977L244.928 321.262L260.045 320.721" stroke="#263238" stroke-width="0.240811" stroke-linecap="round" stroke-linejoin="round"/>
<path opacity="0.7" d="M76.9037 292.618L172.408 300.262C172.408 300.262 168.747 297.91 170.173 297.684C172.883 297.264 176.897 296.973 176.897 296.973L168.474 289.878L76.9037 292.618Z" fill="#407BFF"/>
<path opacity="0.7" d="M76.9037 292.618L172.408 300.262C172.408 300.262 168.747 297.91 170.173 297.684C172.883 297.264 176.897 296.973 176.897 296.973L168.474 289.878L76.9037 292.618Z" fill="white"/>
<path d="M168.545 289.911L19.5001 294.153" stroke="#263238" stroke-width="0.240811" stroke-linecap="round" stroke-linejoin="round"/>
<path d="M322.454 287.349L422.923 336.897" stroke="#263238" stroke-width="0.240811" stroke-linecap="round" stroke-linejoin="round"/>
<path d="M139.828 299.825L87.2378 304.956L121.122 333.39L177.807 327.791L139.828 299.825Z" fill="#407BFF"/>
<path opacity="0.7" d="M139.828 299.825L87.2378 304.956L121.122 333.39L177.807 327.791L139.828 299.825Z" fill="white"/>
<path d="M86.0648 311.016L132.811 306.354L166.705 333.851L112.941 339.911L86.0648 311.016Z" fill="white"/>
<path d="M114.549 335.911C114.469 335.911 114.392 335.886 114.335 335.84C114.278 335.795 114.246 335.733 114.246 335.669C114.246 335.605 114.278 335.543 114.335 335.498C114.392 335.452 114.469 335.427 114.549 335.427L157.544 331.007C157.623 331.002 157.703 331.02 157.766 331.059C157.83 331.098 157.873 331.154 157.888 331.217C157.893 331.249 157.891 331.282 157.88 331.314C157.869 331.346 157.85 331.375 157.825 331.401C157.799 331.427 157.767 331.448 157.731 331.463C157.695 331.479 157.655 331.489 157.615 331.492L114.63 335.911H114.549Z" fill="#407BFF"/>
<path d="M112.153 333.617C112.072 333.617 111.995 333.591 111.938 333.546C111.881 333.5 111.849 333.439 111.849 333.374C111.849 333.31 111.881 333.248 111.938 333.203C111.995 333.158 112.072 333.132 112.153 333.132L155.147 328.712C155.228 328.704 155.309 328.721 155.374 328.76C155.438 328.8 155.48 328.858 155.491 328.922C155.502 328.986 155.48 329.052 155.431 329.103C155.381 329.155 155.309 329.188 155.228 329.197L112.244 333.617H112.153Z" fill="#407BFF"/>
<path d="M109.766 331.322C109.691 331.322 109.618 331.3 109.562 331.26C109.506 331.219 109.471 331.164 109.463 331.104C109.454 331.04 109.477 330.975 109.526 330.924C109.575 330.873 109.646 330.839 109.726 330.829L152.69 326.409C152.771 326.406 152.85 326.426 152.913 326.467C152.976 326.507 153.019 326.564 153.034 326.627C153.038 326.659 153.034 326.691 153.023 326.722C153.011 326.753 152.992 326.781 152.967 326.806C152.942 326.831 152.91 326.851 152.875 326.866C152.84 326.881 152.801 326.891 152.761 326.894L109.777 331.322H109.766Z" fill="#407BFF"/>
<path d="M107.37 329.019C107.29 329.019 107.212 328.993 107.155 328.948C107.099 328.903 107.067 328.841 107.067 328.777C107.067 328.712 107.099 328.651 107.155 328.605C107.212 328.56 107.29 328.534 107.37 328.534L150.365 324.114C150.445 324.107 150.525 324.125 150.589 324.164C150.653 324.203 150.696 324.261 150.708 324.324C150.714 324.356 150.712 324.389 150.702 324.42C150.691 324.451 150.673 324.48 150.649 324.506C150.625 324.531 150.594 324.553 150.559 324.569C150.524 324.585 150.485 324.595 150.445 324.599L107.451 329.019H107.37Z" fill="#407BFF"/>
<path d="M104.984 326.724C104.91 326.725 104.838 326.704 104.782 326.665C104.726 326.626 104.69 326.573 104.68 326.514C104.675 326.482 104.677 326.45 104.687 326.419C104.697 326.387 104.715 326.358 104.74 326.333C104.764 326.307 104.795 326.286 104.83 326.27C104.865 326.254 104.903 326.243 104.943 326.239L147.938 321.819C148.018 321.812 148.098 321.83 148.162 321.869C148.226 321.909 148.269 321.966 148.282 322.029C148.287 322.062 148.284 322.095 148.274 322.127C148.263 322.158 148.244 322.188 148.219 322.214C148.193 322.239 148.161 322.26 148.125 322.276C148.089 322.292 148.049 322.301 148.008 322.304L105.024 326.724H104.984Z" fill="#407BFF"/>
<path d="M102.587 324.421C102.512 324.421 102.439 324.399 102.383 324.359C102.327 324.318 102.291 324.263 102.284 324.203C102.277 324.139 102.301 324.076 102.349 324.025C102.398 323.974 102.468 323.94 102.547 323.928L145.541 319.508C145.623 319.501 145.705 319.52 145.769 319.561C145.833 319.602 145.875 319.661 145.885 319.726C145.894 319.789 145.871 319.853 145.822 319.903C145.773 319.952 145.701 319.985 145.622 319.993L102.628 324.421H102.587Z" fill="#407BFF"/>
<path d="M100.201 322.127C100.127 322.127 100.055 322.106 99.9994 322.068C99.9436 322.029 99.9073 321.975 99.8974 321.917C99.8918 321.885 99.8941 321.852 99.9043 321.821C99.9145 321.79 99.9323 321.761 99.9568 321.735C99.9813 321.71 100.012 321.688 100.047 321.672C100.082 321.656 100.12 321.646 100.16 321.642L143.155 317.222C143.235 317.217 143.314 317.236 143.377 317.274C143.441 317.313 143.484 317.369 143.499 317.432C143.504 317.465 143.502 317.498 143.491 317.529C143.48 317.561 143.461 317.59 143.436 317.616C143.41 317.642 143.378 317.663 143.342 317.679C143.306 317.694 143.267 317.704 143.226 317.707L100.241 322.127H100.201Z" fill="#407BFF"/>
<path d="M97.8044 319.832C97.724 319.832 97.6468 319.806 97.5899 319.761C97.5331 319.715 97.5011 319.654 97.5011 319.589C97.5011 319.525 97.5331 319.463 97.5899 319.418C97.6468 319.372 97.724 319.347 97.8044 319.347L140.799 314.927C140.839 314.923 140.879 314.925 140.918 314.933C140.957 314.941 140.993 314.956 141.025 314.975C141.057 314.995 141.084 315.019 141.104 315.047C141.124 315.075 141.137 315.105 141.143 315.137C141.148 315.169 141.146 315.201 141.135 315.232C141.125 315.263 141.107 315.292 141.083 315.318C141.058 315.343 141.028 315.365 140.993 315.381C140.958 315.397 140.92 315.408 140.88 315.412L97.8853 319.832H97.8044Z" fill="#407BFF"/>
<path d="M95.418 317.537C95.3425 317.537 95.2697 317.515 95.2136 317.474C95.1575 317.434 95.1222 317.378 95.1147 317.318C95.1059 317.254 95.1283 317.19 95.1773 317.139C95.2262 317.088 95.2979 317.054 95.3776 317.044L138.372 312.624C138.453 312.619 138.534 312.639 138.597 312.679C138.661 312.72 138.703 312.778 138.716 312.842C138.72 312.874 138.716 312.906 138.705 312.937C138.693 312.967 138.674 312.996 138.649 313.021C138.624 313.046 138.592 313.066 138.557 313.081C138.522 313.096 138.483 313.106 138.443 313.109L95.4585 317.537H95.418Z" fill="#407BFF"/>
<path d="M93.0319 315.234C92.9514 315.234 92.8743 315.208 92.8174 315.163C92.7605 315.117 92.7285 315.056 92.7285 314.991C92.7285 314.927 92.7605 314.866 92.8174 314.82C92.8743 314.775 92.9514 314.749 93.0319 314.749L136.026 310.329C136.107 310.322 136.187 310.34 136.251 310.379C136.315 310.418 136.358 310.476 136.37 310.539C136.376 310.571 136.374 310.604 136.363 310.635C136.353 310.666 136.335 310.695 136.311 310.721C136.286 310.746 136.256 310.768 136.221 310.784C136.186 310.8 136.147 310.81 136.107 310.814L93.0319 315.234Z" fill="#407BFF"/>
<g opacity="0.7">
<path d="M114.549 335.911C114.469 335.911 114.392 335.886 114.335 335.84C114.278 335.795 114.246 335.733 114.246 335.669C114.246 335.605 114.278 335.543 114.335 335.498C114.392 335.452 114.469 335.427 114.549 335.427L157.544 331.007C157.624 331.002 157.703 331.02 157.766 331.059C157.83 331.098 157.873 331.154 157.888 331.217C157.893 331.249 157.891 331.282 157.88 331.314C157.869 331.346 157.85 331.375 157.825 331.401C157.799 331.427 157.767 331.448 157.731 331.463C157.695 331.479 157.656 331.489 157.615 331.492L114.63 335.911H114.549Z" fill="white"/>
<path d="M112.153 333.616C112.072 333.616 111.995 333.591 111.938 333.545C111.881 333.5 111.849 333.438 111.849 333.374C111.849 333.31 111.881 333.248 111.938 333.203C111.995 333.157 112.072 333.132 112.153 333.132L155.147 328.712C155.228 328.703 155.309 328.72 155.374 328.76C155.438 328.799 155.48 328.857 155.491 328.922C155.502 328.986 155.48 329.051 155.431 329.103C155.382 329.154 155.309 329.188 155.228 329.196L112.244 333.616H112.153Z" fill="white"/>
<path d="M109.767 331.322C109.691 331.322 109.618 331.3 109.562 331.26C109.506 331.219 109.471 331.164 109.463 331.104C109.454 331.04 109.477 330.975 109.526 330.924C109.575 330.873 109.646 330.839 109.726 330.829L152.69 326.409C152.771 326.406 152.85 326.426 152.913 326.467C152.977 326.507 153.019 326.564 153.034 326.627C153.038 326.659 153.035 326.691 153.023 326.722C153.012 326.753 152.993 326.781 152.967 326.806C152.942 326.831 152.91 326.851 152.875 326.866C152.84 326.881 152.801 326.891 152.761 326.894L109.777 331.322H109.767Z" fill="white"/>
<path d="M107.37 329.019C107.29 329.019 107.212 328.993 107.155 328.948C107.099 328.903 107.067 328.841 107.067 328.777C107.067 328.712 107.099 328.651 107.155 328.605C107.212 328.56 107.29 328.534 107.37 328.534L150.365 324.114C150.445 324.107 150.525 324.125 150.589 324.164C150.653 324.203 150.696 324.261 150.708 324.324C150.714 324.356 150.712 324.389 150.702 324.42C150.691 324.451 150.673 324.48 150.649 324.506C150.625 324.531 150.594 324.553 150.559 324.569C150.524 324.585 150.485 324.595 150.445 324.599L107.451 329.019H107.37Z" fill="white"/>
<path d="M104.984 326.724C104.91 326.725 104.838 326.704 104.782 326.665C104.727 326.626 104.69 326.573 104.68 326.514C104.675 326.482 104.677 326.45 104.687 326.419C104.697 326.387 104.715 326.358 104.74 326.333C104.764 326.307 104.795 326.286 104.83 326.27C104.865 326.254 104.903 326.243 104.943 326.239L147.938 321.819C148.018 321.812 148.098 321.83 148.162 321.869C148.226 321.909 148.269 321.966 148.282 322.029C148.287 322.062 148.285 322.095 148.274 322.127C148.263 322.158 148.244 322.188 148.219 322.214C148.193 322.239 148.161 322.26 148.125 322.276C148.089 322.292 148.049 322.301 148.009 322.304L105.024 326.724H104.984Z" fill="white"/>
<path d="M102.587 324.421C102.512 324.421 102.439 324.399 102.383 324.359C102.327 324.318 102.291 324.263 102.284 324.203C102.278 324.139 102.301 324.076 102.349 324.025C102.398 323.974 102.468 323.94 102.547 323.928L145.541 319.508C145.623 319.501 145.705 319.52 145.769 319.561C145.833 319.602 145.875 319.661 145.885 319.726C145.894 319.789 145.871 319.853 145.822 319.903C145.773 319.952 145.701 319.985 145.622 319.993L102.628 324.421H102.587Z" fill="white"/>
<path d="M100.201 322.126C100.127 322.127 100.056 322.106 99.9997 322.067C99.9438 322.028 99.9075 321.975 99.8977 321.916C99.892 321.884 99.8943 321.852 99.9045 321.821C99.9147 321.79 99.9326 321.76 99.957 321.735C99.9815 321.709 100.012 321.688 100.047 321.672C100.082 321.656 100.121 321.645 100.161 321.641L143.155 317.222C143.235 317.216 143.314 317.235 143.377 317.274C143.441 317.313 143.484 317.369 143.499 317.432C143.505 317.464 143.502 317.497 143.491 317.529C143.48 317.56 143.462 317.59 143.436 317.616C143.41 317.641 143.379 317.663 143.343 317.678C143.306 317.694 143.267 317.703 143.226 317.706L100.241 322.126H100.201Z" fill="white"/>
<path d="M97.8044 319.832C97.724 319.832 97.6468 319.806 97.5899 319.761C97.5331 319.715 97.5011 319.654 97.5011 319.589C97.5011 319.525 97.5331 319.463 97.5899 319.418C97.6468 319.372 97.724 319.347 97.8044 319.347L140.799 314.927C140.839 314.923 140.879 314.925 140.918 314.933C140.957 314.941 140.993 314.956 141.025 314.975C141.057 314.995 141.084 315.019 141.104 315.047C141.124 315.075 141.137 315.105 141.143 315.137C141.148 315.169 141.146 315.201 141.135 315.232C141.125 315.263 141.107 315.292 141.083 315.318C141.058 315.343 141.028 315.365 140.993 315.381C140.958 315.397 140.92 315.408 140.88 315.412L97.8853 319.832H97.8044Z" fill="white"/>
<path d="M95.4183 317.537C95.3428 317.537 95.2699 317.515 95.2138 317.475C95.1577 317.435 95.1224 317.379 95.1149 317.319C95.1061 317.255 95.1285 317.191 95.1775 317.139C95.2265 317.088 95.2982 317.054 95.3778 317.044L138.372 312.624C138.453 312.619 138.534 312.639 138.598 312.68C138.661 312.72 138.704 312.778 138.716 312.842C138.72 312.874 138.717 312.907 138.705 312.937C138.694 312.968 138.675 312.996 138.649 313.021C138.624 313.046 138.593 313.067 138.557 313.082C138.522 313.097 138.483 313.106 138.443 313.109L95.4587 317.537H95.4183Z" fill="white"/>
<path d="M93.0319 315.234C92.9514 315.234 92.8743 315.208 92.8174 315.163C92.7605 315.117 92.7285 315.056 92.7285 314.991C92.7285 314.927 92.7605 314.866 92.8174 314.82C92.8743 314.775 92.9514 314.749 93.0319 314.749L136.026 310.329C136.107 310.322 136.187 310.34 136.251 310.379C136.315 310.418 136.358 310.476 136.37 310.539C136.376 310.571 136.374 310.604 136.363 310.635C136.353 310.666 136.335 310.695 136.311 310.721C136.286 310.746 136.256 310.768 136.221 310.784C136.186 310.8 136.147 310.81 136.107 310.814L93.0319 315.234Z" fill="white"/>
</g>
<path d="M138.534 157.054C138.534 157.054 146.623 159.204 148.645 161.902C150.668 164.601 155.865 178.976 155.865 178.976" stroke="#263238" stroke-width="0.240811" stroke-linecap="round" stroke-linejoin="round"/>
</g>
<defs>
<clipPath id="clip0_256_7337">
<path d="M0 0H472C476.418 0 480 3.58172 480 8V326C480 330.418 476.418 334 472 334H0V0Z" fill="white"/>
</clipPath>
</defs>
</svg>
