<svg width="528" height="334" viewBox="0 0 528 334" fill="none" xmlns="http://www.w3.org/2000/svg">
<g clip-path="url(#clip0_256_7329)">
<path d="M512.152 294.842H15.0348V295.068H512.152V294.842Z" fill="#E6E6E6"/>
<path d="M139.135 308.526H106.206V308.752H139.135V308.526Z" fill="#E6E6E6"/>
<path d="M95.7868 308.526H76.7074V308.752H95.7868V308.526Z" fill="#E6E6E6"/>
<path d="M224.371 311.854H205.292V312.08H224.371V311.854Z" fill="#E6E6E6"/>
<path d="M323.854 316.901H280.913V317.127H323.854V316.901Z" fill="#E6E6E6"/>
<path d="M272.065 316.901H265.771V317.127H272.065V316.901Z" fill="#E6E6E6"/>
<path d="M465.771 311.854H372.631V312.08H465.771V311.854Z" fill="#E6E6E6"/>
<path d="M250.669 254.504H58.6917C57.1877 254.502 55.7463 253.956 54.6838 252.988C53.6213 252.02 53.0245 250.708 53.0245 249.34V3.84932C53.0376 2.48907 53.6402 1.18846 54.7013 0.229973C55.7624 -0.72851 57.1963 -1.26745 58.6917 -1.26978H250.669C252.174 -1.26978 253.618 -0.725679 254.683 0.242818C255.748 1.21131 256.346 2.52488 256.346 3.89454V249.34C256.346 250.709 255.748 252.023 254.683 252.991C253.618 253.96 252.174 254.504 250.669 254.504ZM58.6917 -1.08889C57.2537 -1.08649 55.8755 -0.565163 54.8596 0.360671C53.8437 1.2865 53.2731 2.54119 53.2731 3.84932V249.34C53.2731 250.648 53.8437 251.903 54.8596 252.828C55.8755 253.754 57.2537 254.275 58.6917 254.278H250.669C252.107 254.275 253.487 253.754 254.504 252.829C255.522 251.903 256.094 250.649 256.097 249.34V3.84932C256.094 2.54036 255.522 1.28569 254.504 0.360119C253.487 -0.565457 252.107 -1.0865 250.669 -1.08889H58.6917Z" fill="#E6E6E6"/>
<path d="M465.732 254.504H273.745C272.24 254.502 270.798 253.957 269.734 252.989C268.669 252.021 268.07 250.709 268.068 249.34V3.84932C268.084 2.48825 268.688 1.18764 269.751 0.229407C270.814 -0.728826 272.249 -1.26747 273.745 -1.26978H465.732C467.225 -1.26507 468.657 -0.725081 469.716 0.233147C470.775 1.19138 471.376 2.49063 471.389 3.84932V249.34C471.389 250.706 470.794 252.017 469.733 252.985C468.673 253.953 467.234 254.499 465.732 254.504ZM273.745 -1.08889C272.306 -1.0865 270.927 -0.565457 269.909 0.360119C268.892 1.28569 268.319 2.54036 268.316 3.84932V249.34C268.319 250.649 268.892 251.903 269.909 252.829C270.927 253.754 272.306 254.275 273.745 254.278H465.732C467.171 254.275 468.55 253.754 469.567 252.829C470.585 251.903 471.158 250.649 471.16 249.34V3.84932C471.158 2.54036 470.585 1.28569 469.567 0.360119C468.55 -0.565457 467.171 -1.0865 465.732 -1.08889H273.745Z" fill="#E6E6E6"/>
<path d="M280.893 217.585H259.03V296.479H280.893V217.585Z" fill="#E0E0E0"/>
<path d="M276.737 296.479H280.893V285.734H272.383L276.737 296.479Z" fill="#FAFAFA"/>
<path d="M185.089 217.585H163.226V296.479H185.089V217.585Z" fill="#E0E0E0"/>
<path d="M280.893 217.585H181.47V289.885H280.893V217.585Z" fill="#FAFAFA"/>
<path d="M277.284 221.139V240.268H185.049V221.139H277.254M277.642 220.787H184.691V240.612H277.672V220.787H277.642Z" fill="#E0E0E0"/>
<path d="M185.616 296.479H181.47V285.734H189.971L185.616 296.479Z" fill="#FAFAFA"/>
<path d="M228.984 230.699C228.984 231.095 229.113 231.481 229.355 231.81C229.596 232.138 229.939 232.395 230.341 232.546C230.742 232.697 231.184 232.737 231.61 232.66C232.037 232.583 232.428 232.392 232.735 232.113C233.043 231.833 233.252 231.477 233.337 231.089C233.422 230.701 233.378 230.3 233.212 229.934C233.045 229.569 232.764 229.257 232.402 229.037C232.041 228.818 231.616 228.7 231.182 228.7C230.599 228.7 230.04 228.911 229.628 229.286C229.216 229.661 228.984 230.169 228.984 230.699Z" fill="#E6E6E6"/>
<path d="M277.284 244.166V263.295H185.049V244.166H277.254M277.642 243.823H184.691V263.648H277.672V243.832L277.642 243.823Z" fill="#E0E0E0"/>
<path d="M228.984 253.781C228.984 254.176 229.113 254.562 229.355 254.891C229.596 255.22 229.939 255.476 230.341 255.627C230.742 255.778 231.184 255.818 231.61 255.741C232.037 255.664 232.428 255.473 232.735 255.194C233.043 254.914 233.252 254.558 233.337 254.17C233.422 253.783 233.378 253.381 233.212 253.016C233.045 252.65 232.764 252.338 232.402 252.119C232.041 251.899 231.616 251.782 231.182 251.782C230.599 251.782 230.04 251.992 229.628 252.367C229.216 252.742 228.984 253.25 228.984 253.781Z" fill="#E6E6E6"/>
<path d="M277.284 267.202V286.34H185.049V267.202H277.254M277.642 266.849H184.691V286.684H277.672V266.849H277.642Z" fill="#E0E0E0"/>
<path d="M228.985 276.771C228.986 277.166 229.117 277.552 229.36 277.879C229.602 278.207 229.946 278.461 230.348 278.611C230.749 278.761 231.191 278.799 231.617 278.721C232.042 278.643 232.433 278.452 232.739 278.172C233.045 277.892 233.254 277.536 233.338 277.149C233.421 276.761 233.377 276.36 233.211 275.995C233.044 275.63 232.763 275.319 232.401 275.099C232.04 274.88 231.616 274.763 231.182 274.763C230.892 274.763 230.606 274.815 230.339 274.916C230.071 275.017 229.829 275.165 229.625 275.352C229.42 275.538 229.259 275.76 229.149 276.003C229.039 276.247 228.983 276.508 228.985 276.771Z" fill="#E6E6E6"/>
<path d="M171.736 171.766H149.873V296.488H171.736V171.766Z" fill="#E0E0E0"/>
<path d="M167.58 296.479H171.736V285.734H163.236L167.58 296.479Z" fill="#FAFAFA"/>
<path d="M90.03 171.766H68.1667V296.488H90.03V171.766Z" fill="#E0E0E0"/>
<path d="M171.736 171.766H86.4012V289.894H171.736V171.766Z" fill="#FAFAFA"/>
<path d="M168.058 175.095V201.839H90.0799V175.095H168.058ZM168.515 174.688H89.6027V202.228H168.495V174.697L168.515 174.688Z" fill="#E0E0E0"/>
<path d="M168.058 205.104V276.038H130.913V205.104H168.058ZM168.515 204.688H130.466V276.455H168.515V204.688Z" fill="#E0E0E0"/>
<path d="M127.225 205.104V276.038H90.0799V205.104H127.225ZM127.672 204.688H89.6027V276.455H127.652V204.688H127.672Z" fill="#E0E0E0"/>
<path d="M90.5571 296.479H86.4012V285.734H94.9119L90.5571 296.479Z" fill="#FAFAFA"/>
<path d="M126.867 188.48C126.865 188.878 126.992 189.267 127.234 189.598C127.475 189.93 127.819 190.188 128.222 190.342C128.625 190.495 129.069 190.536 129.498 190.46C129.927 190.383 130.321 190.193 130.631 189.912C130.941 189.632 131.152 189.274 131.238 188.884C131.324 188.495 131.281 188.09 131.114 187.723C130.947 187.356 130.664 187.041 130.301 186.82C129.938 186.599 129.511 186.481 129.074 186.481C128.49 186.481 127.93 186.692 127.517 187.066C127.103 187.441 126.869 187.949 126.867 188.48Z" fill="#E6E6E6"/>
<path d="M134.741 238.885C134.741 239.282 134.87 239.671 135.113 240.001C135.356 240.331 135.702 240.589 136.106 240.74C136.509 240.892 136.954 240.931 137.382 240.853C137.811 240.775 138.204 240.583 138.512 240.301C138.82 240.019 139.03 239.661 139.114 239.271C139.198 238.881 139.153 238.477 138.984 238.11C138.816 237.743 138.531 237.43 138.167 237.211C137.803 236.991 137.375 236.875 136.938 236.877C136.649 236.877 136.362 236.929 136.095 237.03C135.828 237.131 135.585 237.279 135.381 237.465C135.177 237.652 135.015 237.873 134.905 238.117C134.795 238.36 134.739 238.621 134.741 238.885Z" fill="#E6E6E6"/>
<path d="M119.002 238.885C119.004 239.279 119.134 239.665 119.377 239.993C119.62 240.32 119.964 240.575 120.365 240.725C120.767 240.875 121.208 240.913 121.634 240.835C122.06 240.757 122.45 240.566 122.756 240.286C123.063 240.006 123.271 239.65 123.355 239.262C123.439 238.875 123.395 238.473 123.228 238.109C123.062 237.744 122.78 237.432 122.419 237.213C122.058 236.994 121.633 236.877 121.199 236.877C120.91 236.877 120.623 236.929 120.356 237.03C120.089 237.131 119.846 237.279 119.642 237.465C119.438 237.652 119.276 237.873 119.166 238.117C119.057 238.36 119.001 238.621 119.002 238.885Z" fill="#E6E6E6"/>
<path d="M116.517 136.991H107.3C108.149 141.058 108.684 145.174 108.901 149.309C108.901 153.831 101.881 171.766 111.883 171.766C121.885 171.766 114.866 153.877 114.866 149.309C115.099 145.173 115.65 141.057 116.517 136.991Z" fill="#E0E0E0"/>
<path d="M81.4498 155.333V160.76C81.4603 163.669 82.7353 166.456 84.9966 168.513C87.2579 170.57 90.3219 171.73 93.5198 171.739H99.4853C102.683 171.73 105.747 170.57 108.008 168.513C110.27 166.456 111.545 163.669 111.555 160.76V155.333H81.4498Z" fill="#F5F5F5"/>
<path d="M209.577 206.081C209.577 212.412 217.362 217.585 226.877 217.585H235.467C244.982 217.585 252.767 212.412 252.767 206.081H209.577Z" fill="#E0E0E0"/>
<path d="M437.197 196.801C431.987 200.672 424.789 207.754 418.207 217.721C413.813 224.359 411.168 231.287 410.005 240.494C410.005 230.093 410.074 218.923 410.114 208.378C411.437 205.664 414.459 199.406 416.626 194.468C423.855 177.98 426.569 173.919 433.061 159.701C441.741 140.708 450.629 118.224 448.084 120.024C442.894 123.687 423.009 157.558 420.862 162.405C415.008 175.343 411.389 189.026 410.134 202.969C410.134 193.02 410.214 183.976 410.253 176.958C410.393 154.067 410.82 146.677 411.029 144.398C411.834 143.24 412.779 141.893 413.336 141.169C418.008 135.019 419.808 129.792 424.203 120.621C430.446 107.642 435.815 84.5879 434.244 85.7456C427.702 90.5934 422.552 100.994 415.771 114.262C408.991 127.53 410.929 135.155 409.587 146.478C409.309 148.703 409.09 157.096 408.931 168.718C407.181 156.328 403.88 148.17 397.865 140.753C390.468 131.628 383.31 125.468 378.06 122.249C372.811 119.029 387.128 141.441 393.968 151.19C400.063 159.909 405.68 167.588 408.881 175.158C408.712 190.922 408.633 210.874 408.633 229.424C407.062 220.977 404.497 211.869 401.077 204.823C396.96 196.358 390.637 183.37 385.596 178.966C384.393 177.907 390.866 203.168 395.022 209.879C399.178 216.59 402.23 222.93 404.845 226.738C405.451 227.642 407.48 231.052 408.633 233.024C408.633 255.698 408.772 275.704 408.991 282.514H410.065C409.995 280.76 409.975 269.219 410.005 253.952C412.6 245.668 418.525 236.207 423.417 227.579C428.746 218.236 442.407 192.957 437.197 196.801Z" fill="#E0E0E0"/>
<path d="M425.097 296.479H393.938L391.582 268.695H427.454L425.097 296.479Z" fill="#F0F0F0"/>
<path d="M429.77 271.932H389.255L388.102 262.553H430.934L429.77 271.932Z" fill="#F5F5F5"/>
<path d="M138.579 17.2712H82.8517V72.9391H138.579V17.2712Z" fill="#E0E0E0"/>
<path d="M144.614 17.2712H87.0475V72.9391H144.614V17.2712Z" fill="#F5F5F5"/>
<path d="M139.792 68.5523V21.6575L91.8695 21.6575V68.5523H139.792Z" fill="white"/>
<path d="M128.169 57.1748V33.0173H103.482V57.1748H128.169Z" fill="#F5F5F5"/>
<path d="M422.721 23.7559H370.951V75.4714H422.721V23.7559Z" fill="#E0E0E0"/>
<path d="M428.329 23.7559H374.859V75.4714H428.329V23.7559Z" fill="#F5F5F5"/>
<path d="M423.854 71.3925V27.835L379.343 27.835V71.3925H423.854Z" fill="white"/>
<path d="M401.594 62.2486C409.265 62.2486 415.483 56.5918 415.483 49.6137C415.483 42.6356 409.265 36.9788 401.594 36.9788C393.923 36.9788 387.704 42.6356 387.704 49.6137C387.704 56.5918 393.923 62.2486 401.594 62.2486Z" fill="#F5F5F5"/>
<path d="M196.473 50.4639H155.133V91.7603H196.473V50.4639Z" fill="#E0E0E0"/>
<path d="M200.947 50.4639H158.245V91.7603H200.947V50.4639Z" fill="#F5F5F5"/>
<path d="M197.368 88.5042V53.7197H161.824V88.5042H197.368Z" fill="white"/>
<path d="M179.601 62.3118L169.877 77.6329H189.324L179.601 62.3118Z" fill="#F5F5F5"/>
<path d="M263.594 335.686C370.059 335.686 456.366 331.102 456.366 325.448C456.366 319.793 370.059 315.209 263.594 315.209C157.128 315.209 70.8213 319.793 70.8213 325.448C70.8213 331.102 157.128 335.686 263.594 335.686Z" fill="#F5F5F5"/>
<path d="M362.271 96.7977L352.408 93.1799C352.408 93.1799 339.394 114.769 335.666 115.863C330.595 117.346 320.096 121.471 313.872 122.194C313.027 123.099 311.645 125.911 311.774 126.933C320.136 129.475 338.509 126.101 342.446 123.442C351.404 117.41 362.271 96.7977 362.271 96.7977Z" fill="#E58A7B"/>
<path d="M365.304 91.8869C367.143 98.0641 357.181 110.491 357.181 110.491L344.127 103.834C344.127 103.834 346.572 98.7244 349.555 93.5239C354.337 85.1217 363.206 84.8413 365.304 91.8869Z" fill="#407BFF"/>
<path opacity="0.2" d="M365.304 91.8869C367.143 98.0641 357.181 110.491 357.181 110.491L344.127 103.834C344.127 103.834 346.572 98.7244 349.555 93.5239C354.337 85.1217 363.206 84.8413 365.304 91.8869Z" fill="black"/>
<path opacity="0.2" d="M349.307 106.493L354.447 109.116L355.352 94.7629C352.359 96.8522 350.251 103.147 349.307 106.493Z" fill="black"/>
<path d="M356.714 87.2378C356.714 87.2378 346.552 107.805 352.478 146.098H392.516C393.152 140.509 391.044 113.231 398.67 86.8941C394.278 86.1133 389.834 85.5966 385.367 85.3475C379.702 85.0489 374.022 85.0489 368.356 85.3475C364.428 85.7103 360.537 86.3422 356.714 87.2378Z" fill="#407BFF"/>
<path opacity="0.2" d="M356.714 87.2378C356.714 87.2378 346.552 107.805 352.478 146.098H392.516C393.152 140.509 391.044 113.231 398.67 86.8941C394.278 86.1133 389.834 85.5966 385.367 85.3475C379.702 85.0489 374.022 85.0489 368.356 85.3475C364.428 85.7103 360.537 86.3422 356.714 87.2378Z" fill="black"/>
<g style="mix-blend-mode:multiply">
<path d="M347.427 326.262C347.368 327.238 362.549 328.025 381.331 328.025C400.112 328.025 415.403 327.238 415.463 326.262C415.522 325.285 400.35 324.507 381.559 324.507C362.768 324.507 347.497 325.294 347.427 326.262Z" fill="#E8ECF1"/>
</g>
<path d="M374.153 300.596L367.052 303.097L373.169 317.472L380.27 314.971L374.153 300.596Z" fill="#E58A7B"/>
<path d="M405.818 319.307H398.332L395.588 303.542H403.074L405.818 319.307Z" fill="#E58A7B"/>
<path d="M397.815 318.52H406.226C406.372 318.52 406.513 318.568 406.624 318.654C406.736 318.74 406.809 318.859 406.833 318.99L407.917 325.041C407.939 325.193 407.926 325.347 407.878 325.494C407.829 325.64 407.746 325.776 407.635 325.891C407.523 326.006 407.386 326.098 407.232 326.16C407.079 326.223 406.912 326.254 406.743 326.253C403.81 326.207 402.399 326.045 398.7 326.045C396.423 326.045 391.74 326.262 388.579 326.262C385.417 326.262 385.208 323.44 386.511 323.178C392.357 322.029 394.624 320.464 396.572 318.945C396.916 318.67 397.358 318.519 397.815 318.52Z" fill="#263238"/>
<path d="M372.959 316.186L380.913 314.07C381.055 314.033 381.207 314.042 381.342 314.095C381.478 314.147 381.59 314.241 381.659 314.359L384.642 319.786C384.711 319.923 384.746 320.073 384.745 320.225C384.745 320.376 384.707 320.525 384.636 320.662C384.565 320.799 384.462 320.92 384.334 321.017C384.207 321.114 384.057 321.185 383.896 321.224C381.003 321.947 379.064 322.39 375.445 323.349C372.95 324.009 370.404 325.086 367.939 325.8C366.229 326.298 362.212 326.316 360.134 326.316C357.062 326.316 356.376 323.367 357.698 323.232C361.029 322.897 361.476 323.051 363.315 322.21C366.325 321.013 369.053 319.299 371.349 317.163C371.782 316.714 372.337 316.377 372.959 316.186Z" fill="#263238"/>
<path d="M315.124 122.158L306.892 119.02L303.502 127.322C306.876 127.79 310.309 127.79 313.683 127.322L315.124 122.158Z" fill="#E58A7B"/>
<path d="M300.768 118.803L300.549 124.32L303.502 127.304L306.892 119.002L300.768 118.803Z" fill="#E58A7B"/>
<path d="M375.127 301.817L368.004 304.319L371.158 311.752L378.282 309.25L375.127 301.817Z" fill="#CF6F64"/>
<path d="M403.074 303.542H395.588L397.01 311.673H404.496L403.074 303.542Z" fill="#CF6F64"/>
<path opacity="0.2" d="M351.205 135.743C351.355 137.38 351.524 139.053 351.742 140.771L381.51 131.98C386.158 130.727 390.198 128.07 392.963 124.446C393.083 122.032 393.232 119.49 393.46 116.84C393.56 115.556 393.679 114.235 393.808 112.897C393.938 111.558 394.117 110.075 394.306 108.646L351.205 135.743Z" fill="black"/>
<path d="M360.929 106.077L359.935 105.969C360.521 101.447 364.23 97.8832 368.137 97.9736V98.878C364.717 98.8147 361.456 102.025 360.929 106.077Z" fill="white"/>
<path d="M366.228 114.425H366.059V113.521C369.479 113.638 372.691 110.391 373.218 106.348L374.212 106.457C373.685 110.88 370.096 114.425 366.228 114.425Z" fill="white"/>
<path d="M384.81 67.9194C383.408 72.9029 381.758 82.0286 385.367 85.3479C385.367 85.3479 382.842 90.4036 372.671 90.4036C363.375 90.4036 368.356 85.3479 368.356 85.3479C374.54 84.0274 374.649 79.9213 373.834 76.0322L384.81 67.9194Z" fill="#E58A7B"/>
<path d="M380.337 71.2295L373.844 76.032C374.045 76.9257 374.162 77.8335 374.192 78.7453C376.091 80.4638 379.899 76.1134 380.287 73.8885C380.484 73.0126 380.501 72.111 380.337 71.2295Z" fill="#CF6F64"/>
<path d="M362.679 67.8558C363.13 68.5681 363.739 69.1879 364.466 69.6766C365.193 70.1652 366.023 70.5122 366.904 70.6957C369.29 71.1751 370.483 69.1763 369.827 67.1684C369.241 65.3596 367.282 62.9266 364.856 63.3427C364.336 63.44 363.85 63.6493 363.438 63.9528C363.025 64.2564 362.699 64.6454 362.485 65.0874C362.272 65.5293 362.178 66.0113 362.212 66.493C362.246 66.9746 362.406 67.4419 362.679 67.8558Z" fill="#CF6F64"/>
<path d="M366.626 51.9108C362.907 53.4574 361.595 66.8973 366.268 68.887C370.941 70.8768 373.665 48.9714 366.626 51.9108Z" fill="#263238"/>
<path d="M385.944 60.4213C385.049 67.1684 384.95 71.1388 380.973 74.5938C379.741 75.7403 378.184 76.5547 376.475 76.9471C374.766 77.3395 372.971 77.2946 371.288 76.8173C369.605 76.3401 368.1 75.4492 366.938 74.2428C365.777 73.0364 365.005 71.5616 364.707 69.9811C363.504 63.9214 365.165 53.9094 372.601 51.2232C374.164 50.5962 375.882 50.3609 377.579 50.5415C379.275 50.7221 380.887 51.3122 382.248 52.2505C383.609 53.1888 384.67 54.4413 385.32 55.8779C385.969 57.3146 386.185 58.8833 385.944 60.4213Z" fill="#E58A7B"/>
<path d="M373.725 55.402C379.233 54.1267 383.28 53.2585 381.828 57.4279C379.909 62.9992 377.602 68.3897 380.695 68.6339C382.584 68.7876 390.935 65.5678 389.871 62.3028C388.947 59.4629 392.854 58.6851 393.55 57.247C396.125 52.0375 388.758 52.7249 390.07 49.5594C391.383 46.3938 384.105 41.2928 380.128 43.8343C373.655 47.9404 362.55 47.8771 368.386 41.121C372.572 36.3004 365.105 37.2862 365.105 37.2862C365.105 37.2862 369.619 39.7191 362.023 43.4816C353.989 47.4973 361.357 58.2871 373.725 55.402Z" fill="#263238"/>
<path d="M388.867 67.8558C387.78 69.2871 386.146 70.2994 384.284 70.6957C381.828 71.1751 380.883 69.1763 381.808 67.1684C382.633 65.3596 384.9 62.9266 387.247 63.3427C389.593 63.7587 390.13 66.0831 388.867 67.8558Z" fill="#E58A7B"/>
<path d="M352.478 146.099C352.478 146.099 345.757 200.817 345.23 221.583C344.693 243.18 368.008 310.57 368.008 310.57L379.939 306.048C379.939 306.048 366.019 244.474 368.008 223.265C370.116 200.139 378.825 146.135 378.825 146.135L352.478 146.099Z" fill="#407BFF"/>
<path opacity="0.2" d="M369.181 161.121C363.822 171.233 367.431 191.23 370.334 203.078C371.438 194.712 372.75 185.631 373.993 177.229C373.874 164.314 372.77 154.338 369.181 161.121Z" fill="black"/>
<path d="M379.412 302.466C379.472 302.466 380.824 305.921 380.824 305.921L367.064 311.185L364.896 307.513L379.412 302.466Z" fill="#407BFF"/>
<path d="M366.686 146.099C366.686 146.099 371.826 198.14 375.226 217.63C378.964 238.984 393.619 310.1 393.619 310.1H407.33C407.33 310.1 399.117 240.711 397.566 219.566C395.876 196.629 392.516 146.099 392.516 146.099H366.686Z" fill="#407BFF"/>
<path d="M407.539 306.852C407.598 306.852 407.996 310.335 407.996 310.335H392.923L391.849 306.337L407.539 306.852Z" fill="#407BFF"/>
<path opacity="0.2" d="M402.289 302.728C402.258 302.729 402.228 302.719 402.204 302.701C402.18 302.682 402.165 302.657 402.16 302.629C402.08 301.996 394.673 239.319 393.281 220.325C391.77 199.722 388.728 154.021 388.698 153.56C388.697 153.545 388.699 153.53 388.704 153.516C388.709 153.502 388.718 153.489 388.729 153.478C388.741 153.466 388.754 153.458 388.769 153.452C388.784 153.446 388.801 153.443 388.817 153.443C388.85 153.443 388.881 153.454 388.905 153.474C388.929 153.494 388.944 153.522 388.947 153.551C388.947 154.012 392.019 199.677 393.53 220.316C394.922 239.31 402.329 301.942 402.399 302.62C402.401 302.635 402.401 302.65 402.397 302.665C402.393 302.68 402.385 302.693 402.375 302.705C402.365 302.717 402.352 302.727 402.337 302.734C402.322 302.741 402.306 302.745 402.289 302.747V302.728Z" fill="black"/>
<path d="M374.57 62.3027C374.57 62.8544 374.192 63.2976 373.794 63.2976C373.397 63.2976 373.108 62.8544 373.148 62.3027C373.188 61.751 373.526 61.3079 373.924 61.3079C374.321 61.3079 374.61 61.7601 374.57 62.3027Z" fill="#263238"/>
<path d="M367.75 62.3027C367.75 62.8544 367.362 63.2976 366.974 63.2976C366.586 63.2976 366.288 62.8544 366.318 62.3027C366.348 61.751 366.706 61.3079 367.103 61.3079C367.501 61.3079 367.789 61.7601 367.75 62.3027Z" fill="#263238"/>
<path d="M369.897 62.583C369.067 64.2677 367.997 65.8459 366.715 67.277C367.709 68.1814 369.569 67.7654 369.569 67.7654L369.897 62.583Z" fill="#DF5753"/>
<path d="M370.076 70.0718C370.053 70.0718 370.03 70.0676 370.009 70.0593C369.988 70.051 369.969 70.0388 369.953 70.0236C369.937 70.0083 369.925 69.9903 369.917 69.9706C369.909 69.9509 369.906 69.9299 369.907 69.909C369.909 69.865 369.93 69.8236 369.966 69.7933C370.001 69.763 370.047 69.7461 370.096 69.7462C370.856 69.751 371.608 69.6007 372.296 69.3065C372.985 69.0122 373.592 68.5815 374.073 68.0458C374.107 68.0185 374.151 68.0034 374.197 68.0034C374.243 68.0034 374.287 68.0185 374.321 68.0458C374.354 68.0762 374.372 68.1167 374.372 68.1589C374.372 68.2011 374.354 68.2416 374.321 68.2719C373.806 68.8412 373.158 69.2984 372.423 69.6098C371.688 69.9212 370.886 70.0791 370.076 70.0718Z" fill="#263238"/>
<path d="M375.783 60.6385C375.735 60.6608 375.682 60.6723 375.629 60.6723C375.575 60.6723 375.522 60.6608 375.475 60.6385C375.103 60.4198 374.679 60.2837 374.239 60.2413C373.799 60.1989 373.353 60.2513 372.939 60.3943C372.899 60.4127 372.855 60.4235 372.81 60.4262C372.765 60.4288 372.72 60.4232 372.677 60.4097C372.634 60.3962 372.595 60.3751 372.562 60.3476C372.528 60.3201 372.501 60.2868 372.482 60.2496C372.445 60.1691 372.444 60.0787 372.479 59.9976C372.515 59.9166 372.583 59.8512 372.671 59.8155C373.191 59.6224 373.754 59.5462 374.313 59.5934C374.872 59.6407 375.41 59.8099 375.882 60.0868C375.92 60.1104 375.953 60.1406 375.978 60.1757C376.003 60.2109 376.021 60.2502 376.029 60.2914C376.037 60.3326 376.036 60.375 376.027 60.4159C376.017 60.4569 375.998 60.4956 375.972 60.53C375.921 60.5819 375.856 60.6195 375.783 60.6385Z" fill="#263238"/>
<path d="M365.115 58.8297C365.062 58.8181 365.014 58.793 364.976 58.7574C364.943 58.7279 364.916 58.6927 364.898 58.6539C364.881 58.6151 364.871 58.5734 364.871 58.5313C364.871 58.4892 364.881 58.4475 364.898 58.4086C364.916 58.3698 364.943 58.3346 364.976 58.3052C365.357 57.9164 365.831 57.6129 366.363 57.4183C366.894 57.2238 367.467 57.1435 368.038 57.1837C368.084 57.1901 368.128 57.205 368.167 57.2274C368.206 57.2499 368.24 57.2794 368.266 57.3141C368.292 57.3489 368.31 57.3882 368.318 57.4295C368.327 57.4709 368.326 57.5134 368.316 57.5545C368.295 57.6382 368.241 57.712 368.164 57.762C368.087 57.8119 367.993 57.8346 367.899 57.8258C367.447 57.7999 366.995 57.8679 366.576 58.0246C366.158 58.1813 365.784 58.4226 365.483 58.7302C365.438 58.776 365.379 58.8095 365.314 58.8271C365.249 58.8446 365.18 58.8455 365.115 58.8297Z" fill="#263238"/>
<path d="M402.518 95.7939L392.178 93.2886C392.178 93.2886 382.037 115.999 378.447 117.473C373.576 119.499 361.237 126.517 355.988 129.837C355.699 130.967 355.928 133.961 356.584 134.784C365.532 133.301 382.663 127.304 386.242 124.256C394.405 117.301 402.518 95.7939 402.518 95.7939Z" fill="#E58A7B"/>
<path d="M395.3 319.714C394.795 319.75 394.292 319.625 393.878 319.361C393.75 319.256 393.654 319.122 393.6 318.973C393.546 318.824 393.536 318.665 393.57 318.511C393.576 318.415 393.611 318.322 393.67 318.242C393.73 318.163 393.812 318.099 393.908 318.058C394.743 317.67 397.079 319.017 397.348 319.171C397.377 319.187 397.4 319.212 397.413 319.242C397.425 319.271 397.427 319.303 397.417 319.334C397.409 319.365 397.392 319.394 397.367 319.418C397.343 319.442 397.312 319.459 397.278 319.469C396.63 319.614 395.967 319.696 395.3 319.714ZM394.305 318.303C394.23 318.287 394.152 318.287 394.077 318.303C394.039 318.32 394.007 318.348 393.986 318.381C393.965 318.415 393.955 318.454 393.957 318.493C393.931 318.598 393.935 318.708 393.97 318.811C394.005 318.914 394.069 319.007 394.156 319.08C394.544 319.397 395.518 319.433 396.801 319.207C396.037 318.75 395.177 318.441 394.276 318.303H394.305Z" fill="#407BFF"/>
<path d="M397.228 319.47C397.202 319.477 397.175 319.477 397.149 319.47C396.403 319.09 395.001 317.597 395.21 316.838C395.241 316.717 395.316 316.61 395.422 316.533C395.529 316.456 395.661 316.413 395.797 316.413C395.93 316.396 396.066 316.406 396.194 316.442C396.323 316.478 396.442 316.539 396.542 316.621C397.367 317.263 397.417 319.234 397.417 319.334C397.422 319.364 397.416 319.394 397.4 319.42C397.383 319.446 397.358 319.467 397.328 319.479C397.294 319.485 397.26 319.482 397.228 319.47ZM395.896 316.711H395.826C395.598 316.711 395.568 316.829 395.558 316.874C395.439 317.317 396.323 318.447 397.059 318.981C397.056 318.217 396.796 317.472 396.314 316.847C396.198 316.755 396.049 316.707 395.896 316.711Z" fill="#407BFF"/>
<path d="M368.903 318.583C368.294 318.776 367.632 318.776 367.024 318.583C366.885 318.515 366.768 318.416 366.683 318.296C366.598 318.176 366.548 318.038 366.536 317.896C366.524 317.806 366.536 317.715 366.573 317.632C366.61 317.548 366.669 317.474 366.745 317.416C367.541 316.765 370.792 317.416 371.16 317.543C371.195 317.551 371.226 317.57 371.247 317.596C371.269 317.623 371.28 317.655 371.279 317.688C371.28 317.722 371.271 317.755 371.251 317.784C371.232 317.813 371.203 317.836 371.17 317.85C370.437 318.151 369.679 318.396 368.903 318.583ZM367.282 317.507C367.168 317.528 367.062 317.574 366.974 317.642C366.942 317.664 366.918 317.693 366.904 317.727C366.89 317.761 366.886 317.797 366.894 317.832C366.901 317.927 366.933 318.019 366.989 318.1C367.045 318.18 367.121 318.247 367.213 318.294C367.739 318.547 368.962 318.348 370.543 317.742C369.478 317.498 368.376 317.418 367.282 317.507Z" fill="#407BFF"/>
<path d="M371.14 317.85H371.06C370.066 317.687 368.077 316.647 368.018 315.87C368.018 315.689 368.107 315.435 368.585 315.291C368.746 315.239 368.917 315.216 369.088 315.226C369.259 315.235 369.426 315.276 369.579 315.345C370.653 315.824 371.219 317.561 371.249 317.642C371.256 317.67 371.255 317.698 371.246 317.725C371.238 317.752 371.222 317.776 371.199 317.796C371.185 317.818 371.164 317.837 371.14 317.85ZM368.783 315.562H368.684C368.376 315.662 368.376 315.779 368.376 315.815C368.376 316.286 369.817 317.145 370.822 317.434C370.59 316.708 370.101 316.072 369.43 315.625C369.23 315.533 369 315.51 368.783 315.562Z" fill="#407BFF"/>
<path d="M356.833 129.303L346.463 133.644L345.26 136.358L349.088 138.7C349.088 138.7 356.246 137.995 358.284 133.807L356.833 129.303Z" fill="#E58A7B"/>
<path d="M357.27 134.938C357.039 133.125 356.381 131.379 355.342 129.819L356.982 128.697C358.216 130.495 359.003 132.517 359.289 134.621L357.27 134.938Z" fill="#263238"/>
<path d="M359.04 130.587C359.259 130.901 359.367 131.268 359.348 131.64C359.33 132.011 359.186 132.368 358.937 132.662C358.687 132.957 358.344 133.174 357.954 133.285C357.564 133.395 357.146 133.394 356.757 133.281C356.367 133.168 356.026 132.948 355.779 132.652C355.532 132.356 355.391 131.998 355.375 131.627C355.359 131.255 355.47 130.889 355.692 130.576C355.913 130.264 356.235 130.022 356.614 129.882C357.039 129.685 357.532 129.648 357.987 129.781C358.441 129.913 358.819 130.203 359.04 130.587Z" fill="#263238"/>
<path d="M339.454 137.153L340.836 138.419L350.142 134.802L346.463 133.644L339.454 137.153Z" fill="#E58A7B"/>
<path opacity="0.2" d="M379.412 302.466C379.472 302.466 380.824 305.921 380.824 305.921L367.064 311.185L364.896 307.513L379.412 302.466Z" fill="black"/>
<path opacity="0.2" d="M407.539 306.852C407.598 306.852 407.996 310.335 407.996 310.335H392.923L391.849 306.337L407.539 306.852Z" fill="black"/>
<path d="M405.212 93.1892C407.946 101.212 397.258 112.182 397.258 112.182L382.494 106.701C384.244 102.065 386.262 97.515 388.539 93.0717C393.073 84.1811 402.448 85.0946 405.212 93.1892Z" fill="#407BFF"/>
<path opacity="0.2" d="M405.212 93.1892C407.946 101.212 397.258 112.182 397.258 112.182L382.494 106.701C384.244 102.065 386.262 97.515 388.539 93.0717C393.073 84.1811 402.448 85.0946 405.212 93.1892Z" fill="black"/>
<path d="M258.503 12.8123H252.15V13.7438H258.503V12.8123Z" fill="#407BFF"/>
<path d="M340.744 49.6829L339.975 65.2053L340.998 65.2473L341.767 49.7248L340.744 49.6829Z" fill="#407BFF"/>
<path d="M338.768 16.9907H221.448L210.531 239.228H327.851L338.768 16.9907Z" fill="#407BFF"/>
<path opacity="0.56" d="M335.268 20.0479H217.948L207.031 242.285H324.351L335.268 20.0479Z" fill="#FAFAFA"/>
<path opacity="0.07" d="M331.768 23.0957H214.449L203.522 245.333H320.842L331.768 23.0957Z" fill="#407BFF"/>
<path d="M318.416 120.024H218.276L217.441 137.027H317.581L318.416 120.024Z" fill="white"/>
<path d="M273.347 107.615H218.883L218.515 115.221H272.979L273.347 107.615Z" fill="#407BFF"/>
<path d="M316.159 165.915H216.019L215.184 182.918H315.323L316.159 165.915Z" fill="white"/>
<path opacity="0.47" d="M297.795 205.882H230.456L229.452 226.258H296.791L297.795 205.882Z" fill="#407BFF"/>
<path d="M293.291 229.424H225.952C225.922 229.431 225.892 229.431 225.862 229.424C225.853 229.398 225.853 229.369 225.862 229.343L226.857 208.957C226.857 208.943 226.86 208.929 226.866 208.917C226.872 208.904 226.881 208.892 226.892 208.883C226.903 208.874 226.917 208.867 226.931 208.862C226.945 208.858 226.961 208.856 226.976 208.857H294.315C294.328 208.852 294.341 208.849 294.355 208.849C294.369 208.849 294.383 208.852 294.395 208.857C294.402 208.868 294.406 208.881 294.406 208.894C294.406 208.906 294.402 208.919 294.395 208.93L293.421 229.361C293.409 229.382 293.39 229.4 293.367 229.411C293.344 229.422 293.317 229.427 293.291 229.424ZM226.071 229.207H293.172L294.166 209.038H227.065L226.071 229.207Z" fill="white"/>
<path d="M261.585 153.506H216.626L216.258 161.121H261.208L261.585 153.506Z" fill="#407BFF"/>
<path d="M296.513 65.0976C296.256 70.0461 294.321 74.8009 290.975 78.7093C288.498 81.6615 285.31 84.0582 281.656 85.7153C278.002 87.3725 273.98 88.2461 269.897 88.2692C266.598 88.2921 263.328 87.7002 260.29 86.5302C257.252 85.3602 254.509 83.6366 252.231 81.4658C249.953 79.295 248.187 76.7229 247.043 73.9079C245.899 71.0928 245.4 68.0945 245.578 65.0976C245.928 58.8787 248.876 53.0163 253.819 48.7091C258.763 44.402 265.329 41.9755 272.174 41.926C275.475 41.898 278.748 42.4862 281.79 43.6542C284.832 44.8222 287.579 46.5453 289.86 48.7169C292.141 50.8886 293.908 53.4626 295.052 56.2801C296.197 59.0975 296.694 62.0985 296.513 65.0976Z" fill="white"/>
<path d="M298.909 46.7737C298.844 48.0895 298.33 49.3541 297.438 50.3914C296.777 51.1755 295.929 51.8121 294.957 52.2525C293.985 52.693 292.916 52.9257 291.83 52.9329C290.778 52.9387 289.741 52.7101 288.808 52.2671C287.876 51.8241 287.077 51.1801 286.481 50.3914C285.692 49.3257 285.302 48.0571 285.367 46.7737C285.464 45.1226 286.249 43.567 287.562 42.4241C288.876 41.2813 290.619 40.6373 292.437 40.6235C293.313 40.6163 294.183 40.7724 294.991 41.0823C295.799 41.3922 296.528 41.8493 297.135 42.4255C297.741 43.0017 298.211 43.6848 298.516 44.4326C298.822 45.1804 298.955 45.9771 298.909 46.7737Z" fill="#407BFF"/>
<path d="M229.064 128.525C229.016 129.254 228.666 129.939 228.085 130.443C227.504 130.946 226.735 131.231 225.932 131.239C225.545 131.243 225.16 131.175 224.803 131.038C224.445 130.902 224.123 130.701 223.854 130.446C223.586 130.192 223.378 129.89 223.242 129.56C223.107 129.23 223.048 128.877 223.069 128.525C223.112 127.795 223.46 127.107 224.042 126.603C224.624 126.099 225.396 125.816 226.2 125.812C226.588 125.809 226.971 125.878 227.328 126.015C227.685 126.152 228.007 126.353 228.275 126.607C228.543 126.861 228.751 127.163 228.887 127.492C229.023 127.822 229.083 128.174 229.064 128.525Z" fill="#263238"/>
<path d="M242.466 128.525C242.42 129.255 242.071 129.941 241.49 130.445C240.908 130.949 240.137 131.233 239.334 131.239C238.947 131.242 238.564 131.172 238.208 131.036C237.852 130.899 237.53 130.697 237.263 130.443C236.995 130.189 236.788 129.887 236.654 129.558C236.519 129.228 236.46 128.877 236.48 128.525C236.523 127.796 236.87 127.11 237.45 126.606C238.031 126.102 238.8 125.818 239.602 125.812C239.99 125.808 240.374 125.876 240.732 126.012C241.089 126.148 241.412 126.35 241.68 126.604C241.949 126.859 242.157 127.16 242.292 127.491C242.427 127.821 242.486 128.173 242.466 128.525Z" fill="#263238"/>
<path d="M255.878 128.525C255.833 129.255 255.484 129.942 254.902 130.445C254.321 130.949 253.55 131.233 252.747 131.239C252.359 131.242 251.976 131.173 251.619 131.036C251.262 130.899 250.94 130.698 250.672 130.444C250.404 130.19 250.196 129.888 250.06 129.559C249.924 129.229 249.864 128.877 249.883 128.525C249.929 127.796 250.278 127.109 250.859 126.606C251.441 126.102 252.212 125.818 253.015 125.812C253.403 125.808 253.787 125.876 254.144 126.012C254.502 126.149 254.825 126.35 255.093 126.605C255.361 126.859 255.569 127.161 255.705 127.491C255.84 127.821 255.899 128.173 255.878 128.525Z" fill="#263238"/>
<path d="M226.807 174.417C226.759 175.145 226.409 175.831 225.828 176.334C225.247 176.838 224.478 177.122 223.675 177.13C223.288 177.133 222.904 177.064 222.548 176.927C222.191 176.79 221.869 176.589 221.6 176.335C221.332 176.081 221.124 175.779 220.989 175.45C220.853 175.12 220.793 174.768 220.812 174.417C220.857 173.687 221.206 173 221.788 172.497C222.369 171.993 223.14 171.709 223.943 171.703C224.331 171.7 224.714 171.769 225.071 171.906C225.428 172.043 225.75 172.244 226.018 172.498C226.286 172.752 226.494 173.054 226.63 173.383C226.766 173.713 226.826 174.065 226.807 174.417Z" fill="#263238"/>
<path d="M240.209 174.417C240.164 175.145 239.816 175.83 239.237 176.333C238.657 176.837 237.889 177.122 237.087 177.13C236.7 177.134 236.315 177.066 235.958 176.93C235.601 176.793 235.278 176.592 235.009 176.337C234.741 176.083 234.533 175.781 234.398 175.451C234.263 175.121 234.203 174.769 234.224 174.417C234.269 173.687 234.618 173 235.2 172.497C235.782 171.993 236.552 171.709 237.356 171.703C237.742 171.7 238.126 171.769 238.482 171.906C238.838 172.043 239.16 172.245 239.427 172.499C239.694 172.753 239.902 173.054 240.036 173.384C240.171 173.714 240.229 174.065 240.209 174.417Z" fill="#263238"/>
<path d="M253.651 174.417C253.606 175.146 253.257 175.833 252.675 176.337C252.093 176.841 251.323 177.124 250.519 177.13C250.133 177.131 249.75 177.062 249.394 176.924C249.037 176.787 248.716 176.586 248.448 176.332C248.18 176.078 247.972 175.777 247.836 175.448C247.7 175.119 247.638 174.768 247.656 174.417C247.704 173.688 248.053 173.003 248.635 172.499C249.216 171.996 249.985 171.711 250.788 171.703C251.175 171.699 251.56 171.767 251.917 171.904C252.274 172.04 252.597 172.241 252.866 172.496C253.134 172.75 253.342 173.052 253.477 173.382C253.612 173.712 253.672 174.065 253.651 174.417Z" fill="#263238"/>
<path d="M267.034 174.417C266.986 175.145 266.636 175.831 266.055 176.334C265.474 176.838 264.705 177.122 263.902 177.13C263.515 177.131 263.132 177.061 262.776 176.924C262.42 176.787 262.098 176.585 261.831 176.332C261.563 176.078 261.355 175.777 261.218 175.448C261.082 175.119 261.021 174.768 261.039 174.417C261.086 173.688 261.436 173.002 262.017 172.499C262.598 171.995 263.368 171.711 264.17 171.703C264.558 171.7 264.941 171.769 265.298 171.906C265.655 172.043 265.977 172.244 266.245 172.498C266.513 172.752 266.721 173.054 266.857 173.383C266.993 173.713 267.053 174.065 267.034 174.417Z" fill="#263238"/>
<path d="M280.496 174.417C280.448 175.145 280.098 175.831 279.517 176.334C278.936 176.838 278.166 177.122 277.364 177.13C276.976 177.134 276.592 177.066 276.235 176.93C275.877 176.793 275.554 176.592 275.286 176.337C275.018 176.083 274.809 175.781 274.674 175.451C274.539 175.121 274.48 174.769 274.5 174.417C274.546 173.687 274.895 173 275.477 172.497C276.058 171.993 276.829 171.709 277.632 171.703C278.019 171.7 278.403 171.769 278.76 171.906C279.116 172.043 279.439 172.244 279.707 172.498C279.975 172.752 280.183 173.054 280.319 173.383C280.454 173.713 280.515 174.065 280.496 174.417Z" fill="#263238"/>
<path d="M278.461 63.8909C282.622 60.189 282.843 54.2552 278.954 50.6376C275.065 47.0199 268.539 47.0881 264.378 50.79C260.216 54.4919 259.995 60.4256 263.884 64.0433C267.773 67.661 274.3 67.5928 278.461 63.8909Z" fill="#407BFF"/>
<path d="M290.975 78.7093C288.498 81.6615 285.31 84.0582 281.656 85.7154C278.002 87.3726 273.98 88.2462 269.897 88.2692C265.938 88.2998 262.032 87.4437 258.522 85.7765C255.013 84.1094 252.009 81.6823 249.774 78.7093C254.606 74.3319 262.251 71.4739 270.722 71.4739C279.193 71.4739 286.57 74.3319 290.975 78.7093Z" fill="#407BFF"/>
<path opacity="0.1" d="M278.461 63.8909C282.622 60.189 282.843 54.2552 278.954 50.6376C275.065 47.0199 268.539 47.0881 264.378 50.79C260.216 54.4919 259.995 60.4256 263.884 64.0433C267.773 67.661 274.3 67.5928 278.461 63.8909Z" fill="white"/>
<path opacity="0.1" d="M290.975 78.7093C288.498 81.6615 285.31 84.0582 281.656 85.7154C278.002 87.3726 273.98 88.2462 269.897 88.2692C265.938 88.2998 262.032 87.4437 258.522 85.7765C255.013 84.1094 252.009 81.6823 249.774 78.7093C254.606 74.3319 262.251 71.4739 270.722 71.4739C279.193 71.4739 286.57 74.3319 290.975 78.7093Z" fill="white"/>
<path d="M144.693 141.124C143.748 143.005 142.754 145.076 141.889 147.084C141.024 149.092 140.139 151.163 139.374 153.225C137.811 157.289 136.62 161.464 135.814 165.707L135.596 167.036C135.575 167.264 135.598 167.494 135.665 167.714C135.9 168.464 136.269 169.173 136.759 169.813C138.036 171.469 139.517 172.986 141.173 174.335C142.92 175.813 144.752 177.204 146.661 178.504C148.57 179.843 150.579 181.145 152.557 182.375L150.698 185.55C145.974 183.677 141.489 181.339 137.326 178.577C135.104 177.103 133.099 175.377 131.36 173.44C130.329 172.286 129.525 170.98 128.984 169.578C128.669 168.702 128.508 167.786 128.507 166.864C128.507 166.647 128.507 166.331 128.507 166.177V165.734L128.606 164.829C129.176 160.117 130.265 155.469 131.857 150.955C132.633 148.73 133.458 146.515 134.403 144.353C135.347 142.191 136.321 140.075 137.524 137.877L144.693 141.124Z" fill="#E58A7B"/>
<path d="M151.156 181.815L158.185 178.577L156.365 185.595C156.365 185.595 151.543 186.825 149.306 184.691L151.156 181.815Z" fill="#E58A7B"/>
<path d="M164.618 179.725L162.748 185.532L156.365 185.595L158.185 178.577L164.618 179.725Z" fill="#E58A7B"/>
<path d="M174.54 107.262C174.916 108.516 175.439 109.729 176.101 110.88C175.907 111.079 175.658 111.227 175.38 111.309C175.102 111.39 174.805 111.401 174.52 111.341L174.54 107.262Z" fill="#DF5753"/>
<path d="M174.331 107.316C174.743 107.316 175.077 106.851 175.077 106.276C175.077 105.702 174.743 105.236 174.331 105.236C173.919 105.236 173.585 105.702 173.585 106.276C173.585 106.851 173.919 107.316 174.331 107.316Z" fill="#263238"/>
<path d="M174.112 105.272L175.624 104.884C175.624 104.884 174.888 105.951 174.112 105.272Z" fill="#263238"/>
<path d="M155.122 113.901C156.027 118.106 156.932 125.821 153.691 128.634C153.691 128.634 154.963 132.903 163.564 132.903C173.019 132.903 168.077 128.634 168.077 128.634C162.917 127.512 163.047 124.03 163.951 120.756L155.122 113.901Z" fill="#E58A7B"/>
<path d="M152.607 104.314C153.084 111.341 153.124 114.326 157.021 117.934C162.897 123.361 172.283 121.299 174.122 114.317C175.783 107.986 174.729 97.5666 167.163 94.7719C165.502 94.1495 163.694 93.9229 161.91 94.1133C160.126 94.3038 158.425 94.9051 156.968 95.8604C155.51 96.8157 154.345 98.0934 153.582 99.5726C152.819 101.052 152.483 102.684 152.607 104.314Z" fill="#E58A7B"/>
<path d="M153.373 96.4089C149.495 97.6932 144.325 96.7345 146.353 107.615C148.501 119.137 145.2 122.927 145.2 122.927C145.2 122.927 159.905 125.776 174.918 122.755C174.918 122.755 170.334 115.465 171.617 110.093C173.257 103.31 171.965 100.804 171.965 100.804C171.965 100.804 158.821 94.6001 153.373 96.4089Z" fill="#263238"/>
<path d="M169.778 107.977C169.782 109.313 170.202 110.621 170.991 111.748C172.044 113.213 173.287 112.653 173.595 111.097C173.874 109.731 173.665 107.316 172.323 106.376C170.981 105.435 169.797 106.358 169.778 107.977Z" fill="#E58A7B"/>
<path d="M150.002 97.5937C148.889 94.7448 154.198 90.3583 165.433 92.1671C176.668 93.976 177.155 102.487 177.155 102.487L174.888 100.027L174.987 102.613L163.444 104.63L150.002 97.5937Z" fill="#263238"/>
<path d="M150.957 129.113C150.89 128.7 151.004 128.28 151.273 127.942C151.542 127.604 151.946 127.375 152.398 127.304C155.898 126.78 163.852 125.713 167.849 126.219C170.831 126.599 171.607 128.173 171.736 129.466C171.756 129.692 171.723 129.92 171.638 130.134C171.554 130.348 171.42 130.543 171.246 130.705C171.071 130.868 170.861 130.995 170.628 131.078C170.396 131.16 170.146 131.197 169.897 131.184L152.617 130.479C152.21 130.46 151.822 130.314 151.519 130.065C151.217 129.816 151.018 129.48 150.957 129.113Z" fill="#407BFF"/>
<path opacity="0.6" d="M150.957 129.113C150.89 128.7 151.004 128.28 151.273 127.942C151.542 127.604 151.946 127.375 152.398 127.304C155.898 126.78 163.852 125.713 167.849 126.219C170.831 126.599 171.607 128.173 171.736 129.466C171.756 129.692 171.723 129.92 171.638 130.134C171.554 130.348 171.42 130.543 171.246 130.705C171.071 130.868 170.861 130.995 170.628 131.078C170.396 131.16 170.146 131.197 169.897 131.184L152.617 130.479C152.21 130.46 151.822 130.314 151.519 130.065C151.217 129.816 151.018 129.48 150.957 129.113Z" fill="black"/>
<path d="M160.949 287.118L167.361 291.17L178.089 277.938L171.676 273.895L160.949 287.118Z" fill="#E58A7B"/>
<path d="M145.995 286.856L152.766 290.365L162.261 276.373L155.49 272.864L145.995 286.856Z" fill="#E58A7B"/>
<path d="M178.079 277.938L172.551 284.757L166.139 280.714L171.667 273.895L178.079 277.938Z" fill="#CF6F64"/>
<path d="M155.48 272.864L162.261 276.382L157.369 283.591L150.589 280.072L155.48 272.864Z" fill="#CF6F64"/>
<path d="M166.357 173.286C166.357 173.286 191.392 201.983 186.689 229.433C182.901 251.601 160.929 281.619 160.929 281.619L150.599 276.952C157.88 263.679 164.094 249.944 169.191 235.854C170.763 231.48 171.222 226.838 170.533 222.278C169.844 217.719 168.025 213.362 165.214 209.535C152.527 192.686 132.205 202.716 145.876 173.286H166.357Z" fill="#407BFF"/>
<path opacity="0.6" d="M166.357 173.286C166.357 173.286 191.392 201.983 186.689 229.433C182.901 251.601 160.929 281.619 160.929 281.619L150.599 276.952C157.88 263.679 164.094 249.944 169.191 235.854C170.763 231.48 171.222 226.838 170.533 222.278C169.844 217.719 168.025 213.362 165.214 209.535C152.527 192.686 132.205 202.716 145.876 173.286H166.357Z" fill="black"/>
<path opacity="0.4" d="M178.636 191.718L174.997 188.426C174.997 188.688 182.046 228.275 184.025 239.4C185.192 236.15 186.086 232.824 186.699 229.451C189.026 215.984 184.164 202.228 178.636 191.718Z" fill="black"/>
<path d="M177.533 173.286C177.533 173.286 207.678 209.355 208.533 230.98C209.239 249.068 175.723 284.115 175.723 284.115L165.98 278.381C165.98 278.381 185.596 253.491 190.537 233.159C188.628 213.009 148.262 173.286 148.262 173.286H177.533Z" fill="#407BFF"/>
<path opacity="0.6" d="M177.533 173.286C177.533 173.286 207.678 209.355 208.533 230.98C209.239 249.068 175.723 284.115 175.723 284.115L165.98 278.381C165.98 278.381 185.596 253.491 190.537 233.159C188.628 213.009 148.262 173.286 148.262 173.286H177.533Z" fill="black"/>
<path d="M140.239 130.244C137.017 130.94 133.925 141.594 133.925 141.594L146.522 149.246C146.522 149.246 150.718 140.817 149.247 137.127C147.725 133.283 144.285 129.367 140.239 130.244Z" fill="#407BFF"/>
<path opacity="0.2" d="M142.705 137.108L141.83 146.397L146.512 149.255C147.805 146.607 148.763 143.833 149.366 140.988L142.705 137.108Z" fill="black"/>
<path d="M181.261 130.452C181.261 130.452 184.979 131.636 177.533 173.277H145.856C146.393 161.519 146.403 154.283 140.239 130.244C144.674 129.412 149.17 128.874 153.691 128.634C158.48 128.321 163.288 128.321 168.077 128.634C174.262 129.149 181.261 130.452 181.261 130.452Z" fill="#407BFF"/>
<path d="M184.482 137.108C185.198 138.917 185.954 140.862 186.749 142.734C187.544 144.606 188.3 146.533 189.105 148.432L191.541 154.112L192.158 155.532L192.476 156.237L192.625 156.59C192.625 156.653 192.625 156.653 192.625 156.644C192.443 156.411 192.205 156.219 191.929 156.083C191.536 155.873 191.092 155.752 190.636 155.731C190.258 155.72 189.881 155.785 189.533 155.921C189.075 156.11 189.075 156.192 189.085 156.183C189.168 156.123 189.242 156.053 189.304 155.975C189.854 155.317 190.331 154.611 190.726 153.867C191.193 153.035 191.641 152.149 192.088 151.254C192.963 149.445 193.768 147.573 194.574 145.682C195.379 143.792 196.144 141.884 196.89 139.957L199.157 134.187L202.985 135.091C202.229 139.216 201.255 143.231 200.082 147.319C199.515 149.354 198.849 151.371 198.093 153.406C197.715 154.428 197.298 155.441 196.821 156.481C196.323 157.61 195.711 158.694 194.991 159.719C194.727 160.064 194.434 160.391 194.116 160.696C193.609 161.195 192.992 161.592 192.307 161.863C191.698 162.1 191.039 162.211 190.378 162.188C189.637 162.163 188.915 161.967 188.28 161.618C187.531 161.193 186.909 160.606 186.471 159.909C186.321 159.674 186.192 159.439 186.103 159.267L185.914 158.923L185.536 158.218L184.78 156.816C183.786 154.935 182.792 153.035 181.927 151.127C181.062 149.219 180.147 147.283 179.292 145.339C178.437 143.394 177.672 141.45 176.946 139.351L184.482 137.108Z" fill="#E58A7B"/>
<path d="M181.261 130.452C185.069 131.275 189.354 141.513 189.354 141.513L178.03 150.277C178.03 150.277 170.702 139.116 172.184 135.435C173.725 131.6 176.29 129.375 181.261 130.452Z" fill="#407BFF"/>
<path d="M200.957 130.949L204.933 127.928L207.697 131.844L205.659 135.109C205.659 135.109 202.418 137.823 199.555 136.439C199.1 135.51 198.991 134.471 199.244 133.48C199.497 132.49 200.098 131.601 200.957 130.949Z" fill="#E58A7B"/>
<path d="M212.112 127.938L211.814 128.923L205.52 129.882L204.904 127.928L212.112 127.938Z" fill="#E58A7B"/>
<path d="M176.499 284.576L165.145 277.901L167.183 274.682L179.939 281.818L176.499 284.576Z" fill="#407BFF"/>
<path d="M157.21 289.894C156.214 289.784 155.257 289.475 154.407 288.99C154.371 288.979 154.341 288.958 154.319 288.931C154.298 288.903 154.286 288.87 154.286 288.836C154.286 288.802 154.298 288.769 154.319 288.742C154.341 288.714 154.371 288.694 154.407 288.682C154.715 288.592 157.389 287.841 158.165 288.42C158.252 288.486 158.318 288.572 158.357 288.669C158.395 288.766 158.404 288.871 158.383 288.972C158.37 289.135 158.31 289.292 158.211 289.428C158.112 289.564 157.976 289.675 157.817 289.75C157.631 289.842 157.422 289.892 157.21 289.894ZM154.973 288.9C156.216 289.478 157.21 289.686 157.687 289.469C157.791 289.417 157.879 289.341 157.942 289.249C158.004 289.158 158.04 289.053 158.045 288.945C158.045 288.8 158.045 288.737 157.956 288.701C157.538 288.393 156.047 288.628 154.953 288.9H154.973Z" fill="#263238"/>
<path d="M154.476 289.053C154.424 289.052 154.374 289.033 154.337 288.999C154.322 288.974 154.315 288.946 154.315 288.917C154.315 288.889 154.322 288.861 154.337 288.836C154.337 288.755 154.983 286.792 155.997 286.349C156.127 286.295 156.268 286.267 156.41 286.267C156.552 286.267 156.693 286.295 156.823 286.349C156.962 286.389 157.083 286.47 157.166 286.58C157.249 286.69 157.289 286.822 157.28 286.955C157.21 287.769 155.391 288.89 154.556 289.08L154.476 289.053ZM156.405 286.584C156.308 286.587 156.213 286.608 156.127 286.647C155.51 286.919 155.003 287.977 154.755 288.619C155.63 288.284 156.833 287.398 156.872 286.901C156.872 286.819 156.872 286.72 156.644 286.629C156.569 286.593 156.489 286.568 156.405 286.557V286.584Z" fill="#263238"/>
<path d="M171.398 293.802C170.275 293.802 168.714 292.49 167.859 291.685C167.837 291.657 167.825 291.624 167.825 291.59C167.825 291.556 167.837 291.523 167.859 291.495C167.878 291.466 167.906 291.442 167.939 291.426C167.973 291.41 168.01 291.403 168.047 291.405C168.445 291.405 171.895 291.875 172.382 292.761C172.434 292.841 172.461 292.931 172.461 293.024C172.461 293.116 172.434 293.207 172.382 293.286C172.309 293.424 172.199 293.543 172.061 293.632C171.924 293.72 171.764 293.775 171.597 293.792L171.398 293.802ZM168.515 291.812C169.767 292.915 170.871 293.53 171.497 293.458C171.607 293.445 171.712 293.407 171.802 293.349C171.892 293.291 171.965 293.213 172.014 293.123C172.037 293.092 172.049 293.056 172.049 293.019C172.049 292.982 172.037 292.946 172.014 292.915C171.756 292.427 169.917 292.011 168.515 291.812Z" fill="#263238"/>
<path d="M168.624 291.766C168.401 291.772 168.178 291.757 167.958 291.721C167.927 291.717 167.898 291.706 167.874 291.688C167.849 291.671 167.83 291.648 167.819 291.622C167.804 291.595 167.796 291.566 167.796 291.536C167.796 291.506 167.804 291.477 167.819 291.45C167.878 291.387 169.221 289.912 170.493 289.813C170.853 289.787 171.21 289.891 171.487 290.102C171.875 290.41 171.855 290.681 171.756 290.853C171.507 291.468 169.787 291.766 168.624 291.766ZM168.366 291.432C169.479 291.486 171.259 291.151 171.487 290.708C171.487 290.708 171.567 290.564 171.308 290.365C171.206 290.283 171.085 290.222 170.955 290.185C170.825 290.147 170.688 290.135 170.553 290.148C169.696 290.365 168.932 290.817 168.366 291.441V291.432Z" fill="#263238"/>
<path d="M154.745 288.077L146.314 285.906C146.168 285.866 146.012 285.876 145.874 285.934C145.737 285.993 145.628 286.095 145.568 286.222L142.724 292.038C142.658 292.187 142.626 292.347 142.632 292.508C142.639 292.669 142.682 292.826 142.76 292.971C142.838 293.115 142.949 293.243 143.085 293.345C143.221 293.448 143.379 293.523 143.55 293.566C146.532 294.272 147.964 294.471 151.673 295.439C153.959 296.017 157.22 297.094 160.372 297.908C163.524 298.722 164.578 295.927 163.355 295.33C157.827 292.671 157.389 290.808 155.878 288.818C155.608 288.458 155.206 288.195 154.745 288.077Z" fill="#407BFF"/>
<path d="M168.087 290.627L160.889 286.105C160.767 286.024 160.617 285.987 160.466 286C160.316 286.013 160.176 286.076 160.074 286.177L155.301 290.844C155.185 290.965 155.098 291.106 155.047 291.26C154.996 291.413 154.981 291.575 155.003 291.734C155.026 291.893 155.085 292.046 155.178 292.183C155.27 292.319 155.394 292.436 155.54 292.526C158.075 294.073 159.388 294.697 162.559 296.696C164.548 297.926 168.396 300.657 171.08 302.357C173.764 304.058 175.763 301.724 174.808 300.802C170.533 296.65 169.599 294.046 168.893 291.685C168.77 291.257 168.485 290.882 168.087 290.627Z" fill="#407BFF"/>
<path d="M162.251 282.216L149.276 276.346L150.619 273.144L164.478 279.331L162.251 282.216Z" fill="#407BFF"/>
<path d="M145.379 171.585L144.285 174.19C144.176 174.389 144.434 174.597 144.802 174.597H177.692C177.98 174.597 178.219 174.471 178.238 174.308L178.517 171.721C178.517 171.549 178.288 171.395 177.98 171.395H145.896C145.799 171.387 145.702 171.4 145.612 171.433C145.522 171.466 145.442 171.518 145.379 171.585Z" fill="#407BFF"/>
<path opacity="0.4" d="M145.379 171.585L144.285 174.19C144.176 174.389 144.434 174.597 144.802 174.597H177.692C177.98 174.597 178.219 174.471 178.238 174.308L178.517 171.721C178.517 171.549 178.288 171.395 177.98 171.395H145.896C145.799 171.387 145.702 171.4 145.612 171.433C145.522 171.466 145.442 171.518 145.379 171.585Z" fill="white"/>
<path d="M150.559 174.851H149.694C149.525 174.851 149.396 174.769 149.406 174.67L149.813 171.314C149.813 171.224 149.973 171.142 150.142 171.142H151.007C151.176 171.142 151.305 171.224 151.295 171.314L150.887 174.67C150.877 174.769 150.728 174.851 150.559 174.851Z" fill="#407BFF"/>
<path d="M170.841 174.85H169.986C169.817 174.85 169.688 174.769 169.698 174.669L170.096 171.314C170.096 171.223 170.265 171.142 170.434 171.142H171.289C171.458 171.142 171.597 171.223 171.577 171.314L171.179 174.669C171.13 174.769 171.02 174.85 170.841 174.85Z" fill="#407BFF"/>
<g style="mix-blend-mode:multiply">
<path d="M149.803 328.016C164.514 328.016 176.439 327.23 176.439 326.261C176.439 325.292 164.514 324.507 149.803 324.507C135.093 324.507 123.168 325.292 123.168 326.261C123.168 327.23 135.093 328.016 149.803 328.016Z" fill="#F5F5F5"/>
</g>
<path d="M166.029 323.783C161.316 322.535 156.087 320.934 152.925 319.261C152.836 319.207 152.736 319.18 152.647 319.134V299.725H162.181C162.905 299.686 163.585 299.397 164.083 298.917C164.58 298.437 164.857 297.803 164.857 297.143C164.857 296.484 164.58 295.849 164.083 295.369C163.585 294.889 162.905 294.6 162.181 294.561H152.696V206.089H146.97V294.561H137.495C137.108 294.54 136.72 294.592 136.356 294.712C135.992 294.832 135.658 295.019 135.376 295.261C135.094 295.503 134.869 295.794 134.716 296.118C134.562 296.442 134.483 296.791 134.483 297.143C134.483 297.496 134.562 297.845 134.716 298.168C134.869 298.492 135.094 298.784 135.376 299.026C135.658 299.267 135.992 299.454 136.356 299.575C136.72 299.695 137.108 299.746 137.495 299.725H146.97V319.107C146.88 319.107 146.791 319.18 146.701 319.234C143.49 320.934 138.3 322.535 133.587 323.756C133.269 323.844 132.996 324.032 132.817 324.287C132.638 324.542 132.565 324.847 132.612 325.147C132.659 325.446 132.822 325.72 133.072 325.92C133.322 326.12 133.642 326.231 133.975 326.234H165.641C165.959 326.215 166.26 326.096 166.493 325.899C166.727 325.702 166.879 325.438 166.924 325.151C166.97 324.865 166.906 324.572 166.743 324.323C166.58 324.074 166.328 323.884 166.029 323.783Z" fill="#E0E0E0"/>
<path d="M167.491 197.082H132.136C129.292 197.082 126.986 199.179 126.986 201.767V211.326C126.986 213.914 129.292 216.011 132.136 216.011H167.491C170.335 216.011 172.641 213.914 172.641 211.326V201.767C172.641 199.179 170.335 197.082 167.491 197.082Z" fill="#407BFF"/>
<path d="M131.807 216.02V217.666C131.807 219.023 133.428 220.126 135.417 220.126H164.249C166.238 220.126 167.858 219.023 167.858 217.666V216.02H131.807Z" fill="#407BFF"/>
<path opacity="0.3" d="M131.807 216.02V217.666C131.807 219.023 133.428 220.126 135.417 220.126H164.249C166.238 220.126 167.858 219.023 167.858 217.666V216.02H131.807Z" fill="white"/>
</g>
<defs>
<clipPath id="clip0_256_7329">
<path d="M0 0H520C524.418 0 528 3.58172 528 8V326C528 330.418 524.418 334 520 334H0V0Z" fill="white"/>
</clipPath>
</defs>
</svg>
